<svg width="513" height="343" viewBox="0 0 513 343" fill="none" xmlns="http://www.w3.org/2000/svg">
<g clip-path="url(#clip0_301_1698)">
<path d="M0 0.994141H513V342.994H0V0.994141Z" fill="#FFDA44"/>
<path d="M0 0.994141H171V342.994H0V0.994141Z" fill="#0052B4"/>
<path d="M342 0.994141H513V342.994H342V0.994141ZM198.9 114.594H256V179.394H198.9V114.594Z" fill="#D80027"/>
<path d="M267.6 114.594V179.294V114.594ZM284.2 114.594V179.294V114.594ZM300.8 114.594V179.294V114.594Z" fill="black"/>
<path fill-rule="evenodd" clip-rule="evenodd" d="M271.1 114.594V179.294H264.1V114.594H271.1ZM287.7 114.594V179.294H280.7V114.594H287.7ZM297.3 179.294V114.594H304.3V179.294H297.3Z" fill="#D80027"/>
<path d="M247.4 179.394V244.094V179.394ZM234.1 179.394V244.094V179.394ZM220.8 179.494V233.394V179.494ZM207.1 179.494V226.594V179.494Z" fill="black"/>
<path fill-rule="evenodd" clip-rule="evenodd" d="M236.6 179.394V244.094H231.6V179.394H236.6ZM249.9 179.394V244.094H244.9V179.394H249.9ZM204.6 226.594V179.494H209.6V226.594H204.6ZM223.3 179.494V233.394H218.3V179.494H223.3Z" fill="#D80027"/>
<path d="M199.9 146.994L227.5 114.594L256 146.894L227.9 179.294L199.9 146.994Z" fill="#FFDA44"/>
<path d="M182.2 96.8942V189.094C182.2 223.394 209.5 243.294 230.8 253.594C230 254.994 255.9 261.894 255.9 261.894C255.9 261.894 281.8 254.994 281 253.594C302.4 243.294 329.6 223.494 329.6 189.094V96.8942H182.2ZM312.1 189.094C312.1 205.994 302.1 218.494 279.3 232.994C270.7 238.494 261.8 241.994 256 243.994C250.2 241.994 241.3 238.494 232.7 232.994C209.9 218.494 199.9 204.994 199.9 189.094V114.594H312.1V189.094Z" fill="#BC8B00"/>
<path d="M264.4 189.894H293.9V198.494H264.4V189.894ZM264.4 207.494H293.9V216.094H264.4V207.494Z" fill="#D80027"/>
</g>
<defs>
<clipPath id="clip0_301_1698">
<rect width="513" height="342" fill="white" transform="translate(0 0.994141)"/>
</clipPath>
</defs>
</svg>
