<svg width="513" height="343" viewBox="0 0 513 343" fill="none" xmlns="http://www.w3.org/2000/svg">
<g clip-path="url(#clip0_301_1679)">
<path d="M0 0.994141H513V342.994H0V0.994141Z" fill="black"/>
<path d="M88.8 137.494C86.6 150.394 85.4 163.694 85.4 177.294C85.4 190.894 86.6 204.294 88.8 217.094L256 229.294L423.2 217.194C425.4 204.294 426.6 190.994 426.6 177.394C426.6 163.794 425.4 150.394 423.2 137.594" fill="#0072C6"/>
<path d="M423.2 219.994H88.8C104.6 289.794 173.5 342.294 256 342.294C338.5 342.294 407.4 289.794 423.2 219.994Z" fill="white"/>
<path d="M365.9 137.494H146.1L191 116.394L167.1 72.8941L215.9 82.2941L222 32.9941L256 69.1941L290 32.9941L296.1 82.2941L344.9 72.8941L321 116.394L365.9 137.494Z" fill="#FFDA44"/>
<path d="M256.5 342.994L0 0.994141V342.994H256.5Z" fill="#CE1126"/>
<path d="M513 342.994V0.994141L256 342.994H513Z" fill="#CE1126"/>
</g>
<defs>
<clipPath id="clip0_301_1679">
<rect width="513" height="342" fill="white" transform="translate(0 0.994141)"/>
</clipPath>
</defs>
</svg>
