<svg width="513" height="343" viewBox="0 0 513 343" fill="none" xmlns="http://www.w3.org/2000/svg">
<g clip-path="url(#clip0_301_1669)">
<path d="M0 0.994141H513V342.994H0V0.994141Z" fill="#00318B"/>
<path d="M454.8 266.374C462.74 255.444 468.04 242.104 468.04 225.954V105.884C457.658 113.697 445.013 117.913 432.02 117.894C412.38 117.894 394.95 108.464 383.99 93.884C373.04 108.464 355.6 117.894 335.96 117.894C322.44 117.894 309.97 113.424 299.94 105.894V225.954C299.94 242.114 305.24 255.454 313.18 266.374H454.8Z" fill="white"/>
<path d="M310.23 261.974C332.65 297.954 384 309.994 384 309.994C384 309.994 435.35 297.954 457.77 261.974H310.23Z" fill="#8DCCFF"/>
<path d="M396.66 173.204C396.98 174.624 405.38 183.374 414.22 193.354C415.61 194.924 405.48 205.984 407.31 205.944C412.06 205.824 426.58 188.684 426.65 212.594C426.7 228.534 396.65 240.104 396.65 240.104H414.12L414.77 255.064C414.77 255.064 419.74 241.724 422.36 238.494C430.46 228.524 442.54 208.424 456.95 211.394C471.36 214.364 443.29 197.474 443.29 197.474C443.29 197.474 438.09 182.284 426.66 180.504C416.6 178.934 412.37 177.994 400.02 173.204C398.34 172.554 396.14 170.884 396.66 173.204Z" fill="#D87B00"/>
<path d="M359.69 199.684C360.76 198.694 364.15 187.054 368.38 174.404C369.05 172.414 383.69 175.674 382.73 174.104C380.26 170.044 358.15 166.024 378.83 154.024C392.62 146.024 417.65 166.294 417.65 166.294L408.93 151.154L421.57 143.124C421.57 143.124 407.52 145.474 403.43 144.814C390.75 142.774 367.3 142.334 362.68 128.364C358.06 114.394 357.43 147.154 357.43 147.154C357.43 147.154 346.87 159.234 351.03 170.034C354.69 179.534 355.99 183.674 358 196.764C358.29 198.554 357.94 201.294 359.69 199.684Z" fill="#D87B00"/>
<path d="M395.67 220.864C394.28 220.434 382.51 223.354 369.45 226.044C367.39 226.464 362.86 212.164 361.98 213.784C359.71 217.954 367.34 239.094 346.57 227.234C332.73 219.324 337.68 187.504 337.68 187.504L328.97 202.644L315.68 195.744C315.68 195.744 324.77 206.704 326.25 210.584C330.85 222.574 342.25 243.074 332.49 254.074C322.73 265.084 351.37 249.174 351.37 249.174C351.37 249.174 367.13 252.244 374.37 243.214C380.75 235.274 383.67 232.074 393.98 223.764C395.41 222.644 397.95 221.574 395.67 220.864Z" fill="#D87B00"/>
<path d="M256.5 0.994141H233.4L160 49.8941V0.994141H96V49.8941L22.6 0.994141H0V23.6941L46.1 54.3941H0V118.394H46.1L0 149.094V171.994H22.6L96 122.794V171.994H160V122.794L233.4 171.994H256.5V149.094L209.9 118.394H256.5V54.3941H209.9L256.5 23.6941V0.994141Z" fill="white"/>
<path d="M144 0.994141H112V70.3941H0V102.394H112V171.994H144V102.394H256.5V70.3941H144V0.994141Z" fill="#D80027"/>
<path d="M0 171.994V160.694L62.5 118.394H85.1L7.3 171.994H0ZM7.3 1.09424L85.1 54.2942H62.5L0 12.0942V1.09424H7.3ZM256.5 1.09424V12.0942L193.5 54.3942H170.9L248.7 1.09424H256.5ZM248.7 171.994L170.9 118.394H193.5L256.5 160.694V171.994H248.7Z" fill="#D80027"/>
</g>
<defs>
<clipPath id="clip0_301_1669">
<rect width="513" height="342" fill="white" transform="translate(0 0.994141)"/>
</clipPath>
</defs>
</svg>
