<svg width="513" height="343" viewBox="0 0 513 343" fill="none" xmlns="http://www.w3.org/2000/svg">
<g clip-path="url(#clip0_301_1649)">
<path d="M0 171.994H513V342.994H0V171.994Z" fill="black"/>
<path d="M0 0.994141H513V171.994H0V0.994141Z" fill="#D80027"/>
<path d="M332.7 136.594L350.2 127.994L342.8 108.994L324.1 115.194L332.7 136.594ZM287.1 80.5942L292.6 61.7942L273.5 54.5942L265.5 72.5942L287.1 80.5942ZM316.5 103.794L328.7 88.4942L313.8 74.5942L299.6 88.1942L316.5 103.794ZM335.9 172.694L355.4 171.894V150.594L332.5 150.794L335.9 172.694ZM323.3 210.794L342.1 216.294L349.4 197.294L331.4 189.294L323.3 210.794ZM294.3 243.194L309.2 255.894L323.6 241.494L310.5 226.794L294.3 243.194ZM247.3 95.4942L257.1 115.394L279 118.694L263.1 134.194L266.7 156.094L247.1 145.694L227.4 155.894L231.2 133.994L215.4 118.494L237.4 115.394L247.3 95.4942Z" fill="#FFDA44"/>
<path d="M250.8 62.2944L248.1 80.5944C291.2 83.7944 325.1 119.794 325.1 163.694C325.1 209.694 287.8 246.594 241.7 247.094C212.5 247.394 190.4 232.294 174.7 213.394L160.8 225.694C175.8 244.694 201.6 265.594 241.7 265.594C298 265.594 343.6 219.994 343.6 163.694C343.7 110.494 302.9 66.7944 250.8 62.2944Z" fill="#FFDA44"/>
<path d="M291.9 224.394L280.1 238.394C280.1 238.394 332 277.294 333.7 278.794C335.4 280.294 338.9 280.794 342.8 276.094C346.5 271.594 345.6 267.994 343.7 266.394C341.7 264.894 291.9 224.394 291.9 224.394Z" fill="black"/>
<path d="M206.1 158.194C198.4 168.494 198.6 181.294 208.9 189.094C208.9 189.094 344.1 290.594 345.8 292.094C347.5 293.594 351 294.094 354.9 289.394C358.6 284.894 357.7 281.294 355.8 279.694C353.9 278.194 206.1 158.194 206.1 158.194ZM253.8 257.294L261.1 275.494L280.6 269.494L275.8 250.394L253.8 257.294ZM213.4 253.594L211.4 273.094L231.5 276.694L236 257.594L213.4 253.594ZM177.7 232.394L167.4 248.994L183.8 261.094L196.3 245.894L177.7 232.394Z" fill="#FFDA44"/>
</g>
<defs>
<clipPath id="clip0_301_1649">
<rect width="513" height="342" fill="white" transform="translate(0 0.994141)"/>
</clipPath>
</defs>
</svg>
