<svg width="513" height="343" viewBox="0 0 513 343" fill="none" xmlns="http://www.w3.org/2000/svg">
<g clip-path="url(#clip0_301_1617)">
<path d="M0 0.994141H513V342.994H0V0.994141Z" fill="#10338C"/>
<path d="M222.2 171.695C222.5 171.395 222.7 171.095 223 170.795C222.8 171.095 222.5 171.395 222.2 171.695ZM188 213.595L199 236.495L223.7 230.795L212.7 253.595L232.6 269.395L207.8 274.995L207.9 300.395L188 284.495L168.2 300.395L168.3 274.995L143.5 269.395L163.4 253.595L152.3 230.795L177.1 236.495L188 213.595ZM385.9 242.095L391.1 252.995L402.9 250.295L397.6 261.195L407.1 268.695L395.3 271.295V283.495L385.9 275.895L376.4 283.495L376.5 271.295L364.7 268.695L374.2 261.195L368.9 250.295L380.7 252.995L385.9 242.095ZM337.3 126.095L342.5 136.995L354.3 134.295L349 145.195L358.5 152.695L346.7 155.395V167.495L337.3 159.895L327.8 167.495L327.9 155.395L316 152.695L325.5 145.195L320.2 134.295L332 136.995L337.3 126.095ZM385.9 59.8945L391.1 70.7945L402.9 68.0945L397.6 78.9945L407.1 86.4945L395.3 89.1945V101.295L385.9 93.6945L376.4 101.295L376.5 89.1945L364.7 86.4945L374.2 78.9945L368.9 68.0945L380.7 70.7945L385.9 59.8945ZM428.4 109.595L433.6 120.495L445.4 117.795L440.1 128.695L449.6 136.195L437.8 138.795V150.995L428.4 143.395L418.9 150.995V138.795L407.1 136.195L416.6 128.695L411.3 117.795L423.1 120.495L428.4 109.595ZM398 167.495L402.1 180.195H415.4L404.6 187.995L408.8 200.695L398 192.795L387.2 200.695L391.3 187.995L380.6 180.195H393.9L398 167.495Z" fill="white"/>
<path d="M254.8 0.994141V31.5941L209.7 56.6941H254.8V115.994H195.7L254.8 148.794V171.694H228.1L154.6 130.794V171.694H99V123.094L11.6 171.694H-1.19995V141.094L44 115.994H-1.19995V56.6941H57.9001L-1.19995 23.7941V0.994141H25.5L99 41.7941V0.994141H154.6V49.5941L242.1 0.994141H254.8Z" fill="white"/>
<path d="M142.8 0.994141H110.8V70.2941H-1.19995V102.294H110.8V171.694H142.8V102.294H254.8V70.2941H142.8V0.994141Z" fill="#D80027"/>
<path d="M154.6 115.994L254.8 171.694V155.894L183 115.994H154.6Z" fill="#0052B4"/>
<path d="M154.6 115.994L254.8 171.694V155.894L183 115.994H154.6Z" fill="white"/>
<path d="M154.6 115.994L254.8 171.694V155.894L183 115.994H154.6ZM70.7 115.994L-1.19995 155.894V171.694L99 115.994H70.7Z" fill="#D80027"/>
<path d="M99 56.6941L-1.19995 0.994141V16.6941L70.7 56.6941H99Z" fill="#0052B4"/>
<path d="M99 56.6941L-1.19995 0.994141V16.6941L70.7 56.6941H99Z" fill="white"/>
<path d="M99 56.6941L-1.19995 0.994141V16.6941L70.7 56.6941H99ZM183 56.6941L254.8 16.6941V0.994141L154.6 56.6941H183Z" fill="#D80027"/>
</g>
<defs>
<clipPath id="clip0_301_1617">
<rect width="513" height="342" fill="white" transform="translate(0 0.994141)"/>
</clipPath>
</defs>
</svg>
