<svg width="513" height="343" viewBox="0 0 513 343" fill="none" xmlns="http://www.w3.org/2000/svg">
<g clip-path="url(#clip0_301_1600)">
<path d="M0 0.994141H513V342.994H0V0.994141Z" fill="#EF3340"/>
<path d="M0 0.994141H513V114.994H0V0.994141Z" fill="#00B5E2"/>
<path d="M0 228.994H513V342.994H0V228.994Z" fill="#509E2F"/>
<path d="M265.6 213.594C242.6 213.594 224 194.994 224 171.994C224 148.994 242.6 130.394 265.6 130.394C272.8 130.394 279.5 132.194 285.4 135.394C276.2 126.394 263.5 120.794 249.6 120.794C221.3 120.794 198.4 143.694 198.4 171.994C198.4 200.294 221.3 223.194 249.6 223.194C263.5 223.194 276.2 217.594 285.4 208.594C279.5 211.794 272.8 213.594 265.6 213.594Z" fill="white"/>
<path d="M297.6 143.194L303.1 158.694L318 151.594L310.9 166.494L326.4 171.994L310.9 177.494L318 192.394L303.1 185.294L297.6 200.794L292.1 185.294L277.2 192.394L284.3 177.494L268.8 171.994L284.3 166.494L277.2 151.594L292.1 158.694L297.6 143.194Z" fill="white"/>
</g>
<defs>
<clipPath id="clip0_301_1600">
<rect width="513" height="342" fill="white" transform="translate(0 0.994141)"/>
</clipPath>
</defs>
</svg>
