<svg width="513" height="343" viewBox="0 0 513 343" fill="none" xmlns="http://www.w3.org/2000/svg">
<g clip-path="url(#clip0_301_1587)">
<path d="M0 0.994141H513.1V342.994H0V0.994141Z" fill="#10338C"/>
<path d="M99.9 0.994141H441.9V342.994" fill="#F6C500"/>
<path d="M19.9 22.0941L40.3 7.19414L60.9 21.9941L54 0.994141H26.7L19.9 22.0941Z" fill="white"/>
<path d="M92.3001 26.4942L84.4001 2.29419L76.6 26.4942H51.3L71.8001 41.2942L64 65.2942L84.4001 50.4942L105 65.2942L97.1 41.2942L117.6 26.3942L92.3001 26.4942Z" fill="white"/>
<path d="M136.3 70.1941L128.5 46.1941L120.7 70.1941H95.5L115.9 85.0941L108.1 109.094L128.5 94.2941L149.1 109.094L141.3 85.0941L161.7 70.1941H136.3Z" fill="white"/>
<path d="M179.4 113.294L171.6 89.1941L163.8 113.294H138.5L159 128.194L151.2 152.194L171.6 137.394L192.2 152.194L184.3 128.194L204.8 113.194L179.4 113.294Z" fill="white"/>
<path d="M222.5 156.294L214.7 132.294L206.9 156.294H181.5L202.1 171.294L194.3 195.294L214.7 180.394L235.1 195.294L227.3 171.294L247.9 156.294H222.5Z" fill="white"/>
<path d="M265.6 199.394L257.8 175.394L250 199.394H224.6L245.2 214.294L237.4 238.394L257.8 223.494L278.2 238.394L270.4 214.194L290.9 199.394H265.6Z" fill="white"/>
<path d="M308.7 242.494L300.8 218.494L293 242.494H267.7L288.2 257.294L280.3 281.494L300.9 266.594L321.3 281.394L313.5 257.294L334 242.494H308.7Z" fill="white"/>
<path d="M351.7 285.594L343.9 261.394L336.1 285.594H310.8L331.2 300.394L323.4 324.494L343.9 309.594L364.4 324.494L356.6 300.394L377 285.594H351.7Z" fill="white"/>
<path d="M387 304.494L379.1 328.594L353.8 328.694L373.6 342.994H400.2L420.1 328.594H394.8L387 304.494Z" fill="white"/>
</g>
<defs>
<clipPath id="clip0_301_1587">
<rect width="513" height="342" fill="white" transform="translate(0 0.994141)"/>
</clipPath>
</defs>
</svg>
