<svg width="513" height="343" viewBox="0 0 513 343" fill="none" xmlns="http://www.w3.org/2000/svg">
<g clip-path="url(#clip0_301_1506)">
<path d="M0 0.994141H513V342.961H0V0.994141Z" fill="white"/>
<path d="M0 342.961H513V0.994141L0 342.961Z" fill="#012A87"/>
<path d="M250.889 0.994141H0V168.22L250.889 0.994141Z" fill="#F9D90F"/>
<path d="M140.674 119.525L152.898 140.767H177.446L165.122 161.908L177.446 183.149H152.898L140.674 204.391L128.45 183.149H103.903L116.227 161.908L103.903 140.767H128.45L140.674 119.525Z" fill="#DC171D"/>
<path fill-rule="evenodd" clip-rule="evenodd" d="M140.674 108.595C111.23 108.595 87.3615 132.464 87.3615 161.908C87.3615 191.352 111.23 215.22 140.674 215.22C170.118 215.22 193.987 191.352 193.987 161.908C193.987 132.464 170.118 108.595 140.674 108.595ZM78.3615 161.908C78.3615 127.493 106.26 99.5951 140.674 99.5951C175.089 99.5951 202.987 127.493 202.987 161.908C202.987 196.322 175.089 224.22 140.674 224.22C106.26 224.22 78.3615 196.322 78.3615 161.908Z" fill="black"/>
</g>
<defs>
<clipPath id="clip0_301_1506">
<rect width="513" height="341.967" fill="white" transform="translate(0 0.994141)"/>
</clipPath>
</defs>
</svg>
