<svg width="513" height="343" viewBox="0 0 513 343" fill="none" xmlns="http://www.w3.org/2000/svg">
<g clip-path="url(#clip0_301_1422)">
<path d="M0 0.993164H513V342.993H0V0.993164Z" fill="#01237A"/>
<path d="M384 72.3662L389.283 88.6202H406.372L392.546 98.6652L397.827 114.919L384 104.872L370.175 114.919L375.455 98.6652L361.63 88.6202H378.719L384 72.3662ZM313.791 101.447L329.019 109.205L341.103 97.1222L338.43 114.001L353.657 121.76L336.778 124.433L334.104 141.313L326.344 126.086L309.466 128.759L321.552 116.675L313.791 101.447ZM284.71 171.656L300.964 166.375L300.965 149.286L311.009 163.111L327.263 157.829L317.217 171.656L327.263 185.482L311.009 180.202L300.965 194.027V176.937L284.71 171.656ZM313.791 241.865L321.55 226.636L309.466 214.552L326.347 217.226L334.104 201.999L336.778 218.878L353.657 221.55L338.43 229.309L341.103 246.191L329.019 234.104L313.791 241.865ZM384 270.945L378.719 254.692H361.628L375.455 244.647L370.175 228.393L384 238.437L397.827 228.393L392.546 244.647L406.372 254.692H389.283L384 270.945ZM454.209 241.865L438.98 234.107L426.897 246.191L429.57 229.309L414.343 221.553L431.222 218.878L433.897 201.999L441.653 217.226L458.534 214.552L446.448 226.637L454.209 241.865ZM483.29 171.656L467.036 176.937V194.027L456.991 180.201L440.737 185.482L450.783 171.656L440.737 157.829L456.991 163.111L467.036 149.286V166.375L483.29 171.656ZM454.209 101.449L446.452 116.675L458.534 128.759L441.653 126.086L433.897 141.313L431.222 124.433L414.343 121.758L429.57 114.001L426.897 97.1232L438.981 109.205L454.209 101.449ZM0 102.326V118.326H46.069L0 149.038V156.577L57.377 118.325H80L0 171.659H112V102.325H0V102.326ZM96 171.657H22.628L96 122.744V171.657ZM176 54.3262L256 0.992188H144V70.3262H256V54.3262H209.931L256 23.6122V16.0732L198.623 54.3242H176V54.3262ZM160 0.994186H233.372L160 49.9072V0.994186ZM144 171.659H256L176 118.325H198.623L256 156.578V149.039L209.931 118.326H256V102.326H144V171.659ZM160 122.744L233.372 171.657H160V122.744ZM112 0.992188H0L80 54.3262H57.377L0 16.0742V23.6132L46.069 54.3252H0V70.3252H112V0.992188ZM96 49.9072L22.628 0.994186H96V49.9072Z" fill="white"/>
<path d="M144 0.992188H112V70.3262H0V102.326H112V171.659H144V102.326H256V70.3262H144V0.992188Z" fill="#D80027"/>
<path d="M80 54.3262L0 0.992188V16.0742L57.377 54.3262H80ZM176 54.3262H198.623L256 16.0742V0.992188L176 54.3262ZM57.377 118.326L0 156.578V171.659L80 118.326H57.377ZM176 118.326L256 171.659V156.578L198.623 118.326H176Z" fill="#D80027"/>
</g>
<defs>
<clipPath id="clip0_301_1422">
<rect width="513" height="342" fill="white" transform="translate(0 0.994141)"/>
</clipPath>
</defs>
</svg>
