<svg width="513" height="343" viewBox="0 0 513 343" fill="none" xmlns="http://www.w3.org/2000/svg">
<g clip-path="url(#clip0_301_1249)">
<path d="M0 0.726562H513V342.693H0V0.726562Z" fill="#2E52B2"/>
<path d="M256.5 0.726562V23.3707L210.31 54.1307H256.5V118.256H210.31L256.5 149.016V171.76H233.856L160.312 122.664V171.76H96.1875V122.664L22.6441 171.76H0V149.016L46.19 118.256H0V54.1307H46.19L0 23.3707V0.726562H22.6441L96.1875 49.7221V0.726562H160.312V49.7221L233.856 0.726562H256.5Z" fill="white"/>
<path d="M144.281 0.726562H112.219V70.1619H0V102.224H112.219V171.76H144.281V102.224H256.5V70.1619H144.281V0.726562Z" fill="#D80027"/>
<path d="M0 0.726562V15.8561L57.5121 54.1307H80.1562L0 0.726562ZM256.5 0.726562V15.8561L198.988 54.1307H176.344L256.5 0.726562Z" fill="#D80027"/>
<path d="M0 0.726562V15.8561L57.5121 54.1307H80.1562L0 0.726562ZM256.5 0.726562V15.8561L198.988 54.1307H176.344L256.5 0.726562ZM0 171.76V156.63L57.5121 118.256H80.1562L0 171.76ZM256.5 171.76V156.63L198.988 118.256H176.344L256.5 171.76Z" fill="#D80027"/>
<path d="M307.7 128.075V220.254C307.7 281.975 388.357 300.912 388.357 300.912C388.357 300.912 468.914 281.875 468.914 220.154V127.975L388.257 104.93L307.7 128.075Z" fill="#F3F3F3"/>
<path d="M468.914 133.786V99.2188H307.7V133.786H376.835V202.921H307.7V225.966H376.835V297.305C383.748 299.81 388.357 300.812 388.357 300.812C388.357 300.812 392.966 299.71 399.88 297.305V225.966H469.014V202.921H399.88V133.786H468.914Z" fill="#D80027"/>
</g>
<defs>
<clipPath id="clip0_301_1249">
<rect width="513" height="341.967" fill="white" transform="translate(0 0.726562)"/>
</clipPath>
</defs>
</svg>
