<svg width="513" height="343" viewBox="0 0 513 343" fill="none" xmlns="http://www.w3.org/2000/svg">
<g clip-path="url(#clip0_301_1233)">
<path d="M0 0.692383H513V342.659H0V0.692383Z" fill="#0052B4"/>
<path d="M256.5 0.692383V31.3521L211.212 56.5012H256.5V115.917H197.285L256.5 148.781V171.726H229.748L156.104 130.746V171.726H100.396V123.031L12.7248 171.726H0V141.066L45.2883 115.917H0V56.5012H59.2154L0 23.5369V0.692383H26.7521L100.396 41.5721V0.692383H156.104V49.3873L243.775 0.692383H256.5Z" fill="white"/>
<path d="M144.281 0.692383H112.219V70.1277H0V102.19H112.219V171.726H144.281V102.19H256.5V70.1277H144.281V0.692383Z" fill="#D80027"/>
<path d="M156.104 115.917L256.5 171.726V155.895L184.56 115.917H156.104Z" fill="#0052B4"/>
<path d="M156.104 115.917L256.5 171.726V155.895L184.56 115.917H156.104Z" fill="white"/>
<path d="M156.104 115.917L256.5 171.726V155.895L184.56 115.917H156.104ZM71.9402 115.917L0 155.895V171.726L100.396 115.917H71.9402Z" fill="#D80027"/>
<path d="M100.396 56.401L0 0.692383V16.423L71.9402 56.401H100.396Z" fill="#0052B4"/>
<path d="M100.396 56.401L0 0.692383V16.423L71.9402 56.401H100.396Z" fill="white"/>
<path d="M100.396 56.401L0 0.692383V16.423L71.9402 56.401H100.396ZM184.56 56.401L256.5 16.423V0.692383L156.104 56.401H184.56Z" fill="#D80027"/>
<path d="M312.81 195.271V105.096C312.81 96.5789 319.323 89.7656 327.839 89.7656H448.574C456.891 89.7656 463.604 96.5789 463.604 105.096V195.271C463.604 270.618 388.257 300.777 388.257 300.777C388.257 300.777 312.81 270.618 312.81 195.271Z" fill="#1F8BDE"/>
<path d="M312.81 195.271V105.096C312.81 96.5789 319.323 89.7656 327.839 89.7656H448.574C456.891 89.7656 463.604 96.5789 463.604 105.096V195.271C463.604 270.618 388.257 300.777 388.257 300.777C388.257 300.777 312.81 270.618 312.81 195.271ZM392.565 281.74C400.481 277.231 408.496 271.72 415.811 265.007C436.351 246.471 448.474 223.526 448.474 195.171V104.995C448.474 104.695 327.839 104.695 327.839 104.695V195.171C327.839 223.526 339.963 246.471 360.503 265.007C368.819 272.522 378.137 278.934 388.157 284.044C389.559 283.443 390.962 282.642 392.565 281.74Z" fill="white"/>
<path d="M347.778 194.47C345.173 186.555 349.481 180.143 357.898 180.143H418.516C426.732 180.143 431.341 186.455 428.635 194.47L423.125 211.003C420.52 218.918 414.207 220.221 407.294 215.011C407.294 215.011 409.899 210.201 388.157 210.201C366.414 210.201 369.019 215.011 369.019 215.011C362.907 220.722 355.894 219.018 353.188 211.003C353.289 211.103 347.778 194.47 347.778 194.47Z" fill="#187536"/>
<path d="M358.098 180.142C366.214 181.745 375.933 165.112 388.257 165.112C401.382 165.112 410.099 182.246 418.416 180.142C425.83 178.338 433.445 157.898 433.445 149.983C433.445 133.351 413.205 119.824 388.257 119.824C363.308 119.824 343.069 133.351 343.069 149.983C342.969 158.5 349.682 178.539 358.098 180.142ZM356.695 271.921C362.907 272.321 369.22 270.117 373.929 265.408L382.946 256.39C385.852 253.485 390.461 253.485 393.367 256.39L402.384 265.408C407.094 270.117 413.406 272.321 419.518 271.921C424.828 271.62 452.081 238.355 445.268 239.257C440.659 239.858 436.15 242.062 432.543 245.569L432.443 245.67L423.425 254.687C420.52 257.593 415.911 257.593 413.005 254.687L403.987 245.67C395.27 236.852 381.043 236.852 372.226 245.569L372.125 245.67L363.108 254.687C360.202 257.593 355.593 257.593 352.687 254.687L343.67 245.67C340.163 242.163 335.855 240.059 331.346 239.357C324.633 238.255 351.485 271.62 356.695 271.921ZM322.729 211.102C325.635 208.196 330.244 208.196 333.149 211.102L342.167 220.12C350.984 228.837 365.112 228.837 373.929 220.12L382.946 211.102C385.852 208.196 390.461 208.196 393.367 211.102L402.384 220.12C411.202 228.837 425.329 228.837 434.146 220.12L443.164 211.102C446.069 208.196 450.678 208.196 453.584 211.102C453.584 211.102 459.095 196.273 456.089 195.171C448.174 192.265 438.855 193.969 432.543 200.381L432.443 200.481L423.425 209.499C420.52 212.405 415.911 212.405 413.005 209.499L403.987 200.481C395.27 191.664 381.043 191.664 372.226 200.381L372.125 200.481L363.108 209.499C360.202 212.405 355.593 212.405 352.687 209.499L343.67 200.481C337.458 194.269 328.54 192.466 320.825 194.971C317.719 196.073 322.729 211.102 322.729 211.102Z" fill="white"/>
</g>
<defs>
<clipPath id="clip0_301_1233">
<rect width="513" height="341.967" fill="white" transform="translate(0 0.692383)"/>
</clipPath>
</defs>
</svg>
