<svg width="513" height="343" viewBox="0 0 513 343" fill="none" xmlns="http://www.w3.org/2000/svg">
<g clip-path="url(#clip0_301_1086)">
<path d="M0 0.994141H513V342.961H0V0.994141Z" fill="#0052B4"/>
<path d="M256.5 0.994141V118.623H210.31L256.5 149.383V172.028H233.856L160.312 123.032V172.028H96.1875V123.032L22.6441 172.028H0V149.383L46.19 118.623H0V54.4984H46.19L0 23.7385V0.994141H22.6441L96.1875 49.9897V0.994141H160.312V49.9897L233.856 0.994141H256.5Z" fill="white"/>
<path d="M144.281 0.994141H112.219V70.5297H0V102.592H112.219V172.028H144.281V102.592H256.5V70.5297H144.281V0.994141Z" fill="#D80027"/>
<path d="M256.5 23.7385V54.4985H210.31L256.5 23.7385Z" fill="#2E52B2"/>
<path d="M0 172.027V161.006L62.6221 118.623H85.2662L7.31426 172.027H0ZM7.31426 1.09412L85.2662 54.398H62.6221L0 12.1156V1.09412H7.31426ZM256.5 1.09412V12.1156L193.878 54.4982H171.234L249.186 1.09412H256.5ZM249.186 172.027L171.234 118.623H193.878L256.5 161.006V172.027H249.186Z" fill="#D80027"/>
<path d="M444.266 278.635C460.314 278.635 473.323 259.122 473.323 235.05C473.323 210.979 460.314 191.465 444.266 191.465C428.219 191.465 415.209 210.979 415.209 235.05C415.209 259.122 428.219 278.635 444.266 278.635Z" fill="white"/>
<path d="M407.695 328.633C419.869 328.633 429.738 324.461 429.738 319.315C429.738 314.168 419.869 309.996 407.695 309.996C395.521 309.996 385.652 314.168 385.652 319.315C385.652 324.461 395.521 328.633 407.695 328.633Z" fill="#FFCE00"/>
<path d="M364.711 328.633C376.885 328.633 386.754 324.461 386.754 319.315C386.754 314.168 376.885 309.996 364.711 309.996C352.537 309.996 342.668 314.168 342.668 319.315C342.668 324.461 352.537 328.633 364.711 328.633Z" fill="#FFCE00"/>
<path d="M342.668 191.465L386.153 278.535L429.738 191.465H342.668Z" fill="#39B200"/>
<path d="M328.14 278.635C344.187 278.635 357.196 259.122 357.196 235.05C357.196 210.979 344.187 191.465 328.14 191.465C312.092 191.465 299.083 210.979 299.083 235.05C299.083 259.122 312.092 278.635 328.14 278.635Z" fill="#9B9B9B"/>
<path d="M371.725 176.937L357.196 191.465H415.209L400.681 176.937L415.209 133.352C415.209 133.352 402.184 104.296 386.153 104.296C370.122 104.296 357.096 133.352 357.096 133.352L371.725 176.937Z" fill="#757575"/>
<path d="M386.153 97.1816C402.2 97.1816 415.209 84.1725 415.209 68.125C415.209 52.0775 402.2 39.0684 386.153 39.0684C370.105 39.0684 357.096 52.0775 357.096 68.125C357.096 84.1725 370.105 97.1816 386.153 97.1816Z" fill="#C6B56F"/>
<path d="M386.754 118.924C402.801 118.924 415.811 105.915 415.811 89.8674C415.811 73.8199 402.801 60.8108 386.754 60.8108C370.706 60.8108 357.697 73.8199 357.697 89.8674C357.697 105.915 370.706 118.924 386.754 118.924Z" fill="#A54A00"/>
<path d="M444.266 147.981C460.314 147.981 473.323 134.972 473.323 118.924C473.323 102.877 460.314 89.8674 444.266 89.8674C428.219 89.8674 415.209 102.877 415.209 118.924C415.209 134.972 428.219 147.981 444.266 147.981Z" fill="white"/>
<path d="M342.868 177.037C358.916 177.037 371.925 164.028 371.925 147.981C371.925 131.933 358.916 118.924 342.868 118.924C326.821 118.924 313.812 131.933 313.812 147.981C313.812 164.028 326.821 177.037 342.868 177.037Z" fill="#0049FF"/>
<path d="M430.639 177.037C446.687 177.037 459.696 164.028 459.696 147.981C459.696 131.933 446.687 118.924 430.639 118.924C414.592 118.924 401.583 131.933 401.583 147.981C401.583 164.028 414.592 177.037 430.639 177.037Z" fill="#0041F9"/>
<path d="M386.754 264.107C402.801 264.107 415.811 251.098 415.811 235.05C415.811 219.003 402.801 205.994 386.754 205.994C370.706 205.994 357.697 219.003 357.697 235.05C357.697 251.098 370.706 264.107 386.754 264.107Z" fill="#F7D71E"/>
<path d="M458.794 220.522C474.842 220.522 487.851 207.513 487.851 191.465C487.851 175.418 474.842 162.409 458.794 162.409C442.747 162.409 429.738 175.418 429.738 191.465C429.738 207.513 442.747 220.522 458.794 220.522Z" fill="#CEC851"/>
<path d="M386.153 320.116C402.2 320.116 415.209 307.107 415.209 291.06C415.209 275.012 402.2 262.003 386.153 262.003C370.105 262.003 357.096 275.012 357.096 291.06C357.096 307.107 370.105 320.116 386.153 320.116Z" fill="white"/>
<path d="M371.725 136.959L386.253 133.452L400.781 136.959C400.781 144.474 386.253 147.981 386.253 147.981C386.253 147.981 371.725 144.474 371.725 136.959Z" fill="#7C0B29"/>
<path d="M328.14 147.68C344.187 147.68 357.196 134.671 357.196 118.623C357.196 102.576 344.187 89.5668 328.14 89.5668C312.092 89.5668 299.083 102.576 299.083 118.623C299.083 134.671 312.092 147.68 328.14 147.68Z" fill="white"/>
</g>
<defs>
<clipPath id="clip0_301_1086">
<rect width="513" height="341.967" fill="white" transform="translate(0 0.994141)"/>
</clipPath>
</defs>
</svg>
