<svg width="513" height="343" viewBox="0 0 513 343" fill="none" xmlns="http://www.w3.org/2000/svg">
<g clip-path="url(#clip0_301_1055)">
<path d="M0 0.959961H513V342.96H0V0.959961Z" fill="#D80027"/>
<path d="M274.2 120.76C269.1 141.86 260.1 137.86 255.7 156.26C229.6 149.96 213.6 123.76 219.8 97.6599C226.1 71.5599 252.3 55.5599 278.3 61.7599C269.6 98.6599 278.8 101.86 274.2 120.76ZM206.6 136.36C225.1 147.66 218.5 155.06 234.6 164.96C220.6 187.86 190.7 194.96 167.8 180.96C144.9 166.96 137.8 137.06 151.8 114.16C184.1 133.96 190 126.26 206.6 136.36ZM200.6 205.56C217.1 191.46 222 200.06 236.4 187.76C253.8 208.16 251.4 238.76 231 256.16C210.6 273.56 180 271.16 162.6 250.76C191.3 226.16 185.8 218.16 200.6 205.56ZM264.5 232.66C256.2 212.56 265.9 210.56 258.6 193.06C283.4 182.76 311.8 194.56 322 219.36C332.3 244.16 320.5 272.56 295.7 282.76C281.2 247.76 271.9 250.56 264.5 232.66ZM310 180.26C288.4 181.96 289.4 172.16 270.5 173.66C268.4 146.96 288.4 123.56 315.1 121.46C341.8 119.36 365.2 139.36 367.3 166.06C329.6 168.96 329.4 178.76 310 180.26Z" fill="white"/>
</g>
<defs>
<clipPath id="clip0_301_1055">
<rect width="513" height="342" fill="white" transform="translate(0 0.959961)"/>
</clipPath>
</defs>
</svg>
