<svg width="513" height="343" viewBox="0 0 513 343" fill="none" xmlns="http://www.w3.org/2000/svg">
<g clip-path="url(#clip0_301_973)">
<path d="M0 0.694092H513V342.994H0V0.694092Z" fill="white"/>
<path d="M462.9 199.094C458.9 199.094 448.9 194.094 441.9 190.094C430.9 184.094 420.9 178.094 410.8 178.094C400.7 178.094 390.8 184.094 379.7 190.094C372.7 194.094 363.7 199.094 359.7 199.094C355.7 199.094 345.7 194.094 339.7 190.094C328.7 184.094 317.7 178.094 307.6 178.094C298.6 178.094 287.6 184.094 276.5 190.094C269.5 194.094 260.5 199.094 256.5 199.094C252.5 199.094 243.5 194.094 236.5 190.094C225.5 184.094 214.5 178.094 205.4 178.094C195.4 178.094 184.4 184.094 173.3 190.094C167.3 194.094 157.3 199.094 153.3 199.094C149.3 199.094 140.3 194.094 133.3 190.094C122.3 184.094 112.3 178.094 102.2 178.094C92.1 178.094 82.2 184.094 71.1 190.094C64.1 194.094 54.1 199.094 50.1 199.094C46.1 199.094 37.1 194.094 30.1 190.094C20.1 184.094 10.1 178.094 0 178.094V200.094L19 210.094C30 216.094 40 222.094 50.1 222.094C60.2 222.094 71.1 216.094 82.2 210.094C88.2 206.094 98.2 200.094 102.2 200.094C106.2 200.094 115.2 206.094 122.2 210.094C133.2 216.094 143.2 222.094 153.3 222.094C163.4 222.094 173.3 216.094 184.4 210.094C191.4 206.094 201.4 200.094 205.4 200.094C209.4 200.094 218.4 206.094 225.4 210.094C236.4 216.094 246.4 222.094 256.5 222.094C266.6 222.094 276.5 216.094 287.6 210.094C294.6 206.094 303.6 200.094 307.6 200.094C311.6 200.094 321.6 206.094 328.6 210.094C339.6 216.094 349.6 222.094 359.7 222.094C369.8 222.094 379.7 216.094 390.8 210.094C397.8 206.094 406.8 200.094 410.8 200.094C414.8 200.094 424.8 206.094 430.8 210.094C441.8 216.094 452.8 222.094 462.9 222.094C473 222.094 482.9 216.094 494 210.094L513 200.094V178.094C503 178.094 493 184.094 482.9 190.094C475.9 194.094 466.9 199.094 462.9 199.094ZM0 32.6941L19 42.6941C30 48.6941 40 54.6941 50.1 54.6941C60.2 54.6941 71.1 48.6941 82.2 42.6941C88.2 38.6941 98.2 32.6941 102.2 32.6941C106.2 32.6941 115.2 38.6941 122.2 42.6941C133.2 48.6941 143.2 54.6941 153.3 54.6941C163.4 54.6941 173.3 48.6941 184.4 42.6941C191.4 38.6941 201.4 32.6941 205.4 32.6941C209.4 32.6941 218.4 38.6941 225.4 42.6941C236.4 48.6941 246.4 54.6941 256.5 54.6941C266.6 54.6941 276.5 48.6941 287.6 42.6941C294.6 38.6941 303.6 32.6941 307.6 32.6941C311.6 32.6941 321.6 38.6941 328.6 42.6941C339.6 48.6941 349.6 54.6941 359.7 54.6941C369.8 54.6941 379.7 48.6941 390.8 42.6941C397.8 38.6941 406.8 32.6941 410.8 32.6941C414.8 32.6941 424.8 38.6941 430.8 42.6941C441.8 48.6941 452.8 54.6941 462.9 54.6941C473 54.6941 482.9 48.6941 494 42.6941L513 32.6941V10.6941C503 11.6941 493 16.6941 482.9 22.6941C475.9 26.6941 466.9 31.6941 462.9 31.6941C458.9 31.6941 448.9 26.6941 441.9 22.6941C430.9 16.6941 420.9 10.6941 410.8 10.6941C400.7 10.6941 390.8 16.6941 379.7 22.6941C372.7 26.6941 363.7 31.6941 359.7 31.6941C355.7 31.6941 345.7 26.6941 339.7 22.6941C328.7 16.6941 317.7 10.6941 307.6 10.6941C297.5 10.6941 287.6 16.6941 276.5 22.6941C269.5 26.6941 260.5 31.6941 256.5 31.6941C252.5 31.6941 243.5 26.6941 236.5 22.6941C225.5 16.6941 214.5 10.6941 205.4 10.6941C196.3 10.6941 184.4 16.6941 173.3 22.6941C167.3 26.6941 157.3 31.6941 153.3 31.6941C149.3 31.6941 140.3 26.6941 133.3 22.6941C122.3 16.6941 112.3 10.6941 102.2 10.6941C92.1 10.6941 82.2 16.6941 71.1 22.6941C64.1 26.6941 54.1 31.6941 50.1 31.6941C46.1 31.6941 37.1 26.6941 30.1 22.6941C20.1 16.6941 10.1 11.6941 0 10.6941V32.6941H0ZM462.9 87.8941C458.9 87.8941 448.9 82.8941 441.9 78.8941C430.9 72.8941 420.9 66.8941 410.8 66.8941C400.7 66.8941 390.8 72.8941 379.7 78.8941C372.7 82.8941 363.7 87.8941 359.7 87.8941C355.7 87.8941 345.7 82.8941 339.7 78.8941C328.7 72.8941 317.7 66.8941 307.6 66.8941C298.6 66.8941 287.6 72.8941 276.5 78.8941C269.5 82.8941 260.5 87.8941 256.5 87.8941C252.5 87.8941 243.5 82.8941 236.5 78.8941C225.5 72.8941 214.5 66.8941 205.4 66.8941C195.4 66.8941 184.4 72.8941 173.3 78.8941C167.3 82.8941 157.3 87.8941 153.3 87.8941C149.3 87.8941 140.3 82.8941 133.3 78.8941C122.3 72.8941 112.3 66.8941 102.2 66.8941C92.1 66.8941 82.2 72.8941 71.1 78.8941C64.1 82.8941 54.1 87.8941 50.1 87.8941C46.1 87.8941 37.1 82.8941 30.1 78.8941C20.1 72.8941 10.1 66.8941 0 66.8941V88.8941L19 97.8941C30 103.894 40 109.894 50.1 109.894C60.2 109.894 71.1 103.894 82.2 97.8941C88.2 93.8941 98.2 88.8941 102.2 88.8941C106.2 88.8941 115.2 93.8941 122.2 97.8941C133.2 103.894 143.2 109.894 153.3 109.894C163.4 109.894 173.3 103.894 184.4 97.8941C191.4 93.8941 201.4 88.8941 205.4 88.8941C209.4 88.8941 218.4 93.8941 225.4 97.8941C236.4 103.894 246.4 109.894 256.5 109.894C266.6 109.894 276.5 103.894 287.6 97.8941C294.6 93.8941 303.6 88.8941 307.6 88.8941C311.6 88.8941 321.6 93.8941 328.6 97.8941C339.6 103.894 349.6 109.894 359.7 109.894C369.8 109.894 379.7 103.894 390.8 97.8941C397.8 93.8941 406.8 88.8941 410.8 88.8941C414.8 88.8941 424.8 93.8941 430.8 97.8941C441.8 103.894 452.8 109.894 462.9 109.894C473 109.894 482.9 103.894 494 97.8941L513 88.8941V66.8941C503 66.8941 493 72.8941 482.9 78.8941C475.9 82.7941 466.9 87.8941 462.9 87.8941ZM513 121.894C503 122.894 493 127.894 482.9 133.894C475.9 137.894 466.9 143.894 462.9 143.894C458.9 143.894 448.9 137.894 441.9 133.894C430.9 127.894 420.9 121.894 410.8 121.894C400.7 121.894 390.8 127.894 379.7 133.894C372.7 137.894 363.7 143.894 359.7 143.894C355.7 143.894 345.7 137.894 339.7 133.894C328.7 127.894 317.7 121.894 307.6 121.894C297.5 121.894 287.6 127.894 276.5 133.894C269.5 137.894 260.5 143.894 256.5 143.894C252.5 143.894 243.5 137.894 236.5 133.894C225.5 127.894 214.5 121.894 205.4 121.894C196.3 121.894 184.4 127.894 173.3 133.894C167.3 137.894 157.3 143.894 153.3 143.894C149.3 143.894 140.3 137.894 133.3 133.894C122.3 127.894 112.3 121.894 102.2 121.894C92.1 121.894 82.2 127.894 71.1 133.894C64.1 137.894 54.1 143.894 50.1 143.894C46.1 143.894 37.1 137.894 30.1 133.894C20.1 127.894 10.1 122.894 0 121.894V144.894C4 145.894 13 149.894 19 153.894C30 159.894 40 165.894 50.1 165.894C60.2 165.894 71.1 159.894 82.2 153.894C88.2 149.894 98.2 144.894 102.2 144.894C106.2 144.894 115.2 149.894 122.2 153.894C133.2 159.894 143.2 165.894 153.3 165.894C163.4 165.894 173.3 159.894 184.4 153.894C191.4 149.894 201.4 144.894 205.4 144.894C209.4 144.894 218.4 149.894 225.4 153.894C236.4 159.894 246.4 165.894 256.5 165.894C266.6 165.894 276.5 159.894 287.6 153.894C294.6 149.894 303.6 144.894 307.6 144.894C311.6 144.894 321.6 149.894 328.6 153.894C339.6 159.894 349.6 165.894 359.7 165.894C369.8 165.894 379.7 159.894 390.8 153.894C397.8 149.894 406.8 144.894 410.8 144.894C414.8 144.894 424.8 149.894 430.8 153.894C441.8 159.894 452.8 165.894 462.9 165.894C473 165.894 482.9 159.894 494 153.894C500 149.894 509 145.894 513 144.894V121.894ZM462.9 255.194C458.9 255.194 448.9 250.194 441.9 246.194C430.9 240.194 420.9 234.194 410.8 234.194C400.7 234.194 390.8 240.194 379.7 246.194C372.7 250.194 363.7 255.194 359.7 255.194C355.7 255.194 345.7 250.194 339.7 246.194C328.7 240.194 317.7 234.194 307.6 234.194C298.6 234.194 287.6 240.194 276.5 246.194C269.5 250.194 260.5 255.194 256.5 255.194C252.5 255.194 243.5 250.194 236.5 246.194C225.5 240.194 214.5 234.194 205.4 234.194C195.4 234.194 184.4 240.194 173.3 246.194C167.3 250.194 157.3 255.194 153.3 255.194C149.3 255.194 140.3 250.194 133.3 246.194C122.3 240.194 112.3 234.194 102.2 234.194C92.1 234.194 82.2 240.194 71.1 246.194C64.1 250.194 54.1 255.194 50.1 255.194C46.1 255.194 37.1 250.194 30.1 246.194C20.1 240.194 10.1 234.194 0 234.194V256.194L19 265.194C30 271.194 40 277.194 50.1 277.194C60.2 277.194 71.1 271.194 82.2 265.194C88.2 261.194 98.2 256.194 102.2 256.194C106.2 256.194 115.2 261.194 122.2 265.194C133.2 271.194 143.2 277.194 153.3 277.194C163.4 277.194 173.3 271.194 184.4 265.194C191.4 261.194 201.4 256.194 205.4 256.194C209.4 256.194 218.4 261.194 225.4 265.194C236.4 271.194 246.4 277.194 256.5 277.194C266.6 277.194 276.5 271.194 287.6 265.194C294.6 261.194 303.6 256.194 307.6 256.194C311.6 256.194 321.6 261.194 328.6 265.194C339.6 271.194 349.6 277.194 359.7 277.194C369.8 277.194 379.7 271.194 390.8 265.194C397.8 261.194 406.8 256.194 410.8 256.194C414.8 256.194 424.8 261.194 430.8 265.194C441.8 271.194 452.8 277.194 462.9 277.194C473 277.194 482.9 271.194 494 265.194L513 256.194V234.194C503 234.194 493 240.194 482.9 246.194C475.9 250.194 466.9 255.194 462.9 255.194ZM513 289.194C503 290.194 493 295.194 482.9 301.194C475.9 305.194 466.9 311.194 462.9 311.194C458.9 311.194 448.9 305.194 441.9 301.194C430.9 295.194 420.9 289.194 410.8 289.194C400.7 289.194 390.8 295.194 379.7 301.194C372.7 305.194 363.7 311.194 359.7 311.194C355.7 311.194 345.7 305.194 339.7 301.194C328.7 295.194 317.7 289.194 307.6 289.194C297.5 289.194 287.6 295.194 276.5 301.194C269.5 305.194 260.5 311.194 256.5 311.194C252.5 311.194 243.5 305.194 236.5 301.194C225.5 295.194 214.5 289.194 205.4 289.194C196.3 289.194 184.4 295.194 173.3 301.194C167.3 305.194 157.3 311.194 153.3 311.194C149.3 311.194 140.3 305.194 133.3 301.194C122.3 295.194 112.3 289.194 102.2 289.194C92.1 289.194 82.2 295.194 71.1 301.194C64.1 305.194 54.1 311.194 50.1 311.194C46.1 311.194 37.1 305.194 30.1 301.194C20.1 295.194 10.1 290.194 0 289.194V312.194C4 312.194 13 317.194 19 321.194C30 327.194 40 333.194 50.1 333.194C60.2 333.194 71.1 327.194 82.2 321.194C88.2 317.194 98.2 312.194 102.2 312.194C106.2 312.194 115.2 317.194 122.2 321.194C133.2 327.194 143.2 333.194 153.3 333.194C163.4 333.194 173.3 327.194 184.4 321.194C191.4 317.194 201.4 312.194 205.4 312.194C209.4 312.194 218.4 317.194 225.4 321.194C236.4 327.194 246.4 333.194 256.5 333.194C266.6 333.194 276.5 327.194 287.6 321.194C294.6 317.194 303.6 312.194 307.6 312.194C311.6 312.194 321.6 317.194 328.6 321.194C339.6 327.194 349.6 333.194 359.7 333.194C369.8 333.194 379.7 327.194 390.8 321.194C397.8 317.194 406.8 312.194 410.8 312.194C414.8 312.194 424.8 317.194 430.8 321.194C441.8 327.194 452.8 333.194 462.9 333.194C473 333.194 482.9 327.194 494 321.194C500 317.194 509 312.194 513 312.194V289.194Z" fill="#0052B4"/>
<path d="M0 0.694092H256V171.694H0V0.694092Z" fill="white"/>
<path d="M389.8 120.894H408V199.694H389.7L389.8 120.894ZM389.8 238.694H408V313.794H389.7L389.8 238.694Z" fill="#A2001D"/>
<path d="M144 0.694092H112V70.6941H0V102.694H112V171.694H144V102.694H256V70.6941H144V0.694092Z" fill="#D80027"/>
<path d="M0 0.694092V15.6941L57 54.6941H80L0 0.694092ZM256 0.694092V15.6941L199 54.6941H176L256 0.694092Z" fill="#D80027"/>
<path d="M0 0.694092V15.6941L57 54.6941H80L0 0.694092ZM256 0.694092V15.6941L199 54.6941H176L256 0.694092ZM0 171.694V156.694L57 118.694H80L0 171.694ZM256 171.694V156.694L199 118.694H176L256 171.694Z" fill="#D80027"/>
<path d="M0 23.6941V54.6941H46L0 23.6941ZM96 0.694092V49.6941L23 0.694092H96ZM256 23.6941V54.6941H210L256 23.6941ZM160 0.694092V49.6941L233 0.694092H160Z" fill="#2E52B2"/>
<path d="M0 23.6941V54.6941H46L0 23.6941ZM96 0.694092V49.6941L23 0.694092H96ZM256 23.6941V54.6941H210L256 23.6941ZM160 0.694092V49.6941L233 0.694092H160ZM0 148.694V118.694H46L0 148.694ZM96 171.694V122.694L23 171.694H96ZM256 148.694V118.694H210L256 148.694ZM160 171.694V122.694L233 171.694H160Z" fill="#2E52B2"/>
<path d="M462.8 92.4942H433.7L459.4 66.7942C463.9 62.3942 463.9 55.3942 459.4 50.9942L456 47.5942C451.6 43.1942 444.6 43.1942 440.2 47.5942L414.3 73.4942V38.3942C414.3 32.1942 409.2 27.0942 403 27.0942H398.3C392.1 27.0942 387 32.1942 387 38.3942V70.0942L363.5 46.2942C358.8 41.5942 351.3 41.5942 346.6 46.2942L343 49.8942C338.3 54.5942 338.3 62.2942 343 67.0942L368 92.4942H337.4C331.4 92.4942 326.5 97.3942 326.5 103.394V107.994C326.5 113.994 331.4 118.894 337.4 118.894H369L348.3 139.594C343.9 143.994 343.9 150.994 348.3 155.394L351.7 158.794C356.1 163.194 363.1 163.194 367.5 158.794L387.1 139.194V167.994C387.1 174.094 392.2 179.094 398.4 179.294H403.1C409.3 179.294 414.4 174.194 414.4 167.994V139.694L436.6 162.294C441.3 166.994 449 166.994 453.7 162.294L457.3 158.694C462 153.994 462 146.294 457.3 141.494L435.2 118.994H462.8C468.7 118.994 473.5 114.094 473.7 108.094V103.494C473.7 97.3942 468.8 92.4942 462.8 92.4942Z" fill="#5DA51E"/>
<path fill-rule="evenodd" clip-rule="evenodd" d="M385 38.3942C385 31.0897 390.995 25.0942 398.3 25.0942H403C410.305 25.0942 416.3 31.0897 416.3 38.3942V68.6658L438.786 46.18C443.967 40.999 452.233 40.999 457.414 46.18L460.798 49.5642C460.801 49.5669 460.804 49.5695 460.806 49.5722C466.098 54.7545 466.098 63.0338 460.806 68.2162C460.804 68.2189 460.801 68.2216 460.798 68.2243L438.528 90.4942H462.8C469.916 90.4942 475.7 96.3016 475.7 103.494V108.128L475.699 108.161C475.465 115.165 469.851 120.994 462.8 120.994H439.968L458.729 140.095C464.182 145.664 464.203 154.619 458.714 160.108L455.114 163.708C449.633 169.189 440.667 169.189 435.186 163.708L435.179 163.702L416.4 144.584V167.994C416.4 175.299 410.405 181.294 403.1 181.294H398.368L398.336 181.293C391.128 181.061 385.1 175.244 385.1 167.994V144.023L368.914 160.208C363.733 165.389 355.467 165.389 350.286 160.208L346.886 156.808C341.705 151.627 341.705 143.361 346.886 138.18L364.172 120.894H337.4C330.295 120.894 324.5 115.099 324.5 107.994V103.394C324.5 96.2897 330.295 90.4942 337.4 90.4942H363.225L341.575 68.4972L341.571 68.4935C336.118 62.9243 336.097 53.9692 341.586 48.48L345.186 44.88C350.667 39.399 359.433 39.399 364.914 44.88L364.923 44.889L385 65.2222V38.3942ZM398.3 29.0942C393.205 29.0942 389 33.2988 389 38.3942V74.9663L362.086 47.7085C362.084 47.7071 362.083 47.7057 362.082 47.7043C358.162 43.7895 351.932 43.7909 348.014 47.7085L344.414 51.3085C340.504 55.2188 340.482 61.6625 344.427 65.6934C344.428 65.6939 344.428 65.6945 344.429 65.695L372.775 94.4942H337.4C332.505 94.4942 328.5 98.4988 328.5 103.394V107.994C328.5 112.89 332.505 116.894 337.4 116.894H373.828L349.714 141.008C346.095 144.627 346.095 150.361 349.714 153.98L353.114 157.38C356.733 160.999 362.467 160.999 366.086 157.38L389.1 134.366V167.994C389.1 172.935 393.255 177.111 398.434 177.294H403.1C408.195 177.294 412.4 173.09 412.4 167.994V134.804L438.014 160.88C438.016 160.882 438.018 160.884 438.02 160.886C441.94 164.799 448.369 164.797 452.286 160.88L455.886 157.28C459.796 153.37 459.818 146.926 455.873 142.895C455.872 142.895 455.872 142.894 455.871 142.893L430.432 116.994H462.8C467.538 116.994 471.518 113.041 471.7 108.059V103.494C471.7 98.4869 467.684 94.4942 462.8 94.4942H428.872L457.994 65.3721L458.002 65.3642C461.699 61.7488 461.699 56.0397 458.002 52.4243L457.994 52.4164L454.586 49.0084C450.967 45.3895 445.233 45.3895 441.614 49.0084L412.3 78.3227V38.3942C412.3 33.2988 408.095 29.0942 403 29.0942H398.3Z" fill="#45602C"/>
<path d="M439.2 250.094H359.4C359.4 250.094 358.5 236.694 353.4 228.294C347.2 217.894 339.5 200.194 352 191.594C367.9 180.694 385.7 192.394 400.2 192.394C412 192.494 427.1 178.394 445.2 191.594C457.4 200.494 449.1 219.794 443.9 228.294C436.9 239.794 439.2 250.094 439.2 250.094Z" fill="#E2DD24"/>
<path fill-rule="evenodd" clip-rule="evenodd" d="M400.192 194.394C396.326 194.393 392.31 193.615 388.331 192.684C387.018 192.376 385.718 192.054 384.421 191.733C381.706 191.061 379.009 190.394 376.253 189.872C368.203 188.347 360.431 188.24 353.132 193.243C347.765 196.936 346.594 202.567 347.66 208.939C348.735 215.367 352.057 222.134 355.114 227.263C357.846 231.766 359.399 237.489 360.275 241.959C360.718 244.219 360.997 246.208 361.166 247.634C361.185 247.795 361.202 247.948 361.219 248.094H436.925C436.831 246.886 436.787 245.272 436.931 243.358C437.25 239.091 438.498 233.322 442.192 227.254L442.194 227.25C444.72 223.121 447.962 216.415 449.104 209.756C450.247 203.086 449.226 197.007 444.022 193.21C435.593 187.063 427.955 187.254 420.819 189.023C418.142 189.687 415.602 190.554 413.074 191.417C412.146 191.734 411.219 192.05 410.287 192.355C406.923 193.459 403.496 194.42 400.192 194.394ZM439.2 250.094V252.094H357.53L357.405 250.229L357.404 250.224L357.402 250.2C357.401 250.178 357.398 250.144 357.395 250.098C357.387 250.005 357.376 249.865 357.359 249.682C357.326 249.316 357.273 248.778 357.194 248.104C357.034 246.755 356.769 244.869 356.35 242.729C355.502 238.402 354.056 233.228 351.69 229.332L351.686 229.325L351.682 229.318C348.541 224.049 344.914 216.768 343.715 209.599C342.506 202.371 343.735 194.853 350.866 189.946L350.869 189.945C359.471 184.048 368.548 184.341 376.997 185.942C379.862 186.484 382.747 187.198 385.519 187.884C386.788 188.198 388.034 188.506 389.244 188.789C393.174 189.71 396.818 190.394 400.2 190.394H400.208L400.217 190.394C402.81 190.416 405.693 189.653 409.041 188.555C409.878 188.28 410.747 187.983 411.641 187.678C414.215 186.799 416.998 185.849 419.856 185.14C427.745 183.185 436.707 182.925 446.378 189.978C453.373 195.081 454.303 203.102 453.046 210.432C451.788 217.773 448.28 224.967 445.607 229.337C442.302 234.768 441.2 239.898 440.919 243.656C440.779 245.536 440.844 247.071 440.941 248.12C440.99 248.645 441.047 249.047 441.089 249.31C441.11 249.441 441.128 249.537 441.139 249.596C441.143 249.613 441.146 249.627 441.148 249.638C441.149 249.646 441.151 249.652 441.151 249.656L441.152 249.66C441.152 249.659 441.152 249.658 439.2 250.094Z" fill="#525625"/>
</g>
<defs>
<clipPath id="clip0_301_973">
<rect width="513" height="342" fill="white" transform="translate(0 0.994141)"/>
</clipPath>
</defs>
</svg>
