<svg width="513" height="343" viewBox="0 0 513 343" fill="none" xmlns="http://www.w3.org/2000/svg">
<g clip-path="url(#clip0_301_942)">
<path d="M0 0.997559H513V342.99H0V0.997559Z" fill="#6DA544"/>
<path d="M216.286 172L0 316.186V27.8018L216.286 172ZM513 27.8018V316.186L296.714 172L513 27.8018Z" fill="black"/>
<path d="M513 27.802L296.714 172L513 316.186V342.995H472.797L256.5 198.798L40.2034 342.995H0V316.186L216.286 172L0 27.802V0.991699H40.2034L256.5 145.19L472.797 0.991699H513V27.802Z" fill="#0052B4"/>
<path d="M513 27.802L296.714 172L513 316.186V342.995H472.797L256.5 198.798L40.2034 342.995H0V316.186L216.286 172L0 27.802V0.991699H40.2034L256.5 145.19L472.797 0.991699H513V27.802Z" fill="#FFDA44"/>
</g>
<defs>
<clipPath id="clip0_301_942">
<rect width="513" height="342" fill="white" transform="translate(0 0.993652)"/>
</clipPath>
</defs>
</svg>
