<svg width="513" height="343" viewBox="0 0 513 343" fill="none" xmlns="http://www.w3.org/2000/svg">
<g clip-path="url(#clip0_301_922)">
<path d="M0 0.990234H513V342.994H0V0.990234Z" fill="white"/>
<path d="M0 0.990234H513V91.7461H0V0.990234Z" fill="black"/>
<path d="M0 252.238H513V342.983H0V252.238Z" fill="#496E2D"/>
<path d="M0 114.486H513V229.51H0V114.486Z" fill="#A2001D"/>
<path d="M323.896 55.5684L298.263 43.7363L256.5 138.303L214.736 43.7363L189.104 55.5684L240.954 171.986L189.104 288.405L214.736 300.236L256.5 205.671L298.263 300.236L323.896 288.405L272.046 171.986L323.896 55.5684Z" fill="white"/>
<path d="M273.91 66.7181C263.986 55.881 256.5 49.6519 256.5 49.6519C256.5 49.6519 249.013 55.88 239.09 66.7171V277.255C249.013 288.092 256.5 294.322 256.5 294.322C256.5 294.322 263.986 288.094 273.91 277.256V66.7181Z" fill="white"/>
<path d="M209.448 107.092V236.88C219.934 255.458 232.768 270.688 242.384 280.784V63.1885C232.767 73.2842 219.933 88.5128 209.448 107.092ZM303.552 107.092C293.066 88.5128 280.232 73.2842 270.615 63.1885V280.785C280.233 270.688 293.066 255.459 303.552 236.881V107.092Z" fill="#A2001D"/>
<path d="M303.552 107.092V236.88C314.167 218.069 322.372 195.827 322.372 171.986C322.372 148.146 314.167 125.903 303.552 107.092ZM209.448 107.092V236.88C198.834 218.069 190.628 195.827 190.628 171.986C190.628 148.146 198.834 125.903 209.448 107.092Z" fill="black"/>
</g>
<defs>
<clipPath id="clip0_301_922">
<rect width="513" height="342" fill="white" transform="translate(0 0.992188)"/>
</clipPath>
</defs>
</svg>
