<svg width="513" height="343" viewBox="0 0 513 343" fill="none" xmlns="http://www.w3.org/2000/svg">
<g clip-path="url(#clip0_301_901)">
<path d="M0 0.992676H513V342.993H0V0.992676Z" fill="#CE1126"/>
<path d="M259.464 248.828C294.848 248.828 323.532 220.144 323.532 184.76C323.532 149.377 294.848 120.692 259.464 120.692C224.08 120.692 195.396 149.377 195.396 184.76C195.396 220.144 224.08 248.828 259.464 248.828Z" fill="#FCD116"/>
<path d="M289.674 84.6685L262.656 114.308L295.26 121.718L289.674 84.6685ZM230.964 84.8965L225.492 122.63L257.982 113.51L230.964 84.8965ZM338.466 115.334L298.908 125.024L321.822 152.042L338.466 115.334ZM180.804 113.282L198.474 150.56L221.502 124.682L180.804 113.282ZM362.064 164.924L322.848 153.638L329.232 187.268L362.064 164.924ZM154.584 161.96L190.95 184.532L196.878 152.954L154.584 161.96Z" fill="#FCD116"/>
<path d="M0 200.493H513V342.993H0V200.493Z" fill="#003F87"/>
<path d="M0 305.373C17.1 305.373 34.2 320.193 51.3 320.193C68.4 320.193 85.5 305.373 102.6 305.373C119.7 305.373 136.8 320.193 153.9 320.193C171 320.193 188.1 305.373 205.2 305.373C222.3 305.373 239.4 320.193 256.5 320.193C273.6 320.193 290.7 305.373 307.8 305.373C324.9 305.373 342 320.193 359.1 320.193C376.2 320.193 393.3 305.373 410.4 305.373C427.5 305.373 444.6 320.193 461.7 320.193C478.8 320.193 495.9 305.373 513 305.373V281.433C495.9 281.433 478.8 296.253 461.7 296.253C444.6 296.253 427.5 281.433 410.4 281.433C393.3 281.433 376.2 296.253 359.1 296.253C342 296.253 324.9 281.433 307.8 281.433C290.7 281.433 273.6 296.253 256.5 296.253C239.4 296.253 222.3 281.433 205.2 281.433C188.1 281.433 171 296.253 153.9 296.253C136.8 296.253 119.7 281.433 102.6 281.433C85.5 281.433 68.4 296.253 51.3 296.253C34.2 296.253 17.1 281.433 0 281.433V305.373ZM0 256.353C17.1 256.353 34.2 271.173 51.3 271.173C68.4 271.173 85.5 256.353 102.6 256.353C119.7 256.353 136.8 271.173 153.9 271.173C171 271.173 188.1 256.353 205.2 256.353C222.3 256.353 239.4 271.173 256.5 271.173C273.6 271.173 290.7 256.353 307.8 256.353C324.9 256.353 342 271.173 359.1 271.173C376.2 271.173 393.3 256.353 410.4 256.353C427.5 256.353 444.6 271.173 461.7 271.173C478.8 271.173 495.9 256.353 513 256.353V232.413C495.9 232.413 478.8 247.233 461.7 247.233C444.6 247.233 427.5 232.413 410.4 232.413C393.3 232.413 376.2 247.233 359.1 247.233C342 247.233 324.9 232.413 307.8 232.413C290.7 232.413 273.6 247.233 256.5 247.233C239.4 247.233 222.3 232.413 205.2 232.413C188.1 232.413 171 247.233 153.9 247.233C136.8 247.233 119.7 232.413 102.6 232.413C85.5 232.413 68.4 247.233 51.3 247.233C34.2 247.233 17.1 232.413 0 232.413V256.353ZM0 207.333C17.1 207.333 34.2 222.153 51.3 222.153C68.4 222.153 85.5 207.333 102.6 207.333C119.7 207.333 136.8 222.153 153.9 222.153C171 222.153 188.1 207.333 205.2 207.333C222.3 207.333 239.4 222.153 256.5 222.153C273.6 222.153 290.7 207.333 307.8 207.333C324.9 207.333 342 222.153 359.1 222.153C376.2 222.153 393.3 207.333 410.4 207.333C427.5 207.333 444.6 222.153 461.7 222.153C478.8 222.153 495.9 207.333 513 207.333V183.393C495.9 183.393 478.8 198.213 461.7 198.213C444.6 198.213 427.5 183.393 410.4 183.393C393.3 183.393 376.2 198.213 359.1 198.213C342 198.213 324.9 183.393 307.8 183.393C290.7 183.393 273.6 198.213 256.5 198.213C239.4 198.213 222.3 183.393 205.2 183.393C188.1 183.393 171 198.213 153.9 198.213C136.8 198.213 119.7 183.393 102.6 183.393C85.5 183.393 68.4 198.213 51.3 198.213C34.2 198.213 17.1 183.393 0 183.393V207.333Z" fill="white"/>
<path fill-rule="evenodd" clip-rule="evenodd" d="M208.848 56.0545L207.594 50.0125L233.13 45.7945C233.13 45.7945 198.816 37.7005 187.53 33.5965C171.228 27.7825 168.948 19.8025 168.948 19.8025C168.948 19.8025 219.906 32.3425 242.82 32.3425C247.722 32.3425 257.412 44.5405 257.412 44.5405C257.412 44.5405 274.284 27.5545 282.378 26.9845C318.972 24.3625 358.302 19.6885 358.302 19.6885C358.302 19.6885 346.902 27.3265 340.062 29.3785C321.594 34.9645 282.378 42.7165 282.378 42.7165L276.906 51.2665H315.78L299.364 56.1685L307.8 64.0345C307.8 64.0345 298.908 59.3605 287.166 61.6405C279.072 63.1225 269.61 68.4805 261.06 70.7605C239.742 76.2325 226.974 56.1685 226.974 56.1685L208.848 56.0545Z" fill="#FCD116"/>
</g>
<defs>
<clipPath id="clip0_301_901">
<rect width="513" height="342" fill="white" transform="translate(0 0.992676)"/>
</clipPath>
</defs>
</svg>
