<svg width="513" height="343" viewBox="0 0 513 343" fill="none" xmlns="http://www.w3.org/2000/svg">
<g clip-path="url(#clip0_301_815)">
<path d="M0 0.994141H513V342.994H0V0.994141Z" fill="#FFDA44"/>
<path d="M222.6 23.2942H489.7V320.094H222.6V23.2942Z" fill="#A2001D"/>
<path d="M22.2998 23.2942H222.6V320.094H22.2998V23.2942Z" fill="#D80027"/>
<path d="M200.3 0.994141H222.6V342.994H200.3V0.994141Z" fill="#FFDA44"/>
<path d="M22.2998 23.2942H111.3V320.094H22.2998V23.2942Z" fill="#6DA544"/>
<path d="M111.3 23.2942H200.3V320.094H111.3V23.2942Z" fill="#FF9811"/>
<path d="M368.2 157.794C366.8 155.794 368.2 119.894 368.2 119.894C369.1 112.494 368.3 111.494 369.2 108.494C370.1 105.594 374.6 96.8942 374.6 96.8942C374.6 96.8942 368.6 94.5942 364.3 96.2942C360 97.9942 339.6 88.7942 333.1 99.6942C328.7 106.694 309.5 115.894 308.5 113.694C307.5 111.494 302.6 108.694 301.6 110.794C300.6 112.894 300.9 124.694 301.6 126.794C302.4 129.394 311.4 128.794 313.9 129.894C317.6 131.694 326.1 138.094 325.8 140.594C325.5 143.094 303.3 134.594 301.6 136.094C300.2 137.294 299.7 149.294 301.2 151.094C303 153.194 324.6 156.694 326.2 158.594C327.8 160.494 313.1 165.994 313.9 183.594C314.6 198.294 321.9 200.994 321.9 200.994C321.9 200.994 319.5 204.594 314.1 204.094C307.9 203.494 286.7 186.394 286.7 186.394C286.7 186.394 283.2 77.3942 290.3 64.9942C295.2 56.4942 267.6 75.0942 267.6 115.794V151.994C267.6 158.594 266.2 174.394 270.2 185.994C270.2 185.994 269.8 232.894 271.7 235.594C273.6 238.294 284.4 237.794 286.5 235.594C288.6 233.394 286.5 205.594 286.5 205.594C294.2 205.794 304.8 223.094 319 221.994C339.6 220.394 347.7 212.094 353.3 216.994C361.4 224.094 358.8 240.194 353.7 248.494C351.5 251.994 339.4 253.194 338 256.094C336.6 258.994 338.5 261.494 338.5 261.494H368.2C368.2 261.494 369.6 240.994 370.9 235.394C372.2 229.694 370.3 224.694 376.8 224.994C400.3 226.094 416.6 209.694 422.3 216.994C425.5 221.094 427.9 246.894 425.6 250.294C423.4 253.694 411.8 253.094 410.4 256.994C409 260.994 411.2 261.394 411.2 261.394H440.9C440.9 261.394 440.5 240.194 443.4 233.694C446.3 227.194 448.3 223.294 452.7 216.494C457.1 209.694 464 200.794 464 180.294C464 166.094 455.9 157.494 455.9 157.494H417C402.9 157.694 369.6 159.794 368.2 157.794ZM232.2 33.2942C242.9 22.6942 252.4 30.5942 254.4 35.3942C256.3 40.1942 256.5 43.5942 257.2 48.9942C258.1 55.8942 262.1 62.9942 262.1 62.9942C262.1 62.9942 255 59.1942 247.4 58.7942C242.7 58.4942 238.4 58.1942 233.8 56.2942C228.1 53.9942 222.1 43.3942 232.2 33.2942ZM480.6 33.1942C491.3 43.7942 483.4 53.3942 478.6 55.3942C473.8 57.3942 470.4 57.4942 465 58.1942C458.1 59.0942 451 63.1942 451 63.1942C451 63.1942 454.7 56.0942 455.2 48.4942C455.5 43.7942 455.8 39.3942 457.6 34.8942C459.8 29.1942 470.4 23.0942 480.6 33.1942ZM480.7 310.094C470 320.694 460.5 312.694 458.5 307.894C456.6 303.094 456.4 299.694 455.8 294.294C455 287.394 450.9 280.194 450.9 280.194C450.9 280.194 457.9 283.994 465.6 284.494C470.3 284.794 474.6 285.094 479.2 286.994C484.9 289.394 490.9 300.094 480.7 310.094ZM232.5 309.994C221.9 299.294 229.8 289.794 234.6 287.794C239.4 285.894 242.8 285.694 248.2 284.994C255.1 284.094 262.2 280.094 262.2 280.094C262.2 280.094 258.4 287.194 258 294.794C257.7 299.494 257.4 303.794 255.5 308.394C253.2 314.094 242.6 320.194 232.5 309.994Z" fill="#FFDA44"/>
<path fill-rule="evenodd" clip-rule="evenodd" d="M389.039 111.354C386.893 113.198 385.3 116.175 385.3 121.194C385.3 125.505 387.926 129.387 393.17 131.808C398.457 134.249 406.245 135.061 415.616 132.873C425.757 130.496 436.208 131.251 444.134 133.773C448.089 135.031 451.586 136.784 454.117 138.963C456.623 141.121 458.533 144.035 458.293 147.498C457.804 154.818 455.495 159.472 453.048 162.35C451.839 163.772 450.637 164.712 449.692 165.311C449.22 165.61 448.814 165.823 448.503 165.97C448.347 166.043 448.215 166.1 448.111 166.142C448.058 166.163 448.013 166.181 447.975 166.195C447.956 166.202 447.938 166.209 447.923 166.214L447.901 166.222L447.891 166.225L447.887 166.227C447.885 166.228 447.882 166.229 446.9 163.394C445.917 160.56 445.915 160.56 445.913 160.561L445.909 160.563L445.901 160.565L445.888 160.57L445.868 160.577C445.858 160.581 445.855 160.582 445.858 160.581C445.864 160.579 445.894 160.566 445.945 160.542C446.048 160.494 446.234 160.399 446.479 160.243C446.969 159.933 447.698 159.379 448.477 158.463C450.005 156.666 451.895 153.272 452.306 147.095L452.307 147.085C452.365 146.251 451.951 145.016 450.201 143.509C448.476 142.023 445.785 140.594 442.315 139.49C435.392 137.288 426.043 136.592 416.984 138.715L416.982 138.716C406.654 141.127 397.442 140.389 390.655 137.255C383.824 134.101 379.3 128.384 379.3 121.194C379.3 114.763 381.419 109.99 385.129 106.803C388.734 103.706 393.46 102.437 398.099 102.126C407.312 101.508 417.591 104.573 422.61 107.246L422.622 107.253L422.622 107.253C424.672 108.356 427.237 110.089 429.896 111.884C430.407 112.229 430.921 112.577 431.436 112.922C434.731 115.134 438.189 117.382 441.485 119.039C444.866 120.738 447.636 121.583 449.645 121.468C450.57 121.415 451.256 121.162 451.804 120.748C452.361 120.325 452.977 119.581 453.498 118.221L459.101 120.367C458.272 122.532 457.063 124.291 455.425 125.531C453.777 126.779 451.896 127.349 449.989 127.458C446.332 127.668 442.371 126.2 438.79 124.4C435.123 122.556 431.387 120.116 428.092 117.904C427.531 117.527 426.987 117.16 426.459 116.804C423.79 115.003 421.542 113.486 419.784 112.539C415.6 110.313 406.434 107.58 398.501 108.112C394.565 108.376 391.291 109.42 389.039 111.354Z" fill="#FFDA44"/>
</g>
<defs>
<clipPath id="clip0_301_815">
<rect width="513" height="342" fill="white" transform="translate(0 0.994141)"/>
</clipPath>
</defs>
</svg>
