<svg width="513" height="343" viewBox="0 0 513 343" fill="none" xmlns="http://www.w3.org/2000/svg">
<g clip-path="url(#clip0_301_804)">
<path d="M0 0.994141H513V342.994H0V0.994141Z" fill="white"/>
<path d="M0 0.994141H513V114.994H0V0.994141Z" fill="#0052B4"/>
<path d="M0 228.594H513V342.594H0V228.594Z" fill="#6DA544"/>
<path d="M245.2 171.994L252.9 148.894C254.9 142.994 258 142.894 260 148.894L267.7 171.994L287.1 201.094C288.8 203.694 288.4 207.394 285.9 209.094C285.9 209.094 279 217.094 256.4 217.094C233.8 217.094 226.9 209.094 226.9 209.094C224.5 207.094 224 203.694 225.7 201.094L245.2 171.994Z" fill="black"/>
<path d="M256.5 171.994C244 171.994 233.9 161.894 233.9 149.394C233.9 136.894 244 126.794 256.5 126.794C269 126.794 279.1 136.894 279.1 149.394C279.1 161.894 268.9 171.994 256.5 171.994ZM256.5 171.994C262.7 171.994 267.8 155.694 267.8 149.394C267.8 143.194 262.7 138.094 256.5 138.094C250.3 138.094 245.2 143.194 245.2 149.394C245.2 155.694 250.2 171.994 256.5 171.994Z" fill="black"/>
</g>
<defs>
<clipPath id="clip0_301_804">
<rect width="513" height="342" fill="white" transform="translate(0 0.994141)"/>
</clipPath>
</defs>
</svg>
