<svg width="513" height="343" viewBox="0 0 513 343" fill="none" xmlns="http://www.w3.org/2000/svg">
<g clip-path="url(#clip0_301_769)">
<path d="M0 0.992188H513V342.992H0V0.992188Z" fill="#E6BE53"/>
<path d="M20 20.9922H493V322.992H20V20.9922Z" fill="#E01D24"/>
<path d="M248.5 113.892C252.9 118.292 260.1 118.292 264.5 113.892L259.8 118.592L282.5 95.8922C287.4 91.3922 294.6 90.2922 300.7 93.0922L302.8 94.0922C308.5 96.9922 309.5 102.792 305.1 107.192L309.8 102.492L287 125.292C282.5 130.192 281.4 137.392 284.2 143.492L285.2 145.592C288.1 151.292 290.3 160.992 290.3 167.192V155.892C290.3 162.092 294.7 164.992 300.5 162.092L302.6 161.092C308.3 158.192 309.3 152.392 304.9 147.992L309.6 152.692C305.2 148.292 305.2 141.092 309.6 136.692L304.9 141.392C310.1 135.892 314.5 129.792 318 123.192L319 121.092C321.9 115.392 325.3 105.992 326.9 99.8922L332.7 76.5922C334.2 70.5922 338.6 69.7922 342.3 74.7922L362.5 101.692C366.3 106.792 369.4 115.692 369.4 122.292V144.692C369.4 150.992 367.2 160.492 364.3 166.392L363.3 168.492C359.8 175.092 355.4 181.192 350.2 186.692L343.4 193.492C338 198.692 331.9 203.092 325.2 206.592L323.1 207.592C317.4 210.492 307.6 212.692 301.5 212.692C295.3 212.692 294.6 214.892 300.4 217.792L302.5 218.792C308.2 221.692 316.3 227.492 320.7 231.892L316 227.192C320.4 231.592 327.6 231.592 332 227.192L327.3 231.892C331.7 227.492 338.9 227.492 343.3 231.892L339 226.992C343.6 231.892 344.7 239.092 341.9 245.192L340.9 247.292C338 252.992 330.5 257.492 324.5 257.492C317 257.192 309.7 255.492 302.9 252.392L300.8 251.392C294.3 247.792 289 242.492 285.4 235.992L284.4 233.892C281.5 228.192 275.7 227.192 271.3 231.592L276 226.892C271.6 231.592 270.8 238.692 274.2 244.192L284.5 259.592C287.9 264.692 286.5 271.692 281.4 275.092L266 285.392C260.3 288.792 253.2 288.792 247.4 285.392L232 275.092C226.9 271.692 225.5 264.792 228.9 259.592L239.2 244.192C242.6 238.692 241.8 231.592 237.4 226.892L242.1 231.592C237.7 227.192 231.9 227.992 229 233.892L228 235.992C225.1 241.692 218.5 248.392 212.6 251.392L210.5 252.392C204.8 255.292 195 257.492 188.9 257.492C182 257.192 175.8 253.292 172.5 247.292L171.5 245.192C168.7 239.092 169.9 231.892 174.4 226.992L169.7 231.692C174.1 227.292 181.3 227.292 185.7 231.692L181 226.992C185.4 231.392 192.6 231.392 197 226.992L192.3 231.692C197.8 226.492 203.9 222.092 210.5 218.592L212.6 217.592C218.3 214.692 217.6 212.492 211.5 212.492C204 212.192 196.7 210.492 189.9 207.392L187.8 206.392C181.2 202.892 175.1 198.492 169.6 193.292L162.8 186.492C157.6 181.092 153.2 174.992 149.7 168.292L148.7 166.192C145.6 159.392 143.8 151.992 143.6 144.492V121.992C143.6 115.692 146.7 106.392 150.5 101.392L170.7 74.4922C174.5 69.3922 178.8 70.1922 180.3 76.2922L186.1 99.5922C188.1 106.892 190.7 113.992 194 120.792L195 122.892C197.9 128.592 203.7 136.692 208.1 141.092L203.4 136.392C207.8 140.792 207.8 147.992 203.4 152.392L208.1 147.692C203.7 152.092 204.5 157.892 210.4 160.792L212.5 161.792C218.2 164.692 222.7 161.792 222.7 155.592V166.892C222.7 160.692 224.9 151.192 227.8 145.292L228.8 143.192C231.6 137.092 230.5 129.992 226 124.992L203.3 102.292L208 106.992C203.6 102.592 204.4 96.7922 210.3 93.8922L212.4 92.8922C218.5 90.0922 225.6 91.1922 230.6 95.6922L253.3 118.392L248.5 113.892ZM230.5 73.1922C226.1 68.7922 227.3 63.6922 233.3 61.6922L245.7 57.4922C251.7 55.4922 261.2 55.4922 267.2 57.4922L279.6 61.6922C285.6 63.6922 286.8 68.7922 282.4 73.1922L275.6 79.9922C270.3 84.6922 263.5 87.4922 256.4 87.8922C250.2 87.8922 241.6 84.3922 237.2 79.9922C237.3 79.9922 230.5 73.1922 230.5 73.1922Z" fill="#E6BE53"/>
<path d="M233.9 201.193C233.9 207.393 235.6 207.593 238.1 201.693C238.1 201.693 245.2 178.493 256.5 178.493C267.8 178.493 275.1 202.093 275.1 202.093C277.3 207.793 279.1 207.393 279.1 200.993V189.793C279.1 171.093 269 155.893 256.5 155.893C244 155.893 233.9 171.093 233.9 189.793V201.193Z" fill="#215F90"/>
</g>
<defs>
<clipPath id="clip0_301_769">
<rect width="513" height="342" fill="white" transform="translate(0 0.992188)"/>
</clipPath>
</defs>
</svg>
