<svg width="513" height="343" viewBox="0 0 513 343" fill="none" xmlns="http://www.w3.org/2000/svg">
<g clip-path="url(#clip0_301_748)">
<path d="M0 0.993164H513V342.997H0V0.993164Z" fill="#FFDA44"/>
<path d="M384.625 342.989L256.5 168.272L283.379 342.989H384.625ZM133.826 0.990234L256.5 168.272L230.764 0.990234H133.826ZM229.619 342.989L256.5 168.272L128.374 342.989H229.619ZM0 0.990234V128.809L256.5 168.272L28.3883 0.990234H0ZM0 342.989H18.2476L256.5 168.272L0 207.733V342.989ZM256.5 168.272L513 128.809V0.990234H484.614L256.5 168.272ZM282.236 0.990234L256.5 168.272L379.173 0.990234H282.236ZM513 342.989V207.734L256.5 168.272L494.751 342.989H513Z" fill="#D80027"/>
<path d="M256.5 227.751C289.347 227.751 315.975 201.123 315.975 168.276C315.975 135.429 289.347 108.801 256.5 108.801C223.653 108.801 197.025 135.429 197.025 168.276C197.025 201.123 223.653 227.751 256.5 227.751Z" fill="#D80027"/>
<path d="M256.5 212.885C281.137 212.885 301.109 192.913 301.109 168.276C301.109 143.64 281.137 123.667 256.5 123.667C231.863 123.667 211.891 143.64 211.891 168.276C211.891 192.913 231.863 212.885 256.5 212.885Z" fill="#FFDA44"/>
</g>
<defs>
<clipPath id="clip0_301_748">
<rect width="513" height="342" fill="white" transform="translate(0 0.993164)"/>
</clipPath>
</defs>
</svg>
