<svg width="513" height="343" viewBox="0 0 513 343" fill="none" xmlns="http://www.w3.org/2000/svg">
<g clip-path="url(#clip0_301_722)">
<path d="M0 0.992188H513V342.996H0V0.992188Z" fill="#00745A"/>
<path d="M286.24 164.859C282.042 164.859 278.058 165.696 274.356 167.027C276.383 162.509 277.741 157.481 277.741 152.113C277.741 130.87 256.499 114.939 256.499 114.939C256.499 114.939 235.257 130.871 235.257 152.113C235.257 157.48 236.615 162.508 238.642 167.027C234.942 165.696 230.956 164.859 226.758 164.859C205.516 164.859 189.584 186.101 189.584 186.101C189.584 186.101 205.517 207.343 226.758 207.343C239.211 207.343 249.834 200.043 256.498 194.002C263.161 200.044 273.783 207.343 286.238 207.343C307.48 207.343 323.411 186.101 323.411 186.101C323.411 186.101 307.481 164.859 286.24 164.859Z" fill="white"/>
<path d="M256.5 67.9026L260.888 81.4049H275.087L263.601 89.7532L267.985 103.256L256.5 94.9092L245.014 103.256L249.399 89.7532L237.913 81.4049H252.111L256.5 67.9026ZM202.507 91.5206L210.948 99.1205L220.785 93.4424L216.166 103.818L224.606 111.42L213.31 110.233L208.69 120.608L206.327 109.499L195.03 108.311L204.867 102.631L202.507 91.5206ZM162.979 131.047L174.091 133.409L179.77 123.572L180.959 134.868L192.069 137.231L181.692 141.85L182.88 153.146L175.278 144.706L164.901 149.325L170.581 139.488L162.979 131.047ZM310.494 91.5206L302.053 99.1205L292.215 93.4424L296.835 103.818L288.394 111.42L299.691 110.233L304.31 120.608L306.674 109.499L317.971 108.311L308.133 102.631L310.494 91.5206ZM350.02 131.047L338.909 133.409L333.229 123.572L332.041 134.868L320.931 137.231L331.309 141.85L330.121 153.146L337.722 144.706L348.099 149.325L342.419 139.488L350.02 131.047Z" fill="#FFDA44"/>
<path d="M256.5 266.821C273.373 266.821 288.926 261.191 301.404 251.719H211.599C224.074 261.191 239.627 266.821 256.5 266.821ZM188.344 222.212C190.694 227.579 193.671 232.648 197.212 237.315H315.788C319.329 232.648 322.305 227.579 324.655 222.212H188.344Z" fill="white"/>
</g>
<defs>
<clipPath id="clip0_301_722">
<rect width="513" height="342" fill="white" transform="translate(0 0.994141)"/>
</clipPath>
</defs>
</svg>
