<svg width="513" height="343" viewBox="0 0 513 343" fill="none" xmlns="http://www.w3.org/2000/svg">
<g clip-path="url(#clip0_301_705)">
<path d="M0 0.993164H513V342.993H0V0.993164Z" fill="#0052B4"/>
<path d="M512 149.393V193.893H278.3V342.293H233.7V193.893H0V149.393H233.7V0.993164H278.3V149.393H512Z" fill="white"/>
<path d="M101 37.0934C105.2 36.8934 109.3 36.9934 113.5 37.2934C119 37.6934 122.9 38.8934 122.6 37.7934C122.1 35.9934 122.5 35.5934 121.8 35.9934C120.5 36.9934 122.5 35.7934 114.4 40.3934C102.6 47.0934 97.4998 52.1934 100.1 61.3934C102.4 69.4934 108.3 71.6934 122.4 73.8934L124.3 74.1934C129.9 75.0934 132.4 75.5934 134.1 76.3934C134.5 76.5934 133.8 75.3934 134 74.6934C133.8 75.2934 130.1 76.7934 120.7 78.5934L116 79.4934C97.8998 83.1934 88.8998 87.9934 87.4998 100.493C85.9998 114.193 100.2 123.793 118.1 126.093C136.3 128.493 152.2 122.493 153.8 107.693C154.8 98.2934 148.3 92.6934 137.9 90.5934C130.9 89.1934 121.6 89.1934 110.5 90.2934C98.0998 91.5934 85.7998 93.6934 73.5998 96.5934C69.9998 97.2934 67.6998 100.793 68.3998 104.393C69.0998 107.993 72.5998 110.293 76.1998 109.593C76.3998 109.593 76.4998 109.493 76.6998 109.493C88.2998 106.793 99.9998 104.793 111.8 103.593C121.7 102.593 129.8 102.593 135.2 103.693C139.6 104.593 140.5 105.393 140.4 106.293C139.9 111.393 131.5 114.493 119.7 112.993C108.1 111.493 100.2 106.193 100.6 101.993C101.1 97.6934 105.9 95.1934 118.5 92.5934L123.1 91.6934C138.6 88.6934 144.2 86.3934 146.6 78.4934C148.5 71.9934 145.3 66.8934 139.4 64.2934C136.2 62.8934 133.1 62.1934 126.2 61.1934L124.4 60.8934C116.4 59.5934 113 58.2934 112.9 57.8934C112.8 57.4934 114.7 55.5934 121 51.9934L125.4 49.4934C126.9 48.6934 128.3 47.6934 129.7 46.7934C134.3 43.3934 136.9 39.6934 135.5 34.4934C133.6 27.1934 126.5 24.9934 114.6 24.0934C109.9 23.7934 105.3 23.6934 100.6 23.7934L98.5998 23.8934C94.8998 24.0934 92.0998 27.2934 92.2998 30.8934C92.4998 34.5934 95.6998 37.3934 99.2998 37.1934L101 37.0934ZM385 37.0934C389.2 36.8934 393.3 36.9934 397.5 37.2934C403 37.6934 406.9 38.8934 406.6 37.7934C406.1 35.9934 406.5 35.5934 405.8 35.9934C404.5 36.9934 406.5 35.7934 398.4 40.3934C386.6 47.0934 381.5 52.1934 384.1 61.3934C386.4 69.4934 392.3 71.6934 406.4 73.8934L408.3 74.1934C413.9 75.0934 416.4 75.5934 418.1 76.3934C418.5 76.5934 417.8 75.3934 418 74.6934C417.8 75.2934 414.1 76.7934 404.7 78.5934L400 79.4934C381.9 83.1934 372.9 87.9934 371.5 100.493C370 114.193 384.2 123.793 402.1 126.093C420.3 128.493 436.2 122.493 437.8 107.693C438.8 98.2934 432.3 92.6934 421.9 90.5934C414.9 89.1934 405.6 89.1934 394.5 90.2934C382.1 91.5934 369.8 93.6934 357.6 96.5934C354 97.2934 351.7 100.793 352.4 104.393C353.1 107.993 356.6 110.293 360.2 109.593C360.4 109.593 360.5 109.493 360.7 109.493C372.3 106.793 384 104.793 395.8 103.593C405.7 102.593 413.8 102.593 419.2 103.693C423.6 104.593 424.5 105.393 424.4 106.293C423.9 111.393 415.5 114.493 403.7 112.993C392.1 111.493 384.2 106.193 384.6 101.993C385.1 97.6934 389.9 95.1934 402.5 92.5934L407.1 91.6934C422.6 88.6934 428.2 86.3934 430.6 78.4934C432.5 71.9934 429.3 66.8934 423.4 64.2934C420.2 62.8934 417.1 62.1934 410.2 61.1934L408.4 60.8934C400.4 59.5934 397 58.2934 396.9 57.8934C396.8 57.4934 398.7 55.5934 405 51.9934L409.4 49.4934C410.9 48.6934 412.3 47.6934 413.7 46.7934C418.3 43.3934 420.9 39.6934 419.5 34.4934C417.6 27.1934 410.5 24.9934 398.6 24.0934C393.9 23.7934 389.3 23.6934 384.6 23.7934L382.6 23.8934C378.9 24.0934 376.1 27.2934 376.3 30.8934C376.5 34.5934 379.7 37.3934 383.3 37.1934L385 37.0934ZM379.6 236.093C383.8 235.893 387.9 235.993 392.1 236.293C397.6 236.693 401.5 237.893 401.2 236.793C400.7 234.993 401.1 234.593 400.4 234.993C399.1 235.993 401.1 234.793 393 239.393C381.2 246.093 376.1 251.193 378.7 260.393C381 268.493 386.9 270.693 401 272.893L402.9 273.193C408.5 274.093 411 274.593 412.7 275.393C413.1 275.593 412.4 274.393 412.6 273.693C412.4 274.293 408.7 275.793 399.3 277.593L394.6 278.493C376.5 282.193 367.5 286.993 366.1 299.493C364.6 313.193 378.8 322.793 396.7 325.093C414.9 327.493 430.8 321.493 432.4 306.693C433.4 297.293 426.9 291.693 416.5 289.593C409.5 288.193 400.2 288.193 389.1 289.293C376.7 290.593 364.4 292.693 352.2 295.593C348.6 296.293 346.3 299.793 347 303.393C347.7 306.993 351.2 309.293 354.8 308.593C355 308.593 355.1 308.493 355.3 308.493C366.9 305.793 378.6 303.793 390.4 302.593C400.3 301.593 408.4 301.593 413.8 302.693C418.2 303.593 419.1 304.393 419 305.293C418.5 310.393 410.1 313.493 398.3 311.993C386.7 310.493 378.8 305.193 379.2 300.993C379.7 296.693 384.5 294.193 397.1 291.593L401.7 290.693C417.2 287.693 422.8 285.393 425.2 277.493C427.1 270.993 423.9 265.893 418 263.293C414.8 261.893 411.7 261.193 404.8 260.193L403 259.893C395 258.593 391.6 257.293 391.5 256.893C391.4 256.493 393.3 254.593 399.6 250.993L404 248.493C405.5 247.693 406.9 246.693 408.3 245.793C412.9 242.393 415.5 238.693 414.1 233.493C412.2 226.193 405.1 223.993 393.2 223.093C388.5 222.793 383.9 222.693 379.2 222.793L377.2 222.893C373.5 223.093 370.7 226.293 370.9 229.893C371.1 233.493 374.3 236.393 377.9 236.193L379.6 236.093ZM101 236.093C105.2 235.893 109.3 235.993 113.5 236.293C119 236.693 122.9 237.893 122.6 236.793C122.1 234.993 122.5 234.593 121.8 234.993C120.5 235.993 122.5 234.793 114.4 239.393C102.6 246.093 97.4998 251.193 100.1 260.393C102.4 268.493 108.3 270.693 122.4 272.893L124.3 273.193C129.9 274.093 132.4 274.593 134.1 275.393C134.5 275.593 133.8 274.393 134 273.693C133.8 274.293 130.1 275.793 120.7 277.593L116 278.493C97.8998 282.193 88.8998 286.993 87.4998 299.493C85.9998 313.193 100.2 322.793 118.1 325.093C136.3 327.493 152.2 321.493 153.8 306.693C154.8 297.293 148.3 291.693 137.9 289.593C130.9 288.193 121.6 288.193 110.5 289.293C98.0998 290.593 85.7998 292.693 73.5998 295.593C69.9998 296.293 67.6998 299.793 68.3998 303.393C69.0998 306.993 72.5998 309.293 76.1998 308.593C76.3998 308.593 76.4998 308.493 76.6998 308.493C88.2998 305.793 99.9998 303.793 111.8 302.593C121.7 301.593 129.8 301.593 135.2 302.693C139.6 303.593 140.5 304.393 140.4 305.293C139.9 310.393 131.5 313.493 119.7 311.993C108.1 310.493 100.2 305.193 100.6 300.993C101.1 296.693 105.9 294.193 118.5 291.593L123.1 290.693C138.6 287.693 144.2 285.393 146.6 277.493C148.5 270.993 145.3 265.893 139.4 263.293C136.2 261.893 133.1 261.193 126.2 260.193L124.4 259.893C116.4 258.593 113 257.293 112.9 256.893C112.8 256.493 114.7 254.593 121 250.993L125.4 248.493C126.9 247.693 128.3 246.693 129.7 245.793C134.3 242.393 136.9 238.693 135.5 233.493C133.6 226.193 126.5 223.993 114.6 223.093C109.9 222.793 105.3 222.693 100.6 222.793L98.5998 222.893C94.8998 223.093 92.0998 226.293 92.2998 229.893C92.4998 233.593 95.6998 236.393 99.2998 236.193L101 236.093Z" fill="white"/>
</g>
<defs>
<clipPath id="clip0_301_705">
<rect width="513" height="342" fill="white" transform="translate(0 0.993164)"/>
</clipPath>
</defs>
</svg>
