<svg width="513" height="343" viewBox="0 0 513 343" fill="none" xmlns="http://www.w3.org/2000/svg">
<g clip-path="url(#clip0_301_700)">
<path d="M0 0.991821H513V342.996H0V0.991821Z" fill="#496E2D"/>
<path d="M256.5 214.929C210.454 214.929 171.987 182.568 162.55 139.353C161.066 146.123 160.316 153.034 160.312 159.965C160.312 213.088 203.375 256.152 256.5 256.152C309.625 256.152 352.688 213.088 352.688 159.965C352.688 152.885 351.901 145.995 350.45 139.353C341.013 182.568 302.546 214.929 256.5 214.929Z" fill="#FFDA44"/>
<path d="M256.499 87.824L265.452 115.38H294.426L270.986 132.409L279.94 159.966L256.499 142.934L233.059 159.966L242.014 132.409L218.574 115.38H247.546L256.499 87.824Z" fill="#FFDA44"/>
</g>
<defs>
<clipPath id="clip0_301_700">
<rect width="513" height="342" fill="white" transform="translate(0 0.993774)"/>
</clipPath>
</defs>
</svg>
