<svg width="513" height="343" viewBox="0 0 513 343" fill="none" xmlns="http://www.w3.org/2000/svg">
<g clip-path="url(#clip0_301_686)">
<path d="M0 0.993164H513V342.993H0V0.993164Z" fill="#1B4991"/>
<path d="M318.2 107.693V214.193C318.2 266.093 386 281.993 386 281.993C386 281.993 453.8 266.093 453.8 214.193V107.693H318.2Z" fill="#00A2B8"/>
<path fill-rule="evenodd" clip-rule="evenodd" d="M316.7 106.193H455.3V214.193C455.3 240.903 437.829 258.252 420.688 268.832C412.101 274.133 403.526 277.783 397.105 280.108C393.892 281.272 391.211 282.106 389.33 282.65C388.389 282.922 387.648 283.122 387.139 283.254C386.885 283.32 386.688 283.369 386.554 283.402C386.487 283.419 386.436 283.432 386.4 283.44L386.359 283.45L386.344 283.453C386.343 283.454 386.343 283.454 386 281.993C385.658 283.454 385.657 283.454 385.656 283.453L385.641 283.45L385.6 283.44C385.565 283.432 385.513 283.419 385.446 283.402C385.312 283.369 385.116 283.32 384.861 283.254C384.352 283.122 383.611 282.922 382.67 282.65C380.789 282.106 378.109 281.272 374.896 280.108C368.475 277.783 359.9 274.133 351.312 268.832C334.172 258.252 316.7 240.903 316.7 214.193V106.193ZM386 281.993L385.658 283.454L386 283.534L386.343 283.454L386 281.993ZM386 280.449C386.105 280.422 386.233 280.39 386.384 280.35C386.868 280.224 387.584 280.032 388.497 279.768C390.323 279.24 392.94 278.426 396.083 277.288C402.375 275.01 410.75 271.441 419.112 266.279C435.872 255.935 452.3 239.383 452.3 214.193V109.193H319.7V214.193C319.7 239.383 336.129 255.935 352.888 266.279C361.251 271.441 369.626 275.01 375.917 277.288C379.06 278.426 381.677 279.24 383.504 279.768C384.417 280.032 385.132 280.224 385.616 280.35C385.767 280.39 385.895 280.422 386 280.449Z" fill="white"/>
<path d="M319.7 213.693C319.7 264.493 386 279.993 386 279.993C386 279.993 452.3 264.393 452.3 213.693H319.7Z" fill="#A35023"/>
<path d="M415.1 156.093H395.7V136.693H376.3V156.093H357V175.493H376.3V233.593H395.7V175.493H415.1V156.093Z" fill="black"/>
<path d="M256 0.993164V31.5932L210.8 56.6932H256V115.993H196.9L256 148.793V171.693H229.3L155.8 130.793V171.693H100.2V123.093L12.7 171.693H0V141.093L45.2 115.993H0V56.6932H59.1L0 23.7932V0.993164H26.7L100.2 41.7932V0.993164H155.8V49.5932L243.3 0.993164H256Z" fill="white"/>
<path d="M144 0.993164H112V70.2932H0V102.293H112V171.693H144V102.293H256V70.2932H144V0.993164Z" fill="#D80027"/>
<path d="M155.8 115.993L256 171.693V155.893L184.2 115.993H155.8Z" fill="#0052B4"/>
<path d="M155.8 115.993L256 171.693V155.893L184.2 115.993H155.8Z" fill="white"/>
<path d="M155.8 115.993L256 171.693V155.893L184.2 115.993H155.8ZM71.8 115.993L0 155.893V171.693L100.2 115.993H71.8Z" fill="#D80027"/>
<path d="M100.2 56.5932L0 0.993164V16.6932L71.8 56.5932H100.2Z" fill="#0052B4"/>
<path d="M100.2 56.5932L0 0.993164V16.6932L71.8 56.5932H100.2Z" fill="white"/>
<path d="M100.2 56.5932L0 0.993164V16.6932L71.8 56.5932H100.2ZM184.2 56.5932L256 16.6932V0.993164L155.8 56.5932H184.2Z" fill="#D80027"/>
</g>
<defs>
<clipPath id="clip0_301_686">
<rect width="513" height="342" fill="white" transform="translate(0 0.993164)"/>
</clipPath>
</defs>
</svg>
