<svg width="513" height="343" viewBox="0 0 513 343" fill="none" xmlns="http://www.w3.org/2000/svg">
<g clip-path="url(#clip0_301_672)">
<path d="M0 0.991211H513V342.991H0V0.991211Z" fill="#D01920"/>
<path d="M144.979 90.209H368.022V253.778H144.979V90.209Z" fill="#017C3B"/>
<path d="M284.038 220.314C257.349 220.314 235.712 198.677 235.712 171.987C235.712 145.297 257.348 123.661 284.038 123.661C292.36 123.661 300.189 125.765 307.026 129.47C296.302 118.982 281.635 112.51 265.451 112.51C232.603 112.51 205.973 139.138 205.973 171.987C205.973 204.836 232.603 231.465 265.451 231.465C281.636 231.465 296.302 224.992 307.026 214.505C300.19 218.211 292.361 220.314 284.038 220.314Z" fill="white"/>
</g>
<defs>
<clipPath id="clip0_301_672">
<rect width="513" height="342" fill="white" transform="translate(0 0.993164)"/>
</clipPath>
</defs>
</svg>
