<svg width="513" height="343" viewBox="0 0 513 343" fill="none" xmlns="http://www.w3.org/2000/svg">
<g clip-path="url(#clip0_301_506)">
<path d="M394.276 86.343L411.823 105.255L435.231 94.4127L422.666 116.944L440.213 135.857L414.901 130.869L402.337 153.401L399.258 127.787L373.946 122.799L397.354 111.958L394.276 86.343Z" fill="white"/>
<path d="M0 1.00366H513V342.996H0V1.00366Z" fill="white"/>
<path d="M128.25 0.991699H513V342.995H128.25V0.991699Z" fill="#01411C"/>
<path d="M362.616 214.871C331.518 237.34 288.092 230.347 265.623 199.248C243.152 168.149 250.147 124.724 281.246 102.255C290.942 95.2494 301.836 91.1083 312.921 89.6675C291.596 86.4783 269.058 91.2836 250.201 104.908C211.926 132.564 203.317 186.01 230.972 224.286C258.627 262.56 312.074 271.169 350.35 243.512C369.207 229.888 380.845 209.999 384.512 188.751C379.664 198.82 372.313 207.864 362.616 214.871ZM361.284 88.7206L378.802 107.599L402.17 96.7763L389.626 119.267L407.144 138.148L381.875 133.17L369.332 155.664L366.259 130.093L340.99 125.115L364.358 114.291L361.284 88.7206Z" fill="white"/>
</g>
<defs>
<clipPath id="clip0_301_506">
<rect width="513" height="342" fill="white" transform="translate(0 0.993652)"/>
</clipPath>
</defs>
</svg>
