<svg width="513" height="343" viewBox="0 0 513 343" fill="none" xmlns="http://www.w3.org/2000/svg">
<g clip-path="url(#clip0_301_454)">
<path d="M0 0.994629H513V342.987H0V0.994629Z" fill="white"/>
<path d="M0 0.994629H513V114.992H0V0.994629Z" fill="#D80027"/>
<path d="M0 228.99H513V342.987H0V228.99Z" fill="#0052B4"/>
<path d="M290.145 132.652L277.528 145.269C282.909 150.651 286.238 158.086 286.238 166.298C286.238 182.722 272.923 196.036 256.5 196.036C240.076 196.036 226.762 182.721 226.762 166.298C226.762 158.087 230.091 150.651 235.472 145.269L222.856 132.652C214.245 141.263 208.918 153.158 208.918 166.297C208.918 192.576 230.221 213.879 256.5 213.879C282.779 213.879 304.082 192.576 304.082 166.297C304.082 153.159 298.756 141.263 290.145 132.652Z" fill="#6DA544"/>
<path d="M256.5 148.455L260.929 162.087H275.261L263.666 170.511L268.095 184.142L256.5 175.717L244.904 184.142L249.334 170.511L237.738 162.087H252.07L256.5 148.455Z" fill="#FFDA44"/>
</g>
<defs>
<clipPath id="clip0_301_454">
<rect width="513" height="342" fill="white" transform="translate(0 0.990723)"/>
</clipPath>
</defs>
</svg>
