<svg width="513" height="343" viewBox="0 0 513 343" fill="none" xmlns="http://www.w3.org/2000/svg">
<g clip-path="url(#clip0_301_424)">
<path d="M0 0.987305H513V342.991H0V0.987305Z" fill="#338AF3"/>
<path d="M0 171.983H513V253.762H0V171.983Z" fill="#FFDA44"/>
<path d="M0 253.763H513V342.98H0V253.763Z" fill="#496E2D"/>
<path d="M278.805 101.06L299.689 110.883L288.569 131.109L311.245 126.77L314.119 149.68L329.914 132.831L345.711 149.68L348.584 126.77L371.261 131.109L360.14 110.883L381.024 101.06L360.139 91.236L371.261 71.0116L348.584 75.3491L345.71 52.4404L329.914 69.2893L314.118 52.4404L311.245 75.3491L288.567 71.0116L299.688 91.2381L278.805 101.06Z" fill="#FFDA44"/>
</g>
<defs>
<clipPath id="clip0_301_424">
<rect width="513" height="342" fill="white" transform="translate(0 0.989258)"/>
</clipPath>
</defs>
</svg>
