<svg width="513" height="343" viewBox="0 0 513 343" fill="none" xmlns="http://www.w3.org/2000/svg">
<g clip-path="url(#clip0_301_418)">
<path d="M0 0.994141H513V342.994H0V0.994141Z" fill="#055E1C"/>
<path d="M183.906 205.446C183.906 217.765 193.656 227.75 205.685 227.75H271.02C271.02 238.014 279.146 246.337 289.17 246.337H310.948C320.972 246.337 329.098 238.015 329.098 227.75V205.446H183.906ZM330.909 97.6405V149.684C330.909 157.883 324.396 164.553 316.39 164.553V186.857C336.405 186.857 352.686 170.182 352.686 149.684V97.6405H330.909ZM174.832 149.685C174.832 157.884 168.319 164.554 160.312 164.554V186.858C180.328 186.858 196.609 170.183 196.609 149.685V97.6415H174.831V149.685H174.832Z" fill="white"/>
<path d="M298.242 97.6375H320.02V149.681H298.242V97.6375ZM265.574 127.381C265.574 129.43 263.946 131.098 261.944 131.098C259.942 131.098 258.314 129.43 258.314 127.381V97.6405H236.536V127.381C236.536 129.43 234.907 131.098 232.906 131.098C230.904 131.098 229.276 129.43 229.276 127.381V97.6405H207.497V127.381C207.497 141.728 218.895 153.402 232.905 153.402C238.3 153.402 243.305 151.666 247.424 148.716C251.542 151.666 256.548 153.402 261.943 153.402C263.029 153.402 264.097 153.324 265.149 153.187C263.606 159.698 257.88 164.554 251.054 164.554V186.858C271.069 186.858 287.351 170.183 287.351 149.685V97.6405H265.572L265.574 127.381Z" fill="white"/>
<path d="M207.497 164.55H240.162V186.854H207.497V164.55Z" fill="white"/>
</g>
<defs>
<clipPath id="clip0_301_418">
<rect width="513" height="342" fill="white" transform="translate(0 0.994141)"/>
</clipPath>
</defs>
</svg>
