<svg width="513" height="343" viewBox="0 0 513 343" fill="none" xmlns="http://www.w3.org/2000/svg">
<g clip-path="url(#clip0_301_412)">
<path d="M0 0.994629H513V342.998H0V0.994629Z" fill="#496E2D"/>
<path d="M0 342.99V0.989624H513" fill="#0052B4"/>
<path d="M0 312.762V342.99H45.3434L513 31.2185V0.989624H467.657L0 312.762Z" fill="#FFDA44"/>
<path d="M85.8554 24.4934L90.9854 40.2802H107.584L94.1545 50.0362L99.2845 65.824L85.8554 56.0669L72.4242 65.824L77.5542 50.0362L64.125 40.2802H80.7244L85.8554 24.4934ZM170.645 24.4934L175.776 40.2802H192.375L178.946 50.0362L184.076 65.824L170.645 56.0669L157.215 65.824L162.345 50.0362L148.916 40.2802H165.515L170.645 24.4934ZM85.8554 107.157L90.9854 122.943H107.584L94.1545 132.7L99.2845 148.488L85.8554 138.73L72.4242 148.488L77.5542 132.7L64.125 122.943H80.7244L85.8554 107.157ZM170.645 107.157L175.776 122.943H192.375L178.946 132.7L184.076 148.488L170.645 138.73L157.215 148.488L162.345 132.7L148.916 122.943H165.515L170.645 107.157ZM128.25 65.824L133.38 81.6107H149.98L136.549 91.3678L141.679 107.157L128.25 97.3985L114.821 107.157L119.951 91.3678L106.52 81.6107H123.12L128.25 65.824Z" fill="white"/>
</g>
<defs>
<clipPath id="clip0_301_412">
<rect width="513" height="342" fill="white" transform="translate(0 0.993652)"/>
</clipPath>
</defs>
</svg>
