<svg width="513" height="343" viewBox="0 0 513 343" fill="none" xmlns="http://www.w3.org/2000/svg">
<g clip-path="url(#clip0_301_376)">
<path d="M0 0.992676H513V342.959H0V0.992676Z" fill="#0052B4"/>
<path d="M256.5 0.992676V118.622H210.31L256.5 149.382V172.026H233.856L160.312 123.031V172.026H96.1875V123.031L22.6441 172.026H0V149.382L46.19 118.622H0V54.497H46.19L0 23.737V0.992676H22.6441L96.1875 49.9882V0.992676H160.312V49.9882L233.856 0.992676H256.5Z" fill="white"/>
<path d="M144.281 0.992676H112.219V70.5282H0V102.591H112.219V172.026H144.281V102.591H256.5V70.5282H144.281V0.992676Z" fill="#D80027"/>
<path d="M0 0.992676V16.1222L57.5121 54.497H80.1562L0 0.992676ZM256.5 0.992676V16.1222L198.988 54.497H176.344L256.5 0.992676Z" fill="#D80027"/>
<path d="M256.5 23.7371V54.497H210.31L256.5 23.7371Z" fill="#2E52B2"/>
<path d="M0 0.992676V16.1222L57.5121 54.497H80.1562L0 0.992676ZM256.5 0.992676V16.1222L198.988 54.497H176.344L256.5 0.992676Z" fill="#D80027"/>
<path d="M256.5 23.7371V54.497H210.31L256.5 23.7371Z" fill="#2E52B2"/>
<path d="M0 172.026V156.897L57.5121 118.622H80.1562L0 172.026ZM256.5 172.026V156.897L198.988 118.622H176.344L256.5 172.026Z" fill="#D80027"/>
<path d="M449.877 140.966C449.777 185.452 442.663 233.245 384.75 256.09C326.837 233.245 319.723 185.452 319.623 140.966H449.877Z" fill="#29DBFF"/>
<path d="M449.877 140.966C449.877 124.233 448.975 108.001 449.376 93.7735C427.734 84.1548 399.178 82.1509 384.65 82.1509C370.122 82.1509 341.666 84.1548 319.924 93.7735C320.325 108.001 319.423 124.233 319.423 140.966H449.877Z" fill="#FFDA44"/>
<path d="M370.221 205.892L370.522 216.212L357.697 216.413L362.607 229.638H345.273C327.238 209.399 321.827 187.156 320.324 161.405L329.442 151.687L337.758 166.014L348.579 153.189L355.593 161.005L356.395 176.735L370.221 205.892Z" fill="#BF521B"/>
<path d="M437.453 193.869L428.836 212.204H381.744L352.487 192.666L378.238 203.187H403.387L407.094 196.674L414.308 196.874L416.312 193.869H437.453Z" fill="#474747"/>
</g>
<defs>
<clipPath id="clip0_301_376">
<rect width="513" height="341.967" fill="white" transform="translate(0 0.992676)"/>
</clipPath>
</defs>
</svg>
