<svg width="513" height="343" viewBox="0 0 513 343" fill="none" xmlns="http://www.w3.org/2000/svg">
<g clip-path="url(#clip0_301_295)">
<path d="M0 0.957764H513V342.961H0V0.957764Z" fill="white"/>
<path d="M0 0.957764H513V114.955H0V0.957764Z" fill="#D80027"/>
<path d="M0 228.953H513V342.95H0V228.953Z" fill="black"/>
<path d="M187.676 131.064L196.902 159.461H226.762L202.605 177.013L211.832 205.41L187.676 187.86L163.519 205.41L172.746 177.013L148.59 159.461H178.449L187.676 131.064ZM325.324 131.064L334.551 159.461H364.411L340.254 177.013L349.481 205.41L325.324 187.86L301.168 205.41L310.395 177.013L286.238 159.461H316.098L325.324 131.064Z" fill="#6DA544"/>
</g>
<defs>
<clipPath id="clip0_301_295">
<rect width="513" height="342" fill="white" transform="translate(0 0.959717)"/>
</clipPath>
</defs>
</svg>
