<svg width="513" height="343" viewBox="0 0 513 343" fill="none" xmlns="http://www.w3.org/2000/svg">
<g clip-path="url(#clip0_301_287)">
<path d="M0 0.994141H513V342.994H0V0.994141Z" fill="#2B5DEA"/>
<path d="M0 57.9941H513V285.994H0V57.9941Z" fill="#FFDF29"/>
<path d="M0 86.4941H513V257.494H0V86.4941Z" fill="#D70000"/>
<path d="M256.5 98.6922V245.296C321.651 245.296 354.198 196.447 378.651 171.994C354.198 147.541 321.651 98.6922 256.5 98.6922Z" fill="white"/>
<path d="M256.5 98.6922C199.5 98.6922 158.802 147.541 134.349 171.994C158.802 196.447 199.5 245.296 256.5 245.296V98.6922Z" fill="black"/>
<path d="M197.391 145.945H209.361V197.986H197.391V145.945ZM226.974 145.945H238.944V197.986H226.974V145.945Z" fill="white"/>
<path d="M272.346 145.945H284.316V197.986H272.346V145.945ZM301.929 145.945H313.899V197.986H301.929V145.945Z" fill="black"/>
</g>
<defs>
<clipPath id="clip0_301_287">
<rect width="513" height="342" fill="white" transform="translate(0 0.994141)"/>
</clipPath>
</defs>
</svg>
