<svg width="513" height="343" viewBox="0 0 513 343" fill="none" xmlns="http://www.w3.org/2000/svg">
<g clip-path="url(#clip0_301_193)">
<path d="M0 0.998169H513V342.991H0V0.998169Z" fill="#496E2D"/>
<path d="M357.906 99.5322C366.319 76.0825 356.868 50.5788 336.583 37.8761C340.302 38.3574 343.958 39.2379 347.488 40.5022C374.543 50.2091 388.607 80.0072 378.9 107.063C369.193 134.119 339.395 148.181 312.339 138.474C308.81 137.206 305.428 135.562 302.25 133.57C325.983 136.66 349.492 122.983 357.906 99.5322ZM311.244 31.4495L303.933 40.8949L292.691 36.8611L299.416 46.7323L292.105 56.1777L303.571 52.8332L310.296 62.7045L310.658 50.7672L322.124 47.4217L310.881 43.3888L311.244 31.4495Z" fill="white"/>
<path d="M330.983 62.2285L323.673 71.6739L312.43 67.6401L319.155 77.5113L311.845 86.9567L323.31 83.6112L330.035 93.4835L330.396 81.5452L341.863 78.1987L330.621 74.1668L330.983 62.2285ZM276.439 42.6584L269.129 52.1038L257.888 48.0719L264.612 57.9422L257.302 67.3866L268.767 64.0421L275.492 73.9133L275.854 61.975L287.32 58.6315L276.077 54.5967L276.439 42.6584ZM275.638 77.9161L268.328 87.3615L257.085 83.3277L263.81 93.1989L256.5 102.644L267.966 99.2998L274.69 109.171L275.053 97.2328L286.519 93.8883L275.277 89.8544L275.638 77.9161ZM309.188 89.9526L301.877 99.398L290.636 95.3641L297.361 105.236L290.049 114.681L301.516 111.336L308.241 121.207L308.602 109.269L320.067 105.925L308.826 101.892L309.188 89.9526Z" fill="white"/>
<path d="M83.6406 0.998169H172.858V342.991H83.6406V0.998169Z" fill="#D80027"/>
<path d="M117.687 91.0276L102.75 79.9009V64.1653L117.687 53.0386H138.812L153.749 64.1653V79.9009L138.812 91.0276H117.687Z" fill="white"/>
<path d="M128.25 53.0386H117.687L102.75 64.1653V71.8583H128.25V53.0386ZM128.25 91.0276H138.812L153.749 79.9009V71.8733H128.25V91.0276Z" fill="#FF9811"/>
<path d="M117.687 290.951L102.75 279.824V264.089L117.687 252.962H138.812L153.749 264.089V279.824L138.812 290.951H117.687Z" fill="white"/>
<path d="M128.25 252.962H117.687L102.75 264.089V271.782H128.25V252.962ZM128.25 290.951H138.812L153.749 279.824V271.797H128.25V290.951Z" fill="#FF9811"/>
<path d="M117.688 190.989L102.751 179.862V164.128L117.688 153H138.813L153.75 164.128V179.862L138.813 190.989H117.688ZM154.272 215.47H147.766V208.965H136.333L128.249 200.881L120.166 208.965H108.734V215.47H102.229V228.482H108.734V234.986H120.166L128.25 243.071L136.334 234.986H147.766V228.482H154.272V215.47ZM154.272 115.507H147.766V109.003H136.333L128.249 100.918L120.166 109.003H108.734V115.507H102.229V128.519H108.734V135.023H120.166L128.25 143.109L136.334 135.023H147.766V128.519H154.272V115.507Z" fill="#496E2D"/>
<path d="M120.812 164.556H135.681V179.425H120.812V164.556Z" fill="#D80027"/>
<path d="M128.25 129.446C132.356 129.446 135.685 126.117 135.685 122.01C135.685 117.904 132.356 114.575 128.25 114.575C124.143 114.575 120.814 117.904 120.814 122.01C120.814 126.117 124.143 129.446 128.25 129.446Z" fill="#D80027"/>
<path d="M128.25 229.414C132.356 229.414 135.685 226.085 135.685 221.979C135.685 217.872 132.356 214.543 128.25 214.543C124.143 214.543 120.814 217.872 120.814 221.979C120.814 226.085 124.143 229.414 128.25 229.414Z" fill="#D80027"/>
</g>
<defs>
<clipPath id="clip0_301_193">
<rect width="513" height="342" fill="white" transform="translate(0 0.994141)"/>
</clipPath>
</defs>
</svg>
