<svg width="513" height="343" viewBox="0 0 513 343" fill="none" xmlns="http://www.w3.org/2000/svg">
<g clip-path="url(#clip0_301_50)">
<path d="M0 0.955078H513V342.955H0V0.955078Z" fill="#ED2939"/>
<path d="M0 0.955078H68.4V152.564H0V0.955078Z" fill="#002395"/>
<path d="M68.4004 0.955078H136.8V152.564H68.4004V0.955078Z" fill="white"/>
<path fill-rule="evenodd" clip-rule="evenodd" d="M216.105 0.955078V154.064H0V151.064H213.105V0.955078H216.105Z" fill="white"/>
<path d="M369.634 149.007L300.823 80.1963H438.478L369.634 149.007ZM346.72 171.955L277.875 103.144V240.8L346.72 171.955ZM369.634 194.903L300.823 263.714H438.478L369.634 194.903ZM392.582 171.955L461.426 103.11V240.765L392.582 171.955Z" fill="white"/>
</g>
<defs>
<clipPath id="clip0_301_50">
<rect width="513" height="342" fill="white" transform="translate(0 0.955078)"/>
</clipPath>
</defs>
</svg>
