<svg width="15" height="15" viewBox="0 0 15 15" fill="none" xmlns="http://www.w3.org/2000/svg">
<path fill-rule="evenodd" clip-rule="evenodd" d="M2.30219 5.81575C3.28175 4.58309 4.97426 3.125 7.49995 3.125C10.0256 3.125 11.7181 4.58309 12.6977 5.81575C13.1789 6.42121 13.4194 6.72395 13.4035 7.44656C13.3875 8.16917 13.1165 8.48086 12.5745 9.10424C11.4889 10.3529 9.71187 11.875 7.49995 11.875C5.28804 11.875 3.51102 10.3529 2.42541 9.10424C1.88342 8.48086 1.61242 8.16917 1.59645 7.44656C1.58048 6.72395 1.82105 6.42122 2.30219 5.81575L2.30219 5.81575ZM7.49995 10C8.88066 10 9.99995 8.88071 9.99995 7.5C9.99995 6.11929 8.88066 5 7.49995 5C6.11924 5 4.99995 6.11929 4.99995 7.5C4.99995 8.88071 6.11924 10 7.49995 10Z" fill="#65451F"/>
</svg>
