<svg width="24" height="24" viewBox="0 0 24 24" fill="none" xmlns="http://www.w3.org/2000/svg">
<path fill-rule="evenodd" clip-rule="evenodd" d="M9.93917 12.6464L7.69193 11.8973L7.69192 11.8973L7.69192 11.8973C5.33871 11.1129 4.16211 10.7207 4.16211 9.99997C4.16211 9.27921 5.33872 8.88701 7.69193 8.10261L16.2051 5.26488C17.8609 4.71295 18.6888 4.43699 19.1258 4.87401C19.5628 5.31102 19.2869 6.13892 18.7349 7.79471L15.8972 16.3079L15.8972 16.3079L15.8972 16.3079C15.1128 18.6611 14.7206 19.8377 13.9998 19.8377C13.2791 19.8377 12.8869 18.6611 12.1025 16.3079L11.3534 14.0606L15.7069 9.70708C16.0975 9.31656 16.0975 8.68339 15.7069 8.29287C15.3164 7.90234 14.6832 7.90234 14.2927 8.29287L9.93917 12.6464Z" fill="#65451F"/>
</svg>
