<svg width="48" height="48" viewBox="0 0 48 48" fill="none" xmlns="http://www.w3.org/2000/svg">
<path fill-rule="evenodd" clip-rule="evenodd" d="M6.87868 14.8787C6 15.7574 6 17.1716 6 20V36C6 39.7712 6 41.6569 7.17157 42.8284C8.34315 44 10.2288 44 14 44H34C37.7712 44 39.6569 44 40.8284 42.8284C42 41.6569 42 39.7712 42 36V20C42 17.1716 42 15.7574 41.1213 14.8787C40.2426 14 38.8284 14 36 14H12C9.17157 14 7.75736 14 6.87868 14.8787ZM24 32C26.2091 32 28 30.2091 28 28C28 25.7909 26.2091 24 24 24C21.7909 24 20 25.7909 20 28C20 30.2091 21.7909 32 24 32ZM30 28C30 30.973 27.8377 33.441 25 33.917V38H23V33.917C20.1623 33.441 18 30.973 18 28C18 24.6863 20.6863 22 24 22C27.3137 22 30 24.6863 30 28Z" fill="#65451F"/>
<path d="M33 15.9996V15.9996C33.6087 12.3472 32.0215 8.67684 28.9434 6.6187L28.1959 6.11892C24.1468 3.41157 18.7874 3.74526 15.1054 6.93398L13.3398 8.46299" stroke="#65451F" stroke-width="2" stroke-linecap="round"/>
</svg>
