<svg width="513" height="343" viewBox="0 0 513 343" fill="none" xmlns="http://www.w3.org/2000/svg">
<g clip-path="url(#clip0_301_1711)">
<path d="M0 0.994141H513V342.994H0V0.994141Z" fill="#0052B4"/>
<path d="M440.1 182.094C440 221.294 433.7 263.494 382.7 283.594C331.6 263.494 325.4 221.294 325.3 182.094H440.1Z" fill="white"/>
<path d="M439.6 198.694C436.8 233.594 427.2 266.094 382.6 283.694C338.2 266.094 328.1 232.494 325.7 198.794" fill="#29DBFF"/>
<path d="M437.8 215.094C434.6 239.394 421.1 268.594 382.7 283.694C344.3 268.594 332.2 241.194 327.6 215.294" fill="white"/>
<path d="M434.2 231.294C428.5 248.994 414.9 270.694 382.9 284.094C350.9 271.494 337.7 250.294 331.5 231.094" fill="#29DBFF"/>
<path d="M426.7 247.894C420.2 259.194 409 273.294 382.7 283.794C355.2 272.294 345.3 258.494 338.7 247.694" fill="white"/>
<path d="M412.4 266.094C404.3 273.294 400.4 277.294 382.8 283.994C362.7 276.094 360.2 272.394 353.6 266.494" fill="#29DBFF"/>
<path d="M383.3 232.594C383.1 232.394 355.4 268.294 355.4 268.294C353.6 266.994 345.4 258.794 342.1 253.294L383.4 203.194L423.6 252.894C419.7 259.394 412.2 266.494 410.4 267.894L383.3 232.594ZM382.6 86.2941L356.1 131.294H409.1L382.6 86.2941Z" fill="#5CC85C"/>
<path d="M306.999 228.816C310.603 202.163 306.559 179.614 297.966 178.452C289.373 177.29 279.486 197.955 275.882 224.609C272.279 251.263 276.323 273.812 284.916 274.974C293.508 276.135 303.395 255.47 306.999 228.816Z" fill="#F7A226"/>
<path d="M309.8 168.349C312.21 162.354 311.173 156.291 307.484 154.808C303.794 153.324 298.85 156.982 296.439 162.978C294.029 168.973 295.066 175.036 298.756 176.519C302.445 178.002 307.39 174.344 309.8 168.349Z" fill="#DDC7AB"/>
<path d="M294.966 273.163C295.871 266.932 295.142 261.669 293.339 261.407C291.535 261.145 289.339 265.984 288.435 272.214C287.53 278.445 288.259 283.708 290.062 283.97C291.866 284.232 294.061 279.394 294.966 273.163Z" fill="#DDC7AB"/>
<path d="M300.198 281.388C302.018 281.29 303.23 276.293 302.905 270.227C302.58 264.16 300.841 259.321 299.021 259.419C297.201 259.516 295.989 264.513 296.314 270.58C296.639 276.647 298.378 281.486 300.198 281.388Z" fill="#DDC7AB"/>
<path d="M319.542 214.851C321.649 214.021 321.107 207.641 318.332 200.602C315.556 193.563 311.599 188.53 309.492 189.361C307.386 190.191 307.928 196.571 310.703 203.61C313.478 210.649 317.436 215.682 319.542 214.851Z" fill="#DDC7AB"/>
<path d="M319.013 182.911C326.052 180.136 331.085 176.178 330.254 174.071C329.424 171.965 323.044 172.507 316.005 175.282C308.966 178.058 303.934 182.015 304.764 184.122C305.595 186.228 311.974 185.686 319.013 182.911Z" fill="#DDC7AB"/>
<path d="M480.133 275.179C488.725 274.017 492.77 251.468 489.166 224.814C485.562 198.161 475.675 177.495 467.082 178.657C458.49 179.819 454.445 202.368 458.049 229.022C461.653 255.675 471.54 276.341 480.133 275.179Z" fill="#F7A226"/>
<path d="M466.381 176.769C470.07 175.285 471.107 169.223 468.697 163.227C466.287 157.232 461.342 153.574 457.653 155.057C453.963 156.541 452.926 162.603 455.336 168.599C457.747 174.594 462.692 178.252 466.381 176.769Z" fill="#DDC7AB"/>
<path d="M475.037 284.157C476.841 283.895 477.569 278.631 476.663 272.401C475.758 266.17 473.561 261.332 471.758 261.594C469.954 261.856 469.226 267.12 470.132 273.35C471.037 279.581 473.234 284.419 475.037 284.157Z" fill="#DDC7AB"/>
<path d="M468.776 270.752C469.101 264.686 467.89 259.688 466.07 259.591C464.25 259.493 462.511 264.332 462.185 270.399C461.86 276.466 463.072 281.463 464.892 281.56C466.712 281.658 468.451 276.819 468.776 270.752Z" fill="#DDC7AB"/>
<path d="M454.34 203.683C457.115 196.644 457.657 190.265 455.551 189.434C453.444 188.604 449.487 193.636 446.712 200.675C443.936 207.714 443.394 214.094 445.501 214.924C447.607 215.755 451.565 210.722 454.34 203.683Z" fill="#DDC7AB"/>
<path d="M460.365 184.278C461.196 182.172 456.163 178.214 449.124 175.439C442.085 172.664 435.705 172.122 434.875 174.228C434.044 176.335 439.077 180.292 446.116 183.068C453.155 185.843 459.534 186.385 460.365 184.278Z" fill="#DDC7AB"/>
<path d="M373.3 131.294L356.1 155.994L373.9 182.094H396L400.7 156.694L395.3 131.294H373.3Z" fill="#B0C6CC"/>
<path d="M256 0.994141V118.394H209.9L256 149.094V171.694H233.4L160 122.794V171.694H96V122.794L22.6 171.694H0V149.094L46.1 118.394H0V54.3941H46.1L0 23.6941V0.994141H22.6L96 49.8941V0.994141H160V49.8941L233.4 0.994141H256Z" fill="white"/>
<path d="M144 0.994141H112V70.3941H0V102.394H112V171.694H144V102.394H256V70.3941H144V0.994141Z" fill="#D80027"/>
<path d="M256 23.6942V54.3942H209.9L256 23.6942Z" fill="#2E52B2"/>
<path d="M0 171.694V160.694L62.5 118.394H85.1L7.3 171.694H0Z" fill="#D80027"/>
<path d="M7.3 1.09412L85.1 54.2941H62.5L0 12.0941V1.09412H7.3ZM256 1.09412V12.0941L193.5 54.3941H170.9L248.7 1.09412H256ZM248.7 171.694L170.9 118.394H193.5L256 160.694V171.694H248.7Z" fill="#D80027"/>
</g>
<defs>
<clipPath id="clip0_301_1711">
<rect width="513" height="342" fill="white" transform="translate(0 0.994141)"/>
</clipPath>
</defs>
</svg>
