<svg width="513" height="343" viewBox="0 0 513 343" fill="none" xmlns="http://www.w3.org/2000/svg">
<g clip-path="url(#clip0_301_1687)">
<path d="M0 0.994141H513V342.994H0V0.994141Z" fill="#DB3E00"/>
<path d="M331 0.994141H513V342.994H331V0.994141Z" fill="#479900"/>
<path d="M0 0.994141H181.8V342.994H0V0.994141Z" fill="black"/>
<path d="M256 127.694C236.6 127.694 220.8 143.494 220.8 162.894V215.694H291.2V162.894C291.2 143.394 275.4 127.694 256 127.694Z" fill="white"/>
<path d="M256 85.2942C208.3 85.2942 169.6 123.994 169.6 171.694C169.6 219.394 208.3 257.994 256 257.994C303.7 257.994 342.4 219.294 342.4 171.594C342.4 123.894 303.7 85.2942 256 85.2942ZM256 242.994C216.6 242.994 184.6 210.994 184.6 171.594C184.6 132.194 216.6 100.194 256 100.194C295.4 100.194 327.4 132.194 327.4 171.594C327.4 211.094 295.4 242.994 256 242.994Z" fill="white"/>
</g>
<defs>
<clipPath id="clip0_301_1687">
<rect width="513" height="342" fill="white" transform="translate(0 0.994141)"/>
</clipPath>
</defs>
</svg>
