<svg width="513" height="343" viewBox="0 0 513 343" fill="none" xmlns="http://www.w3.org/2000/svg">
<g clip-path="url(#clip0_301_1661)">
<path d="M0 0.994141H513V342.994H0V0.994141Z" fill="#ED2024"/>
<path d="M185.25 70.5334V161.733L225.72 175.983L197.22 203.913L210.9 221.013L241.11 189.663L247.95 202.773L230.85 230.703L251.37 262.623L241.11 277.443L257.07 297.963L272.46 276.873L263.91 262.053L281.01 228.993L265.62 202.773L272.46 189.663L302.1 221.013L316.35 204.483L286.71 175.413L327.75 160.593V70.5334L298.11 81.3634L297.54 103.023L278.73 104.733V89.9134L288.42 76.8034L320.34 64.2634L307.23 61.9834L315.21 55.1434L320.34 57.4234L315.78 49.4434L307.8 52.2934L302.1 46.0234L270.75 52.2934L278.73 58.5634L257.07 86.4934L235.41 59.1334L242.82 52.8634L214.32 46.0234L206.34 52.2934L197.79 50.0134L193.23 57.9934L198.36 54.5734L207.48 60.8434L194.37 63.6934L225.72 75.0934L234.84 88.2034V104.733L216.03 103.023V82.5034L185.25 70.5334Z" fill="#212121"/>
<path d="M149.34 143.494H185.82V157.744H149.34V143.494ZM149.34 120.124H185.82V135.514H149.34V120.124ZM149.34 96.1838H185.82V111.004H149.34V96.1838ZM149.34 73.3838H185.82V87.6338H149.34V73.3838Z" fill="#212121"/>
<path d="M327.18 143.494H363.66V157.744H327.18V143.494ZM327.18 120.124H363.66V135.514H327.18V120.124ZM327.18 96.1838H363.66V111.004H327.18V96.1838ZM327.18 73.3838H363.66V87.6338H327.18V73.3838Z" fill="#212121"/>
<path d="M304.38 206.765H340.86V217.595H304.38V206.765ZM172.14 206.765H208.62V217.595H172.14V206.765Z" fill="#212121"/>
</g>
<defs>
<clipPath id="clip0_301_1661">
<rect width="513" height="342" fill="white" transform="translate(0 0.994141)"/>
</clipPath>
</defs>
</svg>
