<svg width="513" height="343" viewBox="0 0 513 343" fill="none" xmlns="http://www.w3.org/2000/svg">
<g clip-path="url(#clip0_301_1641)">
<path d="M0 0.994141H512V342.994H0V0.994141Z" fill="white"/>
<path d="M0 0.994141H512V114.994H0V0.994141ZM0 228.994H512V342.994H0V228.994Z" fill="#338AF3"/>
<path d="M256.5 211.994C278.591 211.994 296.5 194.086 296.5 171.994C296.5 149.903 278.591 131.994 256.5 131.994C234.409 131.994 216.5 149.903 216.5 171.994C216.5 194.086 234.409 211.994 256.5 211.994Z" fill="#FFDA44"/>
<path fill-rule="evenodd" clip-rule="evenodd" d="M256.5 134.494C235.789 134.494 219 151.283 219 171.994C219 192.705 235.789 209.494 256.5 209.494C277.211 209.494 294 192.705 294 171.994C294 151.283 277.211 134.494 256.5 134.494ZM214 171.994C214 148.522 233.028 129.494 256.5 129.494C279.972 129.494 299 148.522 299 171.994C299 195.466 279.972 214.494 256.5 214.494C233.028 214.494 214 195.466 214 171.994Z" fill="#D6AB00"/>
</g>
<defs>
<clipPath id="clip0_301_1641">
<rect width="513" height="342" fill="white" transform="translate(0 0.994141)"/>
</clipPath>
</defs>
</svg>
