<svg width="513" height="343" viewBox="0 0 513 343" fill="none" xmlns="http://www.w3.org/2000/svg">
<g clip-path="url(#clip0_301_1634)">
<path d="M0 0.994141H513V342.994H0V0.994141Z" fill="#10338C"/>
<path d="M513 33.9941L95.3 171.994L513 311.754V342.324L0 171.994L513 0.994141V33.9941Z" fill="#D80027"/>
<path d="M513 288.174V312.754L81.72 171.994L513 30.9941V55.1541" fill="white"/>
<path d="M476.98 141.204L455.09 151.884L451.91 136.564L483.1 106.794C483.1 106.794 473.68 66.144 469.35 61.814L357.03 117.634L350.19 154.394L318.29 182.984L317.89 217.184L352.18 194.424L419.41 191.764L417.9 229.874H440.13L452.03 185.234L483.58 160.624L476.98 141.204Z" fill="#A2001D"/>
<path d="M317.89 239.404L295.65 228.294L317.89 217.184H462.35V239.404H317.89Z" fill="#EFC100"/>
<path fill-rule="evenodd" clip-rule="evenodd" d="M317.772 216.684H462.85V239.904H317.772L294.531 228.294L317.772 216.684ZM318.008 217.684L296.769 228.294L318.008 238.904H461.85V217.684H318.008Z" fill="#231F20"/>
</g>
<defs>
<clipPath id="clip0_301_1634">
<rect width="513" height="342" fill="white" transform="translate(0 0.994141)"/>
</clipPath>
</defs>
</svg>
