<svg width="513" height="343" viewBox="0 0 513 343" fill="none" xmlns="http://www.w3.org/2000/svg">
<g clip-path="url(#clip0_301_1582)">
<path d="M0 0.994141H513V342.994H0V0.994141Z" fill="#FFC726"/>
<path d="M0 0.994141H171V342.994H0V0.994141ZM342 0.994141H513V342.994H342V0.994141Z" fill="#00267F"/>
<path d="M325.74 102.014L293.77 114.414C293.09 115.764 287.98 121.954 285.59 167.474H268.54V107.054L256 79.6742L243.46 106.674V167.474H226.4C224.01 121.944 218.6 114.994 217.93 113.634L186.25 102.004C186.4 102.314 201.65 133.344 201.65 180.014V192.554H243.46V263.624H268.54V192.554H310.35V180.014C310.35 155.884 314.52 135.994 318.03 123.554C321.85 109.984 325.73 102.064 325.77 101.984L325.74 102.014Z" fill="black"/>
</g>
<defs>
<clipPath id="clip0_301_1582">
<rect width="513" height="342" fill="white" transform="translate(0 0.994141)"/>
</clipPath>
</defs>
</svg>
