<svg width="513" height="343" viewBox="0 0 513 343" fill="none" xmlns="http://www.w3.org/2000/svg">
<g clip-path="url(#clip0_301_1538)">
<path d="M0 0.960938H513V342.958H0V0.960938Z" fill="white"/>
<path d="M157.617 201.111C157.617 201.111 148.56 245.127 138.27 241.58C127.629 238.033 120.705 222.783 120.705 222.783L106.157 244.065C106.157 244.065 144.412 252.561 147.247 249.545C148.469 248.403 155.473 234.416 157.607 223.444V201.111H157.617ZM101.378 261.799C101.378 261.799 98.8928 282.019 100.316 284.504C101.558 286.808 139.873 295.856 139.873 295.856C139.873 295.856 114.864 312.348 110.075 316.436L91.9793 286.457L91.2679 261.799H101.378ZM112.73 95.7856C112.73 95.7856 152.457 137.467 153.169 141.375C153.88 145.102 148.91 144.571 148.91 144.571C148.91 144.571 104.033 106.967 98.8928 103.421C93.5724 99.8636 112.73 95.7856 112.73 95.7856Z" fill="#E6BC00"/>
<path d="M99.6042 105.895C99.6042 105.895 116.627 105.184 116.277 94.363C115.926 83.7222 105.105 79.4639 97.1193 81.9488C89.1338 84.2533 74.0644 95.425 83.4627 117.067C92.861 138.529 106.878 146.515 109.714 164.961C109.714 164.961 104.243 174.84 90.5565 165.311C73.6235 153.518 84.3444 126.997 80.0961 120.263C75.8378 113.17 39.0662 81.2675 39.0662 81.2675C39.0662 81.2675 8.7671 120.714 21.031 156.334C38.0141 205.64 72.8721 188.376 85.7672 193.166C85.7672 193.166 43.5549 255.247 36.1004 260.387C36.1004 260.387 60.2274 268.723 83.9937 241.59C83.9937 241.59 89.8451 251.349 91.0876 261.809H101.378C106.167 235.558 152.988 197.424 151.395 179.329C149.622 158.037 102.089 129.842 99.6042 105.895Z" fill="#ADADAD"/>
<path d="M359.872 202.624C359.872 202.624 368.849 245.137 379.139 241.59C389.78 238.043 396.703 222.793 396.703 222.793L411.252 244.075C411.252 244.075 374.179 252.571 371.344 249.555C370.132 248.413 362.006 235.738 359.801 224.847L359.872 202.624ZM416.031 261.799C416.031 261.799 418.516 282.019 417.093 284.504C415.851 286.808 377.536 295.856 377.536 295.856C377.536 295.856 402.545 312.348 407.334 316.436L425.429 286.457L426.141 261.799H416.031ZM404.679 95.7856C404.679 95.7856 364.951 137.467 364.24 141.375C363.529 145.102 368.498 144.571 368.498 144.571C368.498 144.571 413.376 106.967 418.516 103.421C423.666 99.8636 404.679 95.7856 404.679 95.7856Z" fill="#E6BC00"/>
<path d="M157.617 88.1909H359.801V233.935C359.801 250.026 350.092 255.367 337.849 265.847L291.839 305.334C273.553 320.985 243.835 320.935 225.64 305.334L179.54 265.827C167.436 255.457 157.617 250.086 157.617 233.945V88.1909Z" fill="#125ECC"/>
<path d="M200.942 148.959C192.966 148.959 186.504 142.497 186.504 134.521C186.504 126.546 192.966 120.083 200.942 120.083C208.917 120.083 215.38 126.546 215.38 134.521C215.38 142.497 208.917 148.959 200.942 148.959ZM258.704 145.953C250.729 145.953 244.266 139.491 244.266 131.515C244.266 123.54 250.729 117.077 258.704 117.077C266.68 117.077 273.142 123.54 273.142 131.515C273.142 139.491 266.68 145.953 258.704 145.953ZM316.467 148.959C308.491 148.959 302.029 142.497 302.029 134.521C302.029 126.546 308.491 120.083 316.467 120.083C324.442 120.083 330.905 126.546 330.905 134.521C330.905 142.497 324.442 148.959 316.467 148.959ZM215.38 275.927C207.404 275.927 200.942 269.464 200.942 261.489C200.942 253.513 207.404 247.05 215.38 247.05C223.355 247.05 229.818 253.513 229.818 261.489C229.828 269.464 223.355 275.927 215.38 275.927ZM258.704 290.375C250.729 290.375 244.266 283.912 244.266 275.937C244.266 267.961 250.729 261.499 258.704 261.499C266.68 261.499 273.142 267.961 273.142 275.937C273.142 283.902 266.68 290.375 258.704 290.375ZM302.029 275.927C294.053 275.927 287.591 269.464 287.591 261.489C287.591 253.513 294.053 247.05 302.029 247.05C310.004 247.05 316.467 253.513 316.467 261.489C316.467 269.464 310.004 275.927 302.029 275.927Z" fill="#FFE600"/>
<path d="M157.617 176.664H359.801V234.426H157.617V176.664Z" fill="#D60537"/>
<path d="M143.179 44.8664C143.179 44.8664 200.942 30.4282 258.714 30.4282C316.487 30.4282 374.249 44.8664 374.249 44.8664L359.811 102.629C359.811 102.629 309.263 88.1908 258.724 88.1908C208.186 88.1908 157.637 102.629 157.637 102.629L143.179 44.8664Z" fill="#EACE00"/>
<path d="M258.704 73.7528C250.729 73.7528 244.266 67.2902 244.266 59.3146C244.266 51.3391 250.729 44.8765 258.704 44.8765C266.68 44.8765 273.142 51.3391 273.142 59.3146C273.142 67.2902 266.68 73.7528 258.704 73.7528ZM316.467 78.7625C308.491 78.7625 302.029 72.2999 302.029 64.3244C302.029 56.3488 308.491 49.8862 316.467 49.8862C324.442 49.8862 330.905 56.3488 330.905 64.3244C330.905 72.2999 324.442 78.7625 316.467 78.7625ZM200.942 78.7625C192.966 78.7625 186.504 72.2999 186.504 64.3244C186.504 56.3488 192.966 49.8862 200.942 49.8862C208.917 49.8862 215.38 56.3488 215.38 64.3244C215.38 72.2999 208.917 78.7625 200.942 78.7625Z" fill="#7A6920"/>
<path d="M365.793 179.329C364.2 197.424 411.021 235.558 415.811 261.809H426.101C427.343 251.349 433.194 241.59 433.194 241.59C456.961 268.733 481.088 260.387 481.088 260.387C473.633 255.247 431.421 193.166 431.421 193.166C444.326 188.376 479.184 205.64 496.157 156.334C508.421 120.714 478.122 81.2675 478.122 81.2675C478.122 81.2675 441.35 113.17 437.092 120.263C432.834 127.007 443.565 153.528 426.632 165.311C412.945 174.84 407.474 164.961 407.474 164.961C410.31 146.515 424.327 138.529 433.725 117.067C443.124 95.425 428.054 84.2533 420.069 81.9488C412.083 79.4639 401.272 83.7222 400.911 94.363C400.561 105.184 417.584 105.895 417.584 105.895C415.099 129.842 367.566 158.037 365.793 179.329Z" fill="#ADADAD"/>
<path d="M258.704 222.513C268.073 222.513 275.667 214.918 275.667 205.55C275.667 196.182 268.073 188.587 258.704 188.587C249.336 188.587 241.741 196.182 241.741 205.55C241.741 214.918 249.336 222.513 258.704 222.513Z" fill="white"/>
</g>
<defs>
<clipPath id="clip0_301_1538">
<rect width="513" height="341.997" fill="white" transform="translate(0 0.960938)"/>
</clipPath>
</defs>
</svg>
