<svg width="513" height="343" viewBox="0 0 513 343" fill="none" xmlns="http://www.w3.org/2000/svg">
<g clip-path="url(#clip0_301_1516)">
<path d="M0 0.95752H513V342.954H0V0.95752Z" fill="#FFDA44"/>
<path d="M0 195.076L513 322.514V215.636L0 98.2271V195.076Z" fill="black"/>
<path d="M513 235.675V148.836L0 21.4072V108.247" fill="white"/>
<path d="M306.998 135.229C311.001 142.619 313.092 150.892 313.08 159.296C313.08 180.888 299.544 199.314 280.497 206.578V146.952C286.208 145.76 290.516 140.57 290.516 134.337C297.43 134.337 303.041 128.576 303.041 121.462H302.62C309.533 121.462 315.555 115.701 315.555 108.587H280.497V77.687L265.477 49.9229L250.448 77.687V108.587H215.39C215.39 115.701 221.412 121.462 228.325 121.462H227.904C227.904 128.576 233.515 134.337 240.429 134.337C240.429 140.57 244.727 145.76 250.438 146.952V208.442C228.305 203.041 211.883 183.092 211.883 159.296C211.883 150.579 214.087 142.383 217.965 135.229C206.983 146.461 200.21 161.811 200.21 178.754C200.21 213.141 228.085 241.025 262.482 241.025C296.879 241.025 324.753 213.141 324.753 178.754C324.753 161.811 317.97 146.451 306.998 135.229Z" fill="#D80027"/>
<path fill-rule="evenodd" clip-rule="evenodd" d="M265.478 46.771L281.997 77.3072V107.087H317.055V108.587C317.055 115.907 311.384 121.911 304.477 122.838C303.847 129.623 298.604 135.073 291.948 135.764C291.384 141.627 287.377 146.474 281.997 148.114V204.348C299.404 196.796 311.58 179.468 311.58 159.296V159.294C311.592 151.14 309.563 143.113 305.679 135.944L306.998 135.229L308.071 134.18C319.304 145.67 326.253 161.402 326.253 178.754C326.253 213.969 297.707 242.525 262.482 242.525C227.256 242.525 198.71 213.969 198.71 178.754C198.71 161.402 205.649 145.681 216.892 134.18L224.403 126.498L219.284 135.944C215.522 142.884 213.383 150.835 213.383 159.296C213.383 181.715 228.405 200.617 248.938 206.493V148.114C243.558 146.474 239.56 141.626 238.997 135.764C232.341 135.073 227.098 129.623 226.468 122.838C219.561 121.911 213.89 115.907 213.89 108.587V107.087H248.948V77.3069L265.478 46.771ZM228.325 119.962V121.462H229.404C229.404 127.786 234.382 132.837 240.429 132.837H241.929V134.337C241.929 139.874 245.743 144.439 250.745 145.484L251.938 145.733V210.352L250.083 209.899C227.293 204.338 210.383 183.8 210.383 159.296C210.383 153.944 211.19 148.781 212.689 143.923C205.771 153.787 201.71 165.792 201.71 178.754C201.71 212.313 228.913 239.525 262.482 239.525C296.05 239.525 323.253 212.313 323.253 178.754C323.253 165.794 319.187 153.784 312.272 143.922C313.804 148.884 314.588 154.066 314.58 159.298C314.579 181.533 300.639 200.502 281.031 207.98L278.997 208.756V145.733L280.19 145.484C285.194 144.439 289.016 139.872 289.016 134.337V132.837H290.516C296.563 132.837 301.541 127.786 301.541 121.462H302.62V119.962C308.233 119.962 313.185 115.645 313.952 110.087H278.997V78.0666L265.477 53.0745L251.948 78.0668V110.087H216.993C217.76 115.645 222.712 119.962 228.325 119.962Z" fill="#231F20"/>
<path d="M198.848 228.21C198.848 228.21 219.578 255.974 265.477 255.974C311.377 255.974 332.107 228.21 332.107 228.21L345.604 256.636C345.604 256.636 324.533 284.4 265.477 284.4C206.422 284.4 185.351 256.636 185.351 256.636L198.848 228.21ZM129.492 134.397H150.413L175.392 161.711V235.304H149.061V166.801L129.492 134.397ZM400.781 134.397H379.86L354.882 161.711V235.304H381.203V166.801L400.781 134.397Z" fill="#D80027"/>
<path fill-rule="evenodd" clip-rule="evenodd" d="M126.834 132.897H151.074L176.892 161.128V236.804H147.561V167.218L126.834 132.897ZM132.151 135.897L150.561 166.383V233.804H173.892V162.293L149.752 135.897H132.151ZM379.199 132.897H403.44L382.703 167.219V236.804H353.382V161.128L379.199 132.897ZM380.521 135.897L356.382 162.293V233.804H379.703V166.383L398.122 135.897H380.521ZM332.395 225.318L347.35 256.816L346.798 257.543L345.604 256.636C346.798 257.543 346.798 257.543 346.797 257.544L346.795 257.547L346.79 257.554L346.773 257.575C346.76 257.593 346.741 257.617 346.717 257.648C346.668 257.709 346.598 257.795 346.507 257.905C346.324 258.126 346.054 258.442 345.692 258.839C344.968 259.633 343.879 260.753 342.391 262.09C339.414 264.764 334.841 268.303 328.408 271.833C315.532 278.898 295.251 285.9 265.477 285.9C235.704 285.9 215.423 278.898 202.547 271.833C196.114 268.303 191.541 264.764 188.564 262.09C187.076 260.753 185.986 259.633 185.263 258.839C184.901 258.442 184.631 258.126 184.448 257.905C184.356 257.795 184.287 257.709 184.238 257.648C184.224 257.629 184.211 257.613 184.201 257.6C184.193 257.591 184.187 257.582 184.182 257.575L184.165 257.554L184.16 257.547L184.158 257.544C184.157 257.543 184.156 257.543 185.351 256.636L184.156 257.543L183.605 256.816L197.493 227.567L198.848 228.21C200.049 227.313 200.049 227.312 200.049 227.312L200.05 227.313L200.057 227.323C200.061 227.328 200.067 227.336 200.074 227.345C200.08 227.352 200.087 227.362 200.095 227.372C200.117 227.4 200.146 227.438 200.183 227.485C200.206 227.514 200.233 227.547 200.262 227.584C200.414 227.773 200.647 228.057 200.963 228.422C201.594 229.152 202.555 230.206 203.853 231.476C206.45 234.017 210.395 237.419 215.755 240.826C226.466 247.635 242.848 254.474 265.477 254.474C288.107 254.474 304.489 247.635 315.2 240.826C320.56 237.419 324.505 234.017 327.102 231.476C328.4 230.206 329.361 229.152 329.992 228.422C330.308 228.057 330.541 227.773 330.693 227.584C330.769 227.489 330.824 227.418 330.86 227.372C330.878 227.35 330.89 227.333 330.898 227.323L330.905 227.313L330.906 227.312L332.395 225.318ZM331.753 230.962C331.107 231.683 330.257 232.586 329.2 233.621C326.476 236.286 322.369 239.824 316.809 243.358C305.68 250.432 288.747 257.474 265.477 257.474C242.207 257.474 225.275 250.432 214.146 243.358C208.586 239.824 204.479 236.286 201.755 233.621C200.698 232.586 199.848 231.683 199.202 230.962L187.118 256.412C187.224 256.533 187.345 256.669 187.481 256.819C188.14 257.543 189.159 258.592 190.569 259.858C193.388 262.39 197.774 265.792 203.99 269.203C216.413 276.02 236.196 282.9 265.477 282.9C294.759 282.9 314.541 276.02 326.965 269.203C333.181 265.792 337.567 262.39 340.386 259.858C341.796 258.592 342.814 257.543 343.474 256.819C343.61 256.669 343.731 256.533 343.837 256.412L331.753 230.962Z" fill="#231F20"/>
</g>
<defs>
<clipPath id="clip0_301_1516">
<rect width="513" height="341.997" fill="white" transform="translate(0 0.95752)"/>
</clipPath>
</defs>
</svg>
