<svg width="513" height="343" viewBox="0 0 513 343" fill="none" xmlns="http://www.w3.org/2000/svg">
<g clip-path="url(#clip0_301_1492)">
<path d="M0 0.960571H513V342.927H0V0.960571Z" fill="#FF7415"/>
<path d="M513 0.960571H0V342.927" fill="#FFDA44"/>
<path fill-rule="evenodd" clip-rule="evenodd" d="M341.532 66.8186C338.921 66.1486 336.748 66.2603 333.767 68.2369C329.727 70.9323 328.917 72.81 328.705 73.389C328.438 74.1196 328.069 75.8002 328.895 79.4203C330.849 87.9819 337.026 98.4457 346.038 113.398C346.195 113.659 346.353 113.921 346.512 114.185C354.235 126.994 364.447 143.93 367.659 160.914C369.427 170.264 369.358 180.752 365.081 191.218C360.791 201.714 353.082 210.198 343.001 216.916C342.999 216.918 342.997 216.919 342.994 216.921C342.992 216.922 342.99 216.924 342.988 216.925C332.76 223.746 321.901 227.715 310.53 227.856C299.141 227.997 289.274 224.273 281.095 219.155C266.341 209.924 254.389 194.19 245.372 182.321C245.139 182.014 244.908 181.71 244.679 181.408C234.116 167.512 226.712 158.028 219.415 153.161C216.363 151.125 214.49 150.755 213.333 150.737C212.244 150.72 209.674 150.972 205.116 154.005C205.114 154.006 205.113 154.006 205.112 154.007C199.222 157.936 196.886 161.201 195.883 163.289C194.928 165.277 194.474 167.65 194.898 171.15C195.921 179.595 201.213 190.045 209.705 204.779C210.362 205.919 211.046 207.096 211.749 208.307C218.823 220.479 227.89 236.082 231.198 251.232C233.175 260.288 233.526 270.686 229.557 281.185C225.549 291.788 217.977 300.267 208.045 306.887C194.403 316.004 179.856 317.156 166.931 313.811C154.821 310.676 144.594 303.781 136.981 297.351C129.19 290.77 122.85 283.576 118.548 278.207C116.364 275.481 114.626 273.126 113.408 271.413C112.797 270.554 112.313 269.851 111.964 269.336C111.79 269.078 111.649 268.867 111.543 268.707C111.49 268.627 111.445 268.559 111.41 268.505L111.363 268.433L111.344 268.405L111.336 268.392C111.333 268.387 111.329 268.381 128.951 256.96C146.574 245.538 146.57 245.533 146.567 245.528L146.563 245.521C146.592 245.564 146.652 245.654 146.742 245.788C146.923 246.055 147.223 246.493 147.635 247.071C148.461 248.233 149.715 249.936 151.325 251.944C154.609 256.044 159.06 261.023 164.081 265.263C169.28 269.655 173.889 272.228 177.456 273.151C180.205 273.862 182.172 273.663 184.709 271.966L184.725 271.956L184.741 271.945C189.051 269.074 190.005 267.037 190.271 266.333C190.579 265.517 190.954 263.806 190.164 260.191C188.33 251.792 182.571 241.803 174.174 227.24C173.891 226.749 173.605 226.253 173.316 225.752C165.69 212.519 155.433 194.621 153.202 176.198C152 166.264 152.993 155.573 158.026 145.1C163.009 134.729 171.196 126.14 181.828 119.052L181.842 119.043C191.885 112.359 202.665 108.563 213.998 108.742C225.263 108.921 234.883 112.993 242.72 118.22C256.397 127.342 267.819 142.41 276.596 153.99C277.112 154.67 277.618 155.338 278.116 155.992C288.547 169.715 296.054 178.971 303.373 183.551C306.42 185.457 308.469 185.878 310.01 185.859C311.564 185.84 314.642 185.347 319.691 181.979L319.697 181.974L319.704 181.97C324.395 178.845 325.74 176.46 326.202 175.329C326.679 174.163 327.06 172.257 326.391 168.718C324.794 160.274 318.938 149.798 310.066 135.079C309.606 134.316 309.136 133.537 308.656 132.744C301.171 120.367 291.517 104.404 287.948 88.7656C285.898 79.7845 285.431 69.4315 289.261 58.9618C293.146 48.3409 300.625 39.8539 310.479 33.2846L310.503 33.2685C324.248 24.1329 338.842 22.7682 351.97 26.1362C364.246 29.286 374.485 36.3226 382.05 42.8819C389.785 49.5889 396.011 56.927 400.212 62.3941C402.346 65.1713 404.038 67.5719 405.223 69.3193C405.817 70.1953 406.288 70.9135 406.627 71.4402C406.797 71.7038 406.934 71.92 407.038 72.0847C407.09 72.167 407.133 72.2365 407.168 72.2927L407.214 72.3669L407.24 72.4092C407.244 72.4151 407.247 72.4207 389.359 83.4213C371.471 94.4219 371.474 94.4272 371.477 94.4322L371.483 94.4412L371.484 94.4443C371.458 94.4026 371.402 94.3132 371.316 94.18C371.144 93.9133 370.857 93.4736 370.462 92.8916C369.67 91.7232 368.463 90.008 366.909 87.9852C363.733 83.8523 359.425 78.8539 354.536 74.6146C349.476 70.2275 344.999 67.708 341.532 66.8186Z" fill="white"/>
</g>
<defs>
<clipPath id="clip0_301_1492">
<rect width="513" height="341.967" fill="white" transform="translate(0 0.960571)"/>
</clipPath>
</defs>
</svg>
