<svg width="513" height="343" viewBox="0 0 513 343" fill="none" xmlns="http://www.w3.org/2000/svg">
<g clip-path="url(#clip0_301_1454)">
<path d="M0 0.893799H513V342.86H0V0.893799Z" fill="#008000"/>
<path d="M423.526 253.787L429.738 266.612L443.565 263.405L437.353 276.23L448.574 285.048L434.647 288.254V302.482L423.526 293.564L412.404 302.482V288.254L398.577 285.048L409.699 276.23L403.487 263.405L417.414 266.612L423.526 253.787ZM376.835 117.221L383.047 130.146L396.874 126.939L390.662 139.764L401.883 148.582L387.956 151.688V166.016L376.835 157.098L365.713 166.016L365.813 151.688L351.886 148.582L363.008 139.764L356.796 126.939L370.723 130.146L376.835 117.221ZM413.907 39.2686L420.119 52.0936L433.946 48.8873L427.734 61.7123L438.956 70.6297L425.029 73.7357V87.9635L413.907 79.0461L402.785 87.9635L402.885 73.7357L388.958 70.6297L400.08 61.7123L393.868 48.8873L407.795 52.0936L413.907 39.2686ZM465.808 97.7826L472.02 110.608L485.947 107.401L479.635 120.226L490.857 129.144L476.93 132.25L477.03 146.478L465.808 137.56L454.686 146.478L454.787 132.25L440.859 129.144L452.081 120.226L445.769 107.401L459.696 110.608L465.808 97.7826ZM437.753 166.016L442.663 180.845H458.293L445.669 190.062L450.478 204.992L437.753 195.774L425.129 204.992L429.938 190.062L417.313 180.845H432.944L437.753 166.016Z" fill="#FFDA44"/>
<path d="M307.399 256.091C258.103 256.091 218.125 216.113 218.125 166.817C218.125 117.521 258.103 77.5431 307.399 77.5431C322.729 77.5431 337.257 81.4507 349.882 88.264C330.043 68.9263 302.89 57.0031 273.032 57.0031C212.414 57.0031 163.218 106.199 163.218 166.817C163.218 227.435 212.414 276.731 273.032 276.731C302.89 276.731 330.043 264.808 349.782 245.37C337.157 252.184 322.729 256.091 307.399 256.091ZM140.674 60.5099C129.953 41.9738 109.914 29.5496 86.9695 29.5496C64.0248 29.5496 44.0859 41.9738 33.365 60.5099H140.674ZM140.875 60.9107L86.9695 114.816L33.1646 60.9107C28.0547 69.9283 25.0488 80.3486 25.0488 91.5705C25.0488 125.837 52.8029 153.591 87.0697 153.591C121.337 153.591 149.091 125.837 149.091 91.5705C148.99 80.3486 145.985 69.9283 140.875 60.9107Z" fill="#FFDA44"/>
<path d="M71.5395 99.2856V151.588C76.449 152.89 81.6592 153.491 87.0697 153.491C92.4803 153.491 97.5902 152.79 102.6 151.588V99.2856H71.5395Z" fill="#A2001D"/>
</g>
<defs>
<clipPath id="clip0_301_1454">
<rect width="513" height="341.967" fill="white" transform="translate(0 0.893799)"/>
</clipPath>
</defs>
</svg>
