<svg width="513" height="343" viewBox="0 0 513 343" fill="none" xmlns="http://www.w3.org/2000/svg">
<g clip-path="url(#clip0_301_1440)">
<path d="M0 0.827148H513V342.794H0V0.827148Z" fill="#D21034"/>
<path d="M0 171.86H211.913V257.327H0V171.86ZM301.087 171.86H513V257.327H301.087V171.86Z" fill="#3A9927"/>
<path d="M0 0.827148V86.2938H211.913V0.827148H301.087V86.2938H513V0.827148H0Z" fill="#003082"/>
<path d="M301.087 86.2939H513V171.761H301.087V86.2939ZM0 86.2939H211.913V171.761H0V86.2939Z" fill="white"/>
<path d="M301.087 342.794H211.913V257.327H0V342.794H513V257.327H301.087V342.794ZM105.906 9.44385L114.523 35.695H142.077L119.733 51.9267L128.35 78.1778L105.906 61.9462L83.5629 78.1778L92.0795 51.9267L69.7359 35.695H97.3898L105.906 9.44385Z" fill="#FFCE00"/>
</g>
<defs>
<clipPath id="clip0_301_1440">
<rect width="513" height="341.967" fill="white" transform="translate(0 0.827148)"/>
</clipPath>
</defs>
</svg>
