<svg width="513" height="343" viewBox="0 0 513 343" fill="none" xmlns="http://www.w3.org/2000/svg">
<g clip-path="url(#clip0_301_1385)">
<path d="M0 0.892578H513V342.893H0V0.892578Z" fill="#003893"/>
<path d="M0 183.093H513V224.493H0V183.093Z" fill="#CF2027"/>
<path d="M0 141.692H513V183.092H0V141.692ZM0 224.492H513V265.892H0V224.492Z" fill="white"/>
<path d="M150.4 70.8926L157.3 91.9926H179.5L161.5 105.093L168.4 126.193L150.4 113.093L132.5 126.193L139.3 105.093L121.4 91.9926H143.6L150.4 70.8926ZM150.4 280.593L157.3 301.693H179.5L161.5 314.693L168.4 335.893L150.4 322.793L132.5 335.893L139.3 314.693L121.4 301.693H143.6L150.4 280.593ZM52.8 209.693L59.7 230.793H81.9L63.9 243.793L70.8 264.993L52.8 251.893L34.9 264.993L41.7 243.793L23.8 230.793H46L52.8 209.693ZM90.1 91.8926L97 112.993H119.2L101.2 125.993L108.1 147.193L90.1 134.093L72.2 147.193L79 125.993L61 112.993H83.3L90.1 91.8926ZM23.8 162.893H46L52.8 141.793L59.7 162.893H81.9L63.9 175.993L70.8 197.093L52.8 184.093L34.9 197.093L41.7 175.993L23.8 162.893ZM72.2 311.793L79 290.693L61 277.693H83.3L90.1 256.493L97 277.693H119.2L101.2 290.693L108.1 311.793L90.1 298.793L72.2 311.793ZM248 209.693L241.1 230.793H218.9L236.9 243.793L230 264.993L248 251.893L266 264.993L259.1 243.793L277.1 230.793H254.9L248 209.693ZM210.7 91.8926L203.9 112.993H181.7L199.6 125.993L192.8 147.193L210.7 134.093L228.7 147.193L221.8 125.993L239.8 112.993H217.6L210.7 91.8926ZM277.1 162.893H254.9L248 141.793L241.1 162.893H218.9L236.9 175.993L230 197.093L248 184.093L266 197.093L259.1 175.993L277.1 162.893ZM228.7 311.793L221.8 290.693L239.8 277.693H217.6L210.7 256.493L203.9 277.693H181.7L199.6 290.693L192.8 311.793L210.7 298.793L228.7 311.793Z" fill="#F7D116"/>
<path fill-rule="evenodd" clip-rule="evenodd" d="M150.397 69.2734L157.663 91.4927H181.037L162.088 105.283L169.356 127.507L150.401 113.712L131.551 127.507L138.713 105.283L119.87 91.4927H143.236L150.397 69.2734ZM150.403 72.512L143.964 92.4927H122.93L139.887 104.902L133.449 124.879L150.399 112.474L167.444 124.879L160.912 104.902L177.963 92.4927H156.937L150.403 72.512ZM90.0965 90.2734L97.3626 112.493H120.746L101.788 126.185L109.053 148.505L90.1008 134.712L71.2541 148.505L78.4131 126.186L59.4537 112.493H82.9358L90.0965 90.2734ZM210.697 90.2734L217.963 112.493H241.346L222.388 126.185L229.653 148.505L210.701 134.712L191.854 148.505L199.013 126.185L180.161 112.493H203.536L210.697 90.2734ZM90.1035 93.512L83.6642 113.493H62.5463L79.587 125.8L73.1459 145.881L90.0992 133.474L107.147 145.881L100.612 125.801L117.654 113.493H96.6375L90.1035 93.512ZM210.703 93.512L204.264 113.493H183.239L200.187 125.801L193.746 145.881L210.699 133.474L227.747 145.881L221.212 125.801L238.254 113.493H217.237L210.703 93.512ZM52.7965 140.173L60.0626 162.393H83.4367L64.4883 176.183L71.7528 198.398L52.8008 184.71L33.9542 198.398L41.1134 176.183L22.2702 162.393H45.6358L52.7965 140.173ZM248 140.184L255.263 162.393H278.637L259.688 176.183L266.953 198.398L248 184.709L229.047 198.398L236.312 176.183L217.363 162.393H240.737L248 140.184ZM52.8035 143.412L46.3642 163.393H25.3298L42.2867 175.802L35.8459 195.788L52.7992 183.475L69.8472 195.788L63.3117 175.802L80.3633 163.393H59.3375L52.8035 143.412ZM248 143.401L241.463 163.393H220.437L237.488 175.802L230.953 195.788L248 183.476L265.047 195.788L258.512 175.802L275.563 163.393H254.537L248 143.401ZM52.7965 208.073L60.0626 230.293H83.4463L64.4883 243.985L71.7528 266.305L52.8008 252.512L33.9542 266.305L41.1134 243.985L22.2607 230.293H45.6358L52.7965 208.073ZM248 208.084L255.263 230.293H278.646L259.688 243.985L266.953 266.305L248 252.511L229.047 266.305L236.312 243.985L217.354 230.293H240.737L248 208.084ZM52.8035 211.312L46.3642 231.293H25.3393L42.2867 243.601L35.8459 263.681L52.7992 251.274L69.8472 263.681L63.3117 243.601L80.3537 231.293H59.3375L52.8035 211.312ZM248 211.301L241.463 231.293H220.446L237.488 243.601L230.953 263.681L248 251.274L265.047 263.681L258.512 243.601L275.554 231.293H254.537L248 211.301ZM90.0965 254.867L97.3631 277.193H120.746L101.789 290.884L109.053 313.098L90.1008 299.41L71.2542 313.098L78.4126 290.885L59.4537 277.193H82.9353L90.0965 254.867ZM210.697 254.867L217.963 277.193H241.346L222.389 290.884L229.653 313.098L210.701 299.41L191.854 313.098L199.013 290.884L180.161 277.193H203.535L210.697 254.867ZM90.1035 258.119L83.6647 278.193H62.5463L79.5874 290.5L73.1459 310.488L90.0992 298.175L107.147 310.488L100.611 290.501L117.654 278.193H96.6369L90.1035 258.119ZM210.703 258.119L204.265 278.193H183.239L200.187 290.501L193.746 310.488L210.699 298.175L227.747 310.488L221.211 290.501L238.254 278.193H217.237L210.703 258.119ZM150.397 278.973L157.663 301.193H181.046L162.088 314.885L169.353 337.205L150.401 323.412L131.554 337.205L138.713 314.885L119.861 301.193H143.236L150.397 278.973ZM150.403 282.212L143.964 302.193H122.939L139.887 314.501L133.446 334.581L150.399 322.174L167.447 334.581L160.912 314.501L177.954 302.193H156.937L150.403 282.212Z" fill="black"/>
</g>
<defs>
<clipPath id="clip0_301_1385">
<rect width="513" height="342" fill="white" transform="translate(0 0.892578)"/>
</clipPath>
</defs>
</svg>
