<svg width="513" height="343" viewBox="0 0 513 343" fill="none" xmlns="http://www.w3.org/2000/svg">
<g clip-path="url(#clip0_301_1365)">
<path d="M0 0.892578H513V342.893H0V0.892578Z" fill="white"/>
<path d="M141.7 155.593C141.7 155.593 141.9 222.693 216.4 220.893L220.9 234.793H229.8C229.8 234.793 222.4 193.693 289.9 193.293C289.9 193.293 289.9 165.693 317.5 165.693H359C359 165.693 293 113.893 417.9 47.6928L419.7 34.5928C419.7 34.5928 289.8 105.593 220.8 91.7928C220.8 91.7928 231.5 134.293 210 134.293C199.2 134.293 200.3 126.193 177.7 126.193C159 126.193 160.4 145.893 151.4 145.693C142.5 145.493 132.6 133.393 131.8 135.493C131.1 137.593 141.7 155.593 141.7 155.593Z" fill="#DB7D00"/>
<path d="M237.2 308.993C244.1 303.993 250.2 302.393 259.6 300.693C269 298.993 279 296.293 284.2 294.893C289.4 293.493 266.5 301.493 260.7 303.193C254.9 304.793 237.2 308.993 237.2 308.993ZM275.1 294.293C273.2 282.393 277.9 269.993 288.6 264.993C291.1 273.593 283.4 288.193 275.1 294.293ZM293.3 288.093C287.5 278.293 297.3 265.493 304.4 259.293C307.7 265.293 301.9 282.993 293.3 288.093ZM310.2 280.493C304 272.093 311.3 257.293 319 251.493C322.1 259.693 319.1 274.693 310.2 280.493ZM327.1 269.893C321.5 261.893 325.4 249.493 333.4 241.493C339.2 248.093 334.3 262.493 327.1 269.893ZM340.6 259.193C335.9 251.693 341.7 233.793 349.2 228.793C352.5 235.393 350 254.193 340.6 259.193ZM351.4 256.393C350 245.593 368.8 233.693 376.6 233.993C375.7 242.893 367.7 252.593 351.4 256.393ZM340.9 268.593C349.7 259.493 366.9 259.493 373 261.393C371.3 266.693 351.1 278.293 340.9 268.593Z" fill="#006651"/>
<path d="M328.7 277.693C341.1 274.393 349.2 271.593 356.6 279.393C351.4 285.993 331.2 284.093 328.7 277.693ZM311 285.693C322.9 279.293 337.3 288.693 339.5 294.293C326.2 299.793 310.8 287.093 311 285.693ZM294.7 294.893C305.5 290.793 317.9 296.293 322.9 302.393C317.1 305.093 301.9 308.093 294.7 294.893ZM279.8 299.593C292.2 298.193 304.2 307.593 306.8 312.993C290.9 314.493 284.8 309.793 279.8 299.593ZM275.8 308.993C268.9 303.993 262.8 302.393 253.4 300.693C244 298.993 234 296.293 228.8 294.893C223.5 293.493 246.5 301.493 252.3 303.193C258.1 304.793 275.8 308.993 275.8 308.993ZM237.9 294.293C239.8 282.393 235.1 269.993 224.4 264.993C221.9 273.593 229.6 288.193 237.9 294.293ZM219.7 288.093C225.5 278.293 215.7 265.493 208.6 259.293C205.3 265.293 211.1 282.993 219.7 288.093ZM202.8 280.493C209 272.093 201.7 257.293 194 251.493C190.9 259.693 193.9 274.693 202.8 280.493ZM185.9 269.893C191.5 261.893 187.6 249.493 179.6 241.493C173.8 248.093 178.7 262.493 185.9 269.893ZM172.4 259.193C177.1 251.693 171.3 233.793 163.8 228.793C160.5 235.393 163 254.193 172.4 259.193ZM161.6 256.393C163 245.593 144.2 233.693 136.4 233.993C137.3 242.893 145.3 252.593 161.6 256.393ZM172.1 268.593C163.3 259.493 146.1 259.493 140 261.393C141.7 266.693 161.9 278.293 172.1 268.593Z" fill="#006651"/>
<path d="M184.3 277.693C171.9 274.393 163.8 271.593 156.4 279.393C161.6 285.993 181.8 284.093 184.3 277.693ZM202 285.693C190.1 279.293 175.7 288.693 173.5 294.293C186.8 299.793 202.2 287.093 202 285.693ZM218.3 294.893C207.5 290.793 195.1 296.293 190.1 302.393C195.9 305.093 211.1 308.093 218.3 294.893ZM233.2 299.593C220.8 298.193 208.8 307.593 206.2 312.993C222.1 314.493 228.2 309.793 233.2 299.593Z" fill="#006651"/>
</g>
<defs>
<clipPath id="clip0_301_1365">
<rect width="513" height="342" fill="white" transform="translate(0 0.892578)"/>
</clipPath>
</defs>
</svg>
