<svg width="513" height="343" viewBox="0 0 513 343" fill="none" xmlns="http://www.w3.org/2000/svg">
<g clip-path="url(#clip0_301_1299)">
<path d="M0 0.860352H513V342.827H0V0.860352Z" fill="white"/>
<path d="M0 0.860352H513V114.883H0V0.860352Z" fill="#D80027"/>
<path d="M0 228.905H513V342.927H0V228.905Z" fill="black"/>
<path d="M220.73 205.66C220.73 205.66 220.73 147.146 225.239 140.833C228.345 136.525 242.072 146.043 247.983 145.342C247.983 145.342 252.192 137.827 252.492 133.319C252.793 128.71 251.39 125.704 247.583 127.107C247.583 127.107 246.38 125.002 248.084 123.8C249.687 122.598 253.694 123.9 253.694 123.9C253.694 123.9 253.194 122.898 255.298 122.998C258.203 123.199 262.512 124.401 262.712 128.609C262.912 131.715 263.013 136.324 263.113 137.326C263.814 144.14 265.818 146.043 265.818 146.043C265.818 146.043 284.254 136.825 287.861 140.833C291.168 144.641 292.37 205.66 292.37 205.66L274.235 188.827L286.358 218.384C286.358 218.384 271.93 220.789 257.402 220.789C242.873 220.789 226.241 216.581 226.241 216.581L240.068 188.326L220.73 205.66Z" fill="#C09300"/>
</g>
<defs>
<clipPath id="clip0_301_1299">
<rect width="513" height="341.967" fill="white" transform="translate(0 0.860352)"/>
</clipPath>
</defs>
</svg>
