<svg width="513" height="343" viewBox="0 0 513 343" fill="none" xmlns="http://www.w3.org/2000/svg">
<g clip-path="url(#clip0_301_1172)">
<path d="M0 0.92627H513V342.893H0V0.92627Z" fill="white"/>
<path d="M0 0.92627H513V49.8216H0V0.92627ZM0 98.6167H513V147.512H0V98.6167ZM0 196.307H513V245.202H0V196.307ZM0 294.098H513V342.993H0V294.098Z" fill="#6DA544"/>
<path d="M0 0.92627H256.5V147.512H0V0.92627Z" fill="#D80027"/>
<path d="M117.128 115.55L109.614 100.721V70.9628L128.25 60.0415L146.886 70.9628V93.3063L154.301 85.8919L158.509 88.8978L154.301 100.721L139.372 115.55H117.128Z" fill="white"/>
<path d="M82.1601 89.2986C85.1482 89.2986 87.5706 86.8763 87.5706 83.8881C87.5706 80.8999 85.1482 78.4775 82.1601 78.4775C79.1719 78.4775 76.7495 80.8999 76.7495 83.8881C76.7495 86.8763 79.1719 89.2986 82.1601 89.2986Z" fill="white"/>
<path d="M90.9774 68.1573C93.9656 68.1573 96.388 65.7349 96.388 62.7467C96.388 59.7586 93.9656 57.3362 90.9774 57.3362C87.9893 57.3362 85.5669 59.7586 85.5669 62.7467C85.5669 65.7349 87.9893 68.1573 90.9774 68.1573Z" fill="white"/>
<path d="M106.808 52.627C109.796 52.627 112.219 50.2046 112.219 47.2165C112.219 44.2283 109.796 41.8059 106.808 41.8059C103.82 41.8059 101.398 44.2283 101.398 47.2165C101.398 50.2046 103.82 52.627 106.808 52.627Z" fill="white"/>
<path d="M128.25 47.2166C131.238 47.2166 133.66 44.7942 133.66 41.8061C133.66 38.8179 131.238 36.3955 128.25 36.3955C125.262 36.3955 122.839 38.8179 122.839 41.8061C122.839 44.7942 125.262 47.2166 128.25 47.2166Z" fill="white"/>
<path d="M149.692 52.627C152.68 52.627 155.102 50.2046 155.102 47.2165C155.102 44.2283 152.68 41.8059 149.692 41.8059C146.704 41.8059 144.281 44.2283 144.281 47.2165C144.281 50.2046 146.704 52.627 149.692 52.627Z" fill="white"/>
<path d="M165.523 68.1573C168.511 68.1573 170.933 65.7349 170.933 62.7467C170.933 59.7586 168.511 57.3362 165.523 57.3362C162.534 57.3362 160.112 59.7586 160.112 62.7467C160.112 65.7349 162.534 68.1573 165.523 68.1573Z" fill="white"/>
<path d="M174.34 89.2986C177.328 89.2986 179.75 86.8763 179.75 83.8881C179.75 80.8999 177.328 78.4775 174.34 78.4775C171.352 78.4775 168.929 80.8999 168.929 83.8881C168.929 86.8763 171.352 89.2986 174.34 89.2986Z" fill="white"/>
</g>
<defs>
<clipPath id="clip0_301_1172">
<rect width="513" height="341.967" fill="white" transform="translate(0 0.92627)"/>
</clipPath>
</defs>
</svg>
