<svg width="513" height="343" viewBox="0 0 513 343" fill="none" xmlns="http://www.w3.org/2000/svg">
<g clip-path="url(#clip0_301_1117)">
<path d="M0 0.959961H513V342.96H0V0.959961Z" fill="white"/>
<path d="M0 0.959961H513V114.76H0V0.959961Z" fill="#6DA544"/>
<path d="M0 228.56H513V342.96H0V228.56Z" fill="#D80027"/>
<path d="M126 171.66L0 342.26V0.959961L126 171.66Z" fill="#0070C8"/>
<path fill-rule="evenodd" clip-rule="evenodd" d="M233.8 139.86H305.5V180.76C305.5 189.747 303.252 196.521 299.854 201.618C296.457 206.713 291.933 210.102 287.424 212.357C282.916 214.611 278.415 215.735 275.045 216.297C273.358 216.578 271.952 216.719 270.965 216.789C270.472 216.824 270.083 216.842 269.817 216.851C269.683 216.855 269.58 216.858 269.51 216.859C269.475 216.859 269.448 216.86 269.43 216.86L269.408 216.86L269.403 216.86H269.401C269.4 216.86 269.4 216.86 269.4 216.36C269.4 216.86 269.4 216.86 269.399 216.86H269.397L269.392 216.86L269.37 216.86C269.352 216.86 269.325 216.859 269.29 216.859C269.22 216.858 269.117 216.855 268.984 216.851C268.717 216.842 268.328 216.824 267.835 216.789C266.848 216.719 265.442 216.578 263.755 216.297C260.385 215.735 255.884 214.611 251.376 212.357C246.867 210.102 242.343 206.713 238.947 201.618C235.548 196.521 233.3 189.747 233.3 180.76V140.36H233.8V139.86ZM234.3 140.86V180.76C234.3 189.572 236.502 196.149 239.779 201.064C243.057 205.982 247.433 209.267 251.824 211.463C256.216 213.659 260.615 214.76 263.92 215.31C265.571 215.586 266.946 215.723 267.906 215.792C268.386 215.826 268.762 215.843 269.017 215.851C269.144 215.856 269.241 215.858 269.306 215.859C269.338 215.859 269.362 215.86 269.378 215.86L269.396 215.86L269.399 215.86H269.401L269.405 215.86L269.422 215.86C269.438 215.86 269.462 215.859 269.494 215.859C269.559 215.858 269.656 215.856 269.783 215.851C270.038 215.843 270.414 215.826 270.894 215.792C271.854 215.723 273.229 215.586 274.88 215.31C278.185 214.76 282.584 213.659 286.976 211.463C291.367 209.267 295.743 205.982 299.022 201.064C302.298 196.149 304.5 189.572 304.5 180.76V140.86H234.3Z" fill="black"/>
<path d="M264.5 180.76H274.3L278.3 206.56H260.5L264.5 180.76Z" fill="#786145"/>
<path d="M287.2 162.96C287.2 153.16 279.2 148.16 269.4 148.16C259.6 148.16 251.6 153.16 251.6 162.96C246.7 162.96 242.7 166.96 242.7 171.86C242.7 176.76 246.7 180.76 251.6 180.76H287.2C292.1 180.76 296.1 176.76 296.1 171.86C296.1 166.96 292.1 162.96 287.2 162.96Z" fill="#6DA544"/>
<path d="M230.7 120.96L232.6 124.26H236.4L234.5 127.56L236.4 130.76H232.6L230.7 134.06L228.8 130.76H225L226.9 127.56L225 124.26H228.8L230.7 120.96ZM246 120.96L247.9 124.26H251.6L249.7 127.56L251.6 130.76H247.9L246 134.06L244.1 130.76H240.3L242.2 127.56L240.3 124.26H244.1L246 120.96ZM261.3 120.96L263.2 124.26H266.9L265 127.56L266.9 130.76H263.2L261.3 134.06L259.4 130.76H255.6L257.5 127.56L255.6 124.26H259.4L261.3 120.96ZM277.1 120.96L279 124.26H282.8L280.9 127.56L282.8 130.76H279L277.1 134.06L275.2 130.76H271.5L273.3 127.56L271.5 124.26H275.2L277.1 120.96ZM293.1 120.96L295 124.26H298.8L296.9 127.56L298.8 130.76H295L293.1 134.06L291.2 130.76H287.5L289.3 127.56L287.5 124.26H291.2L293.1 120.96ZM308.1 120.96L310 124.26H313.7L311.8 127.56L313.7 130.76H310L308.1 134.06L306.2 130.76H302.4L304.3 127.56L302.4 124.26H306.2L308.1 120.96Z" fill="#FFDA00"/>
<path fill-rule="evenodd" clip-rule="evenodd" d="M246 119.958L248.189 123.76H252.465L250.279 127.556L252.478 131.26H248.189L246 135.062L243.811 131.26H239.422L241.621 127.556L239.435 123.76H243.811L246 119.958ZM277.1 119.958L279.289 123.76H283.665L281.479 127.556L283.678 131.26H279.289L277.1 135.062L274.911 131.26H270.645L272.728 127.556L270.658 123.76H274.911L277.1 119.958ZM293.1 119.958L295.289 123.76H299.665L297.479 127.556L299.678 131.26H295.289L293.1 135.062L290.911 131.26H286.645L288.728 127.556L286.658 123.76H290.911L293.1 119.958ZM308.1 119.958L310.289 123.76H314.565L312.379 127.556L314.578 131.26H310.289L308.1 135.062L305.911 131.26H301.522L303.721 127.556L301.535 123.76H305.911L308.1 119.958ZM230.7 119.958L232.889 123.76H237.265L235.079 127.556L237.278 131.26H232.889L230.7 135.062L228.511 131.26H224.122L226.321 127.556L224.135 123.76H228.511L230.7 119.958ZM261.3 119.958L263.489 123.76H267.765L265.579 127.556L267.778 131.26H263.489L261.3 135.062L259.111 131.26H254.722L256.921 127.556L254.735 123.76H259.111L261.3 119.958ZM261.3 121.962L259.689 124.76H256.465L258.079 127.564L256.478 130.26H259.689L261.3 133.058L262.911 130.26H266.022L264.421 127.564L266.035 124.76H262.911L261.3 121.962ZM230.7 121.962L229.089 124.76H225.865L227.479 127.564L225.878 130.26H229.089L230.7 133.058L232.311 130.26H235.522L233.921 127.564L235.535 124.76H232.311L230.7 121.962ZM246 121.962L244.389 124.76H241.165L242.779 127.564L241.178 130.26H244.389L246 133.058L247.611 130.26H250.722L249.121 127.564L250.735 124.76H247.611L246 121.962ZM277.1 121.962L275.489 124.76H272.342L273.872 127.564L272.355 130.26H275.489L277.1 133.058L278.711 130.26H281.922L280.321 127.564L281.935 124.76H278.711L277.1 121.962ZM293.1 121.962L291.489 124.76H288.342L289.872 127.564L288.355 130.26H291.489L293.1 133.058L294.711 130.26H297.922L296.321 127.564L297.935 124.76H294.711L293.1 121.962ZM308.1 121.962L306.489 124.76H303.265L304.879 127.564L303.278 130.26H306.489L308.1 133.058L309.711 130.26H312.822L311.221 127.564L312.835 124.76H309.711L308.1 121.962Z" fill="black"/>
</g>
<defs>
<clipPath id="clip0_301_1117">
<rect width="513" height="342" fill="white" transform="translate(0 0.959961)"/>
</clipPath>
</defs>
</svg>
