<svg width="513" height="343" viewBox="0 0 513 343" fill="none" xmlns="http://www.w3.org/2000/svg">
<g clip-path="url(#clip0_301_1070)">
<path d="M0 0.959717H512V342.26H0V0.959717Z" fill="#D80027"/>
<path d="M11.1001 12.0598H500.8V331.16H11.1001V12.0598Z" fill="#0052B4"/>
<path d="M256 286.26C256 286.26 332.4 234.96 332.4 171.66C332.4 108.36 256 56.9597 256 56.9597C256 56.9597 179.6 108.26 179.6 171.56C179.6 234.86 256 286.26 256 286.26Z" fill="#7DBEF1"/>
<path d="M179.8 181.66H332.4L303.1 246.56H207.9L179.8 181.66Z" fill="#1C8AE6"/>
<path d="M192.3 206.86C192.3 206.86 232.8 245.06 243.3 245.06C255.7 245.06 255.9 226.66 268.8 219.56C289 208.46 319.8 206.86 319.8 206.86L297 249.66L256 286.26L209.2 246.56L192.3 206.86Z" fill="#FFF042"/>
<path d="M256 158.46L233.5 174.06L241.4 147.86L219.6 131.36L247 130.86L256 104.96L265 130.86L292.4 131.36L270.6 147.96L278.5 174.16L256 158.46Z" fill="#259C7B"/>
<path d="M249.7 145.56C248.8 154.76 248.2 163.96 248 173.16C247.7 185.06 248.3 193.86 250 199.16C252.2 205.76 257.2 212.06 264.2 218.06C269.5 222.66 274.8 226.16 278.4 228.16C281.5 229.86 285.4 228.76 287.1 225.76C288.8 222.66 287.7 218.76 284.7 217.06C280.4 214.56 276.3 211.66 272.5 208.36C267.1 203.76 263.4 199.16 262.1 195.06C261 191.66 260.5 183.76 260.7 173.36C260.9 164.46 261.5 155.56 262.4 146.76C262.8 143.26 260.2 140.16 256.7 139.76C253.1 139.46 250 142.06 249.7 145.56Z" fill="#8E5715"/>
<path d="M217.8 171.66L243.3 209.86H217.8V171.66Z" fill="white"/>
<path fill-rule="evenodd" clip-rule="evenodd" d="M259.349 51.9815L256 56.9598L252.655 51.9785L256.003 49.7305L259.349 51.9815ZM256 286.26C252.651 291.238 252.649 291.237 252.647 291.236L252.626 291.221L252.573 291.185C252.529 291.155 252.466 291.113 252.386 291.058C252.277 290.982 252.134 290.884 251.959 290.763C251.88 290.707 251.793 290.647 251.7 290.582C251.108 290.167 250.253 289.56 249.173 288.769C247.014 287.189 243.95 284.873 240.284 281.9C232.959 275.961 223.181 267.359 213.384 256.709C193.988 235.625 173.6 205.52 173.6 171.56C173.6 137.599 193.99 107.518 213.387 86.4575C223.184 75.8203 232.963 67.2308 240.287 61.3011C243.954 58.3325 247.018 56.0209 249.178 54.4431C250.258 53.6539 251.112 53.0477 251.704 52.6338C252 52.4269 252.231 52.2681 252.391 52.1585C252.471 52.1036 252.533 52.0612 252.578 52.0311L252.63 51.9954L252.652 51.981C252.654 51.9797 252.655 51.9785 256 56.9598C259.349 51.9815 259.351 51.9827 259.353 51.984L259.358 51.9876L259.374 51.9985L259.427 52.0342C259.471 52.0643 259.534 52.1069 259.614 52.1618C259.774 52.2716 260.004 52.4307 260.3 52.638C260.892 53.0525 261.747 53.6599 262.827 54.4504C264.986 56.031 268.05 58.3464 271.717 61.3197C279.041 67.2587 288.819 75.8606 298.616 86.5101C318.012 107.594 338.4 137.7 338.4 171.66C338.4 205.621 318.011 235.702 298.613 256.762C288.816 267.399 279.038 275.989 271.713 281.918C268.046 284.887 264.982 287.199 262.823 288.776C261.743 289.566 260.888 290.172 260.296 290.586C260 290.793 259.769 290.951 259.609 291.061C259.529 291.116 259.467 291.158 259.423 291.188L259.37 291.224L259.354 291.235L259.348 291.239C259.347 291.24 259.345 291.241 256 286.26ZM256 286.26L252.651 291.238L255.997 293.489L259.345 291.241L256 286.26ZM256.003 278.897C258.008 277.426 260.814 275.302 264.162 272.592C271.163 266.925 280.484 258.733 289.787 248.632C308.59 228.218 326.4 200.999 326.4 171.66C326.4 142.32 308.588 115.075 289.784 94.6344C280.481 84.5214 271.159 76.317 264.159 70.6405C260.809 67.9245 258.002 65.7959 255.997 64.3227C253.992 65.7931 251.186 67.9173 247.838 70.6279C240.838 76.295 231.516 84.4868 222.213 94.5871C203.411 115.002 185.6 142.221 185.6 171.56C185.6 200.9 203.412 228.144 222.216 248.585C231.519 258.698 240.841 266.902 247.842 272.579C251.191 275.295 253.998 277.424 256.003 278.897Z" fill="#D80027"/>
</g>
<defs>
<clipPath id="clip0_301_1070">
<rect width="513" height="342" fill="white" transform="translate(0 0.959717)"/>
</clipPath>
</defs>
</svg>
