<svg width="513" height="343" viewBox="0 0 513 343" fill="none" xmlns="http://www.w3.org/2000/svg">
<g clip-path="url(#clip0_301_1016)">
<path d="M0 0.994141H513V172.994H0V0.994141Z" fill="#A2001D"/>
<path d="M0 172.994H513V344.994H0V172.994Z" fill="#0052B4"/>
<path d="M381.4 252.494L270.7 238.694L159.9 252.494V86.3942H381.4V252.494Z" fill="white"/>
<path d="M270.7 238.694C301.297 238.694 326.1 213.891 326.1 183.294C326.1 152.698 301.297 127.894 270.7 127.894C240.103 127.894 215.3 152.698 215.3 183.294C215.3 213.891 240.103 238.694 270.7 238.694Z" fill="#0052B4"/>
<path d="M270.7 210.994C285.998 210.994 298.4 198.592 298.4 183.294C298.4 167.996 285.998 155.594 270.7 155.594C255.402 155.594 243 167.996 243 183.294C243 198.592 255.402 210.994 270.7 210.994Z" fill="#A2001D"/>
<path d="M229.1 114.094H312.2L270.7 155.594L229.1 114.094Z" fill="#6DA544"/>
<path d="M256.8 141.794H284.5V224.794H256.8V141.794Z" fill="#FFDA44"/>
<path d="M314.9 216.494H226.4L159.9 252.494H381.4L314.9 216.494Z" fill="#6DA544"/>
</g>
<defs>
<clipPath id="clip0_301_1016">
<rect width="513" height="342" fill="white" transform="translate(0 0.994141)"/>
</clipPath>
</defs>
</svg>
