<svg width="513" height="343" viewBox="0 0 513 343" fill="none" xmlns="http://www.w3.org/2000/svg">
<g clip-path="url(#clip0_301_1001)">
<path d="M0 0.994141H513V342.994H0V0.994141Z" fill="white"/>
<path d="M340.6 123.394H284.5L256.5 74.7942L228.5 123.394H172.4L200.4 171.994L172.4 220.594H228.5L256.5 269.194L284.5 220.594H340.6L312.6 171.994L340.6 123.394ZM293.2 171.994L276 205.194H237.1L219.8 171.994L237 138.794H275.9L293.2 171.994ZM256.5 100.194L268.4 123.494H244.5L256.5 100.194ZM198.2 138.794H222.1L211.3 159.794L198.2 138.794ZM198.2 205.194L211.2 183.094L223.1 205.194H198.2ZM256.5 242.694L244.6 220.594H268.5L256.5 242.694ZM315.9 205.194H290.9L302.8 183.094L315.9 205.194ZM289.8 138.794H315.9L302.9 160.894L289.8 138.794ZM0 22.2942H512V64.9942H0V22.2942ZM0 278.294H512V320.994H0V278.294Z" fill="#2E52B2"/>
</g>
<defs>
<clipPath id="clip0_301_1001">
<rect width="513" height="342" fill="white" transform="translate(0 0.994141)"/>
</clipPath>
</defs>
</svg>
