<svg width="513" height="343" viewBox="0 0 513 343" fill="none" xmlns="http://www.w3.org/2000/svg">
<g clip-path="url(#clip0_301_989)">
<path d="M17.3 0.994141H495.7V342.994H17.3V0.994141Z" fill="#181A93"/>
<path d="M0 0.994141H513V114.994H0V0.994141Z" fill="#FFA44A"/>
<path d="M0 228.994H513V342.994H0V228.994Z" fill="#1A9F0B"/>
<path d="M0 114.994H513V228.994H0V114.994Z" fill="white"/>
<path d="M256.5 206.194C275.388 206.194 290.7 190.882 290.7 171.994C290.7 153.106 275.388 137.794 256.5 137.794C237.612 137.794 222.3 153.106 222.3 171.994C222.3 190.882 237.612 206.194 256.5 206.194Z" fill="white"/>
<path d="M256.5 217.594C231.4 217.594 210.9 197.094 210.9 171.994C210.9 146.894 231.4 126.394 256.5 126.394C281.6 126.394 302.1 146.894 302.1 171.994C302.1 197.094 281.6 217.594 256.5 217.594ZM256.5 206.194C274.7 206.194 290.7 190.194 290.7 171.994C290.7 153.794 274.8 137.794 256.5 137.794C238.2 137.794 222.3 153.794 222.3 171.994C222.3 190.194 238.3 206.194 256.5 206.194Z" fill="#181A93"/>
<path d="M256.5 194.794C269.092 194.794 279.3 184.586 279.3 171.994C279.3 159.402 269.092 149.194 256.5 149.194C243.908 149.194 233.7 159.402 233.7 171.994C233.7 184.586 243.908 194.794 256.5 194.794Z" fill="#181A93"/>
</g>
<defs>
<clipPath id="clip0_301_989">
<rect width="513" height="342" fill="white" transform="translate(0 0.994141)"/>
</clipPath>
</defs>
</svg>
