<svg width="513" height="343" viewBox="0 0 513 343" fill="none" xmlns="http://www.w3.org/2000/svg">
<g clip-path="url(#clip0_301_967)">
<path d="M0 0.991699H513V342.992H0V0.991699Z" fill="white"/>
<path d="M0 0.991699H513V114.992H0V0.991699Z" fill="#CE1126"/>
<path d="M0 228.992H513V342.992H0V228.992Z" fill="black"/>
<path d="M219.2 161.692H189.9C191.4 155.992 196.5 151.792 202.7 151.792V131.892C184.4 131.892 169.6 146.792 169.6 164.992V181.492H219.2C221 181.492 222.5 182.992 222.5 184.792V191.392H156.3V211.292H242.4V184.792C242.4 172.092 232 161.692 219.2 161.692ZM268.8 191.492V131.892H249V211.392H282.1V191.492H268.8ZM335 191.492V131.892H315.2V191.492H308.6V171.692H288.7V211.392H348.3V191.492H335Z" fill="#547C31"/>
</g>
<defs>
<clipPath id="clip0_301_967">
<rect width="513" height="342" fill="white" transform="translate(0 0.991699)"/>
</clipPath>
</defs>
</svg>
