<svg width="513" height="343" viewBox="0 0 513 343" fill="none" xmlns="http://www.w3.org/2000/svg">
<g clip-path="url(#clip0_301_960)">
<path d="M0 0.992188H512V342.992H0V0.992188Z" fill="white"/>
<path d="M0 0.992188H513V114.992H0V0.992188Z" fill="#6DA544"/>
<path d="M0 228.892H513V342.892H0V228.892ZM278.8 135.792C278.9 137.792 287.5 161.992 283.2 175.192C276.6 195.492 267.4 196.992 263.4 199.692V134.992L256.5 130.792L249.6 134.992V199.692C245.6 196.992 237.2 197.292 229.8 175.192C225.5 162.492 235.5 137.892 235.6 135.992C235.6 135.992 226.1 144.092 219.8 159.992C213.9 174.792 221.7 209.592 249.3 214.792C251.6 215.192 254 220.392 256.5 220.392C258.6 220.392 260.6 215.192 262.5 214.892C290.9 210.292 297.5 173.192 292.4 159.292C287 144.692 278.8 135.792 278.8 135.792Z" fill="#D80027"/>
<g opacity="0.5">
<path opacity="0.5" d="M44.6 99.8926H66.9V124.293H44.6V99.8926ZM0 99.8926H22.3V124.293H0V99.8926ZM89.2 99.8926H111.5V124.293H89.2V99.8926ZM133.8 99.8926H156.1V124.293H133.8V99.8926ZM178.4 99.8926H200.7V124.293H178.4V99.8926ZM223 99.8926H245.3V124.293H223V99.8926ZM267.7 99.8926H290V124.293H267.7V99.8926ZM312.3 99.8926H334.6V124.293H312.3V99.8926ZM356.9 99.8926H379.2V124.293H356.9V99.8926ZM401.5 99.8926H423.8V124.293H401.5V99.8926ZM446.1 99.8926H468.4V124.293H446.1V99.8926ZM490.7 99.8926H513V124.293H490.7V99.8926ZM44.6 217.893H66.9V243.393H44.6V217.893ZM0 217.893H22.3V243.393H0V217.893ZM89.2 217.893H111.5V243.393H89.2V217.893ZM133.8 217.893H156.1V243.393H133.8V217.893ZM178.4 217.893H200.7V243.393H178.4V217.893ZM223 217.893H245.3V243.393H223V217.893ZM267.7 217.893H290V243.393H267.7V217.893ZM312.3 217.893H334.6V243.393H312.3V217.893ZM356.9 217.893H379.2V243.393H356.9V217.893ZM401.5 217.893H423.8V243.393H401.5V217.893ZM446.1 217.893H468.4V243.393H446.1V217.893ZM490.7 217.893H513V243.393H490.7V217.893Z" fill="white"/>
</g>
</g>
<defs>
<clipPath id="clip0_301_960">
<rect width="513" height="342" fill="white" transform="translate(0 0.992188)"/>
</clipPath>
</defs>
</svg>
