<svg width="513" height="343" viewBox="0 0 513 343" fill="none" xmlns="http://www.w3.org/2000/svg">
<g clip-path="url(#clip0_301_947)">
<path d="M0 0.992188H513V342.992H0V0.992188Z" fill="white"/>
<path d="M301.8 171.992L513 31.1922V0.992188H467.7L256.5 141.792L45.3 0.992188H0V31.1922L211.2 171.992L0 312.792V342.992H45.3L256.5 202.192L467.7 342.992H513V312.792L301.8 171.992Z" fill="#D80027"/>
<path d="M233.7 45.592L256 51.192L278.3 45.592L282.3 24.692L267.4 31.192L256 15.792L244.6 31.192L229.7 24.692L233.7 45.592Z" fill="#FFDA44"/>
<path d="M233.7 45.5918C233.7 45.5918 229.7 58.4918 229.7 75.4918C229.7 103.392 256 116.792 256 116.792C256 116.792 282.3 101.292 282.3 75.4918C282.3 60.0918 278.3 45.5918 278.3 45.5918C278.3 45.5918 270.2 40.5918 256 40.5918C241.8 40.5918 233.7 45.5918 233.7 45.5918Z" fill="#D80027"/>
</g>
<defs>
<clipPath id="clip0_301_947">
<rect width="513" height="342" fill="white" transform="translate(0 0.992188)"/>
</clipPath>
</defs>
</svg>
