<svg width="513" height="343" viewBox="0 0 513 343" fill="none" xmlns="http://www.w3.org/2000/svg">
<g clip-path="url(#clip0_301_892)">
<path d="M0 0.997803H513V342.99H0V0.997803Z" fill="#0052B4"/>
<path d="M0 0.997803H513V86.5015H0V0.997803Z" fill="#FFDA44"/>
<path d="M0 86.4905H513V171.994H0V86.4905Z" fill="white"/>
<path d="M0 171.994H513V257.498H0V171.994Z" fill="#D80027"/>
<path d="M256.5 172L0 342.996V0.991821L256.5 172Z" fill="#6DA544"/>
<path d="M68.7722 171.994C68.7722 147.081 86.2824 126.267 109.664 121.161C106.001 120.358 102.262 119.952 98.5122 119.951C69.7682 119.951 46.4688 143.251 46.4688 171.994C46.4688 200.737 69.7692 224.038 98.5122 224.038C102.342 224.038 106.07 223.612 109.664 222.827C86.2814 217.721 68.7722 196.908 68.7722 171.994Z" fill="white"/>
<path d="M109.09 127.385L111.857 135.905H120.815L113.568 141.171L116.336 149.69L109.09 144.424L101.842 149.69L104.611 141.171L97.3628 135.905H106.32L109.09 127.385ZM109.09 149.69L111.857 158.209H120.815L113.568 163.475L116.336 171.994L109.09 166.729L101.842 171.994L104.611 163.475L97.3628 158.209H106.32L109.09 149.69ZM109.09 171.994L111.857 180.514H120.815L113.568 185.779L116.336 194.299L109.09 189.033L101.842 194.299L104.611 185.779L97.3628 180.514H106.32L109.09 171.994ZM109.09 194.299L111.857 202.817H120.815L113.568 208.084L116.336 216.603L109.09 211.338L101.842 216.603L104.611 208.084L97.3628 202.817H106.32L109.09 194.299Z" fill="white"/>
</g>
<defs>
<clipPath id="clip0_301_892">
<rect width="513" height="342" fill="white" transform="translate(0 0.993774)"/>
</clipPath>
</defs>
</svg>
