<svg width="513" height="343" viewBox="0 0 513 343" fill="none" xmlns="http://www.w3.org/2000/svg">
<g clip-path="url(#clip0_301_885)">
<path d="M0 0.992676H513V342.993H0V0.992676Z" fill="#D80027"/>
<path d="M512 0.992676H0V342.993" fill="#6DA544"/>
<path d="M307.7 0.992676L0 195.493V342.993H206.9L513 149.493V0.992676H307.7Z" fill="#FFDA44"/>
<path d="M513 0.992676H385.2L0 250.393V342.993H126.2L513 92.5927V0.992676Z" fill="black"/>
<path d="M141.1 187.992L172.3 211.992L204.6 189.792L191.5 226.792L222.6 250.692L183.4 249.592L170.2 286.592L159.1 248.992L119.9 247.892L152.2 225.692L141.1 187.992ZM310.6 71.7925L341.8 95.6925L374.1 73.4925L361 110.492L392.1 134.392L352.9 133.292L339.7 170.292L328.6 132.692L289.4 131.592L321.8 109.392L310.6 71.7925Z" fill="white"/>
</g>
<defs>
<clipPath id="clip0_301_885">
<rect width="513" height="342" fill="white" transform="translate(0 0.992676)"/>
</clipPath>
</defs>
</svg>
