<svg width="513" height="343" viewBox="0 0 513 343" fill="none" xmlns="http://www.w3.org/2000/svg">
<g clip-path="url(#clip0_301_848)">
<path d="M0 0.995117H513V342.999H0V0.995117Z" fill="#0052B4"/>
<path d="M384.75 127.379C401.175 127.379 414.49 114.064 414.49 97.6395C414.49 81.2146 401.175 67.8995 384.75 67.8995C368.325 67.8995 355.01 81.2146 355.01 97.6395C355.01 114.064 368.325 127.379 384.75 127.379Z" fill="#6DA544"/>
<path d="M332.703 90.212H436.786V134.821H332.703V90.212Z" fill="#D80027"/>
<path d="M332.707 201.73V231.47H348.353C357.735 240.664 370.576 246.339 384.75 246.339C398.925 246.339 411.765 240.664 421.147 231.47H436.793V201.73H332.707Z" fill="#FFDA44"/>
<path d="M332.707 127.383V171.992C332.707 211.828 384.75 224.035 384.75 224.035C384.75 224.035 436.793 211.829 436.793 171.992V127.383H332.707Z" fill="#338AF3"/>
<path d="M384.747 151.21C371.737 151.21 371.737 163.106 358.726 163.106C345.716 163.106 345.716 151.21 332.706 151.21V172.027C345.716 172.027 345.716 183.924 358.726 183.924C371.737 183.924 371.737 172.027 384.747 172.027C397.758 172.027 397.758 183.924 410.771 183.924C423.782 183.924 423.782 172.027 436.794 172.027V151.21C423.783 151.21 423.783 163.106 410.771 163.106C397.759 163.105 397.759 151.21 384.747 151.21ZM384.747 109.539C371.737 109.539 371.737 121.435 358.726 121.435C345.716 121.435 345.716 109.539 332.706 109.539V130.356C345.716 130.356 345.716 142.252 358.726 142.252C371.737 142.252 371.737 130.356 384.747 130.356C397.758 130.356 397.758 142.252 410.771 142.252C423.782 142.252 423.782 130.356 436.794 130.356V109.539C423.783 109.539 423.783 121.435 410.771 121.435C397.759 121.435 397.759 109.539 384.747 109.539Z" fill="#F3F3F3"/>
<path d="M256.5 0.995117V23.6563L210.341 54.4253H256.5V118.55H210.341L256.5 149.33V171.991H233.828L160.312 122.977V171.991H96.1875V122.977L22.6722 171.991H0V149.33L46.159 118.55H0V54.4253H46.159L0 23.6563V0.995117H22.6722L96.1875 49.9976V0.995117H160.312V49.9976L233.828 0.995117H256.5Z" fill="white"/>
<path d="M144.281 0.990112H112.219V70.4595H0V102.522H112.219V171.991H144.281V102.522H256.5V70.4595H144.281V0.990112Z" fill="#D80027"/>
<path d="M0 0.990112V16.1016L57.4891 54.4283H80.1562L0 0.990112ZM256.5 0.990112V16.1016L199.011 54.4283H176.344L256.5 0.990112Z" fill="#D80027"/>
<path d="M0 0.990112V16.1016L57.4891 54.4283H80.1562L0 0.990112ZM256.5 0.990112V16.1016L199.011 54.4283H176.344L256.5 0.990112ZM0 171.991V156.88L57.4891 118.553H80.1562L0 171.991ZM256.5 171.991V156.88L199.011 118.553H176.344L256.5 171.991Z" fill="#D80027"/>
</g>
<defs>
<clipPath id="clip0_301_848">
<rect width="513" height="342" fill="white" transform="translate(0 0.994141)"/>
</clipPath>
</defs>
</svg>
