<svg width="513" height="343" viewBox="0 0 513 343" fill="none" xmlns="http://www.w3.org/2000/svg">
<g clip-path="url(#clip0_301_844)">
<path d="M0 0.992676H513V342.993H0V0.992676Z" fill="#36B6CC"/>
<path d="M256.5 240.293C294.276 240.293 324.9 209.669 324.9 171.893C324.9 134.116 294.276 103.493 256.5 103.493C218.724 103.493 188.1 134.116 188.1 171.893C188.1 209.669 218.724 240.293 256.5 240.293Z" fill="#FFD400"/>
<path d="M256.5 252.493L228.6 294.193L221.5 244.493L178.3 269.993L193.5 222.193L143.5 226.393L177.9 189.893L131 171.893L177.8 153.893L143.4 117.393L193.4 121.593L178.2 73.7928L221.4 99.1928L228.5 49.4928L256.4 91.1928L284.3 49.4928L291.4 99.1928L334.6 73.7928L319.4 121.593L369.4 117.393L335.1 153.993L381.9 171.893L335.1 189.893L369.5 226.393L319.5 222.193L334.7 269.993L291.5 244.593L284.4 294.293C284.4 294.193 256.5 252.493 256.5 252.493ZM256.5 251.693C300.6 251.693 336.4 215.893 336.4 171.793C336.4 127.693 300.6 91.9928 256.5 91.9928C212.4 91.9928 176.6 127.793 176.6 171.893C176.6 215.993 212.4 251.693 256.5 251.693ZM22.7998 29.2928C22.7998 26.0928 25.1998 23.5928 28.4998 23.5928H39.7998C42.9998 23.5928 45.4998 25.9928 45.4998 29.2928V40.5928C45.5998 43.6928 43.0998 46.2928 39.8998 46.2928H28.4998C25.3998 46.2928 22.7998 43.7928 22.7998 40.6928V29.2928ZM22.7998 74.9928C22.7998 71.7928 25.1998 69.2928 28.4998 69.2928H39.7998C42.9998 69.2928 45.4998 71.6928 45.4998 74.9928V86.2928C45.5998 89.3928 43.0998 91.9928 39.8998 91.9928H28.4998C25.3998 91.9928 22.7998 89.4928 22.7998 86.3928V74.9928ZM22.7998 120.593C22.7998 117.393 25.1998 114.893 28.4998 114.893H39.7998C42.9998 114.893 45.4998 117.293 45.4998 120.593V131.893C45.5998 134.993 43.0998 137.593 39.8998 137.593H28.4998C25.3998 137.593 22.7998 135.093 22.7998 131.993V120.593ZM22.7998 166.193C22.7998 162.993 25.1998 160.493 28.4998 160.493H39.7998C42.9998 160.493 45.4998 162.893 45.4998 166.193V177.493C45.5998 180.593 43.0998 183.193 39.8998 183.193H28.4998C25.3998 183.193 22.7998 180.693 22.7998 177.593V166.193ZM22.7998 211.893C22.7998 208.693 25.1998 206.193 28.4998 206.193H39.7998C42.9998 206.193 45.4998 208.593 45.4998 211.893V223.193C45.5998 226.293 43.0998 228.893 39.8998 228.893H28.4998C25.3998 228.893 22.7998 226.393 22.7998 223.293V211.893ZM22.7998 257.493C22.7998 254.293 25.1998 251.793 28.4998 251.793H39.7998C42.9998 251.793 45.4998 254.193 45.4998 257.493V268.793C45.5998 271.893 43.0998 274.493 39.8998 274.493H28.4998C25.3998 274.493 22.7998 271.993 22.7998 268.893V257.493ZM22.7998 303.093C22.7998 299.893 25.1998 297.393 28.4998 297.393H39.7998C42.9998 297.393 45.4998 299.793 45.4998 303.093V314.393C45.5998 317.493 43.0998 320.093 39.8998 320.093H28.4998C25.3998 320.093 22.7998 317.593 22.7998 314.493V303.093ZM45.5998 280.293C45.5998 277.093 47.9998 274.593 51.2998 274.593H62.5998C65.7998 274.593 68.2998 276.993 68.2998 280.293V291.593C68.3998 294.693 65.8998 297.293 62.6998 297.293H51.2998C48.1998 297.293 45.5998 294.793 45.5998 291.693V280.293ZM45.5998 234.693C45.5998 231.493 47.9998 228.993 51.2998 228.993H62.5998C65.7998 228.993 68.2998 231.393 68.2998 234.693V245.993C68.3998 249.093 65.8998 251.693 62.6998 251.693H51.2998C48.1998 251.693 45.5998 249.193 45.5998 246.093V234.693ZM45.5998 188.993C45.5998 185.793 47.9998 183.293 51.2998 183.293H62.5998C65.7998 183.293 68.2998 185.693 68.2998 188.993V200.293C68.3998 203.393 65.8998 205.993 62.6998 205.993H51.2998C48.1998 205.993 45.5998 203.493 45.5998 200.393V188.993ZM45.5998 143.393C45.5998 140.193 47.9998 137.693 51.2998 137.693H62.5998C65.7998 137.693 68.2998 140.093 68.2998 143.393V154.693C68.3998 157.793 65.8998 160.393 62.6998 160.393H51.2998C48.1998 160.393 45.5998 157.893 45.5998 154.793V143.393ZM45.5998 97.7928C45.5998 94.5928 47.9998 92.0928 51.2998 92.0928H62.5998C65.7998 92.0928 68.2998 94.4928 68.2998 97.7928V109.093C68.3998 112.193 65.8998 114.793 62.6998 114.793H51.2998C48.1998 114.793 45.5998 112.293 45.5998 109.193V97.7928ZM45.5998 52.1928C45.5998 48.9928 47.9998 46.4928 51.2998 46.4928H62.5998C65.7998 46.4928 68.2998 48.8928 68.2998 52.1928V63.4928C68.3998 66.5928 65.8998 69.1928 62.6998 69.1928H51.2998C48.1998 69.1928 45.5998 66.6928 45.5998 63.5928V52.1928Z" fill="#FFD400"/>
</g>
<defs>
<clipPath id="clip0_301_844">
<rect width="513" height="342" fill="white" transform="translate(0 0.992676)"/>
</clipPath>
</defs>
</svg>
