<svg width="513" height="343" viewBox="0 0 513 343" fill="none" xmlns="http://www.w3.org/2000/svg">
<g clip-path="url(#clip0_301_833)">
<path d="M0 0.991211H513V342.991H0V0.991211Z" fill="white"/>
<path d="M0 1.19141H513V91.8914H0V1.19141ZM0.5 252.291H513V342.991H0.5V252.291Z" fill="#D80027"/>
<path d="M290.3 194.491L256 131.691L221.7 194.491H247.4V211.691H264.6V194.491H290.3Z" fill="#6DA544"/>
<path d="M241.3 214.091C245.7 209.691 245.7 202.491 241.2 198.091L245.9 202.791C240.7 198.091 233.7 196.191 226.8 197.491L203.3 203.391C197.2 204.891 196.5 202.991 201.5 199.191L228.6 178.891C233.7 175.091 232.8 171.991 226.3 171.991H215.3C208.9 171.991 208.3 169.691 213.8 166.891L239.1 154.191C244.7 151.391 244.2 149.091 237.6 149.091H226.6C220.2 149.091 219.2 145.991 224.3 142.191L251.4 121.891C257 118.091 264.3 118.091 269.9 121.891L297 142.191C302.1 145.991 301.2 149.091 294.7 149.091H283.7C277.3 149.091 276.7 151.391 282.2 154.191L307.5 166.891C313.1 169.691 312.6 171.991 306 171.991H295C288.6 171.991 287.6 175.091 292.7 178.891L319.8 199.191C324.9 202.991 324.2 204.891 318 203.391L294.5 197.491C287.7 196.191 280.6 198.091 275.4 202.791L280.1 198.091C275.7 202.491 275.6 209.591 280 214.091L286.8 220.891C291.2 225.291 289.9 228.891 283.5 228.891H237.7C231.5 228.891 230 225.291 234.4 220.891C234.5 220.991 241.3 214.091 241.3 214.091Z" fill="#14AF5A"/>
</g>
<defs>
<clipPath id="clip0_301_833">
<rect width="513" height="342" fill="white" transform="translate(0 0.991211)"/>
</clipPath>
</defs>
</svg>
