<svg width="513" height="343" viewBox="0 0 513 343" fill="none" xmlns="http://www.w3.org/2000/svg">
<g clip-path="url(#clip0_301_824)">
<path d="M0 0.994141H513V342.994H0V0.994141Z" fill="#D80027"/>
<path d="M0 0.994141H513V171.994H0V0.994141Z" fill="#0052B4"/>
<path d="M149.3 99.0941C149.3 85.0941 138 73.7941 124 73.7941C117.5 73.7941 111.6 76.1941 107.1 80.1941V65.3941H115.5V48.4941H107.1V40.0941H90.3001V48.4941H81.9001V65.3941H90.3001V80.2941C85.8001 76.2941 79.9001 73.8941 73.4001 73.8941C59.4001 73.8941 48.1001 85.1941 48.1001 99.1941C48.1001 106.694 51.4001 113.394 56.5001 117.994V132.894H140.8V117.994C146.1 113.294 149.3 106.494 149.3 99.0941Z" fill="#FFDA44"/>
</g>
<defs>
<clipPath id="clip0_301_824">
<rect width="513" height="342" fill="white" transform="translate(0 0.994141)"/>
</clipPath>
</defs>
</svg>
