<svg width="513" height="343" viewBox="0 0 513 343" fill="none" xmlns="http://www.w3.org/2000/svg">
<g clip-path="url(#clip0_301_785)">
<path d="M0 0.996094H513V342.989H0V0.996094Z" fill="black"/>
<path d="M0 0.996094H513V114.993H0V0.996094Z" fill="#D80027"/>
<path d="M0 228.991H513V342.988H0V228.991Z" fill="#496E2D"/>
<path d="M281.974 151.979L290.953 164.354L305.495 159.638L296.502 172.002L305.481 184.375L290.943 179.641L281.95 192.006L281.96 176.718L267.421 171.983L281.964 167.268L281.974 151.979Z" fill="white"/>
<path d="M257.467 202.921C240.385 202.921 226.538 189.073 226.538 171.993C226.538 154.913 240.386 141.065 257.467 141.065C262.604 141.057 267.662 142.335 272.179 144.782C265.315 138.071 255.93 133.928 245.572 133.928C224.549 133.928 207.505 150.971 207.505 171.994C207.505 193.017 224.549 210.06 245.572 210.06C255.93 210.06 265.316 205.917 272.179 199.206C267.662 201.652 262.604 202.929 257.467 202.921Z" fill="white"/>
</g>
<defs>
<clipPath id="clip0_301_785">
<rect width="513" height="342" fill="white" transform="translate(0 0.992188)"/>
</clipPath>
</defs>
</svg>
