<svg width="513" height="343" viewBox="0 0 513 343" fill="none" xmlns="http://www.w3.org/2000/svg">
<g clip-path="url(#clip0_301_782)">
<path d="M0 0.998047V342.991H513V0.998047H0Z" fill="#D80027"/>
<path d="M352.688 142.421H279.207L256.5 72.5386L233.793 142.423H160.312L219.759 185.614L197.052 255.499L256.5 212.305L315.948 255.496L293.241 185.611L352.688 142.421ZM236.398 180.205L244.076 156.574H268.924L276.602 180.205V180.206L256.5 194.811L236.398 180.205ZM264.325 142.421H248.676L256.5 118.337L264.325 142.421ZM288.642 171.459L283.805 156.574H309.129L288.642 171.459ZM229.195 156.574L224.358 171.459L203.871 156.574H229.195ZM223.974 218.443L231.799 194.36L244.46 203.559L223.974 218.443ZM268.539 203.558L281.2 194.359L289.025 218.442L268.539 203.558Z" fill="#20661B"/>
</g>
<defs>
<clipPath id="clip0_301_782">
<rect width="513" height="342" fill="white" transform="translate(0 0.994141)"/>
</clipPath>
</defs>
</svg>
