<svg width="513" height="343" viewBox="0 0 513 343" fill="none" xmlns="http://www.w3.org/2000/svg">
<g clip-path="url(#clip0_301_754)">
<path d="M0 0.992188H513V342.992H0V0.992188Z" fill="#1E509C"/>
<path d="M513 177.092V82.292L0 342.992L513 177.092Z" fill="white"/>
<path d="M513 0.992188V82.2922L0 342.992L513 0.992188Z" fill="#F18D36"/>
<path d="M126.7 100.292L118.9 46.1924L111.2 100.292L90.4001 76.5924L101.1 108.192L69.6001 97.4924L93.2001 118.292L39.1001 125.992L93.2001 133.692L69.6001 154.492L101.1 143.792L90.4001 175.392L111.2 151.692L118.9 205.792L126.7 151.692L147.4 175.392L136.8 143.792L168.3 154.492L144.7 133.692L198.7 125.992L144.7 118.292L168.3 97.4924L136.8 108.192L147.4 76.5924L126.7 100.292Z" fill="white"/>
</g>
<defs>
<clipPath id="clip0_301_754">
<rect width="513" height="342" fill="white" transform="translate(0 0.992188)"/>
</clipPath>
</defs>
</svg>
