<svg width="513" height="343" viewBox="0 0 513 343" fill="none" xmlns="http://www.w3.org/2000/svg">
<g clip-path="url(#clip0_301_729)">
<path d="M0 0.99292H513V342.993H0V0.99292Z" fill="#095FAD"/>
<path d="M342 0.99292H513V342.993H342V0.99292ZM0 0.99292H171V342.993H0V0.99292Z" fill="#BE1229"/>
<path d="M108.3 167.293H123.1V241.493H108.3V167.293ZM48.8999 167.293H63.6999V241.493H48.8999V167.293Z" fill="#FFDA44"/>
<path d="M85.9997 219.193C94.1735 219.193 100.8 212.567 100.8 204.393C100.8 196.219 94.1735 189.593 85.9997 189.593C77.8259 189.593 71.1997 196.219 71.1997 204.393C71.1997 212.567 77.8259 219.193 85.9997 219.193Z" fill="#FFDA44"/>
<path d="M71.1997 226.693H100.9V241.493H71.1997V226.693ZM71.1997 167.293H100.9V182.093H71.1997V167.293Z" fill="#FFDA44"/>
<path d="M85.9997 159.793C94.1735 159.793 100.8 153.167 100.8 144.993C100.8 136.819 94.1735 130.193 85.9997 130.193C77.8259 130.193 71.1997 136.819 71.1997 144.993C71.1997 153.167 77.8259 159.793 85.9997 159.793Z" fill="#FFDA44"/>
<path d="M76.2998 124.893H95.7998L85.9998 109.293L76.2998 124.893Z" fill="#FFDA44"/>
</g>
<defs>
<clipPath id="clip0_301_729">
<rect width="513" height="342" fill="white" transform="translate(0 0.99292)"/>
</clipPath>
</defs>
</svg>
