<svg width="513" height="343" viewBox="0 0 513 343" fill="none" xmlns="http://www.w3.org/2000/svg">
<g clip-path="url(#clip0_301_710)">
<path d="M0 0.994141H513V342.994H0V0.994141Z" fill="#0071BC"/>
<path d="M256.5 322.474C341.497 322.474 410.4 253.571 410.4 168.574C410.4 83.5775 341.497 14.6741 256.5 14.6741C171.503 14.6741 102.6 83.5775 102.6 168.574C102.6 253.571 171.503 322.474 256.5 322.474Z" fill="white"/>
<path fill-rule="evenodd" clip-rule="evenodd" d="M256.5 15.6241C172.028 15.6241 103.55 84.1022 103.55 168.574C103.55 253.046 172.028 321.524 256.5 321.524C340.972 321.524 409.45 253.046 409.45 168.574C409.45 84.1022 340.972 15.6241 256.5 15.6241ZM101.65 168.574C101.65 83.0528 170.979 13.7241 256.5 13.7241C342.021 13.7241 411.35 83.0528 411.35 168.574C411.35 254.095 342.021 323.424 256.5 323.424C170.979 323.424 101.65 254.095 101.65 168.574Z" fill="black"/>
<path d="M256.5 281.434C318.831 281.434 369.36 230.905 369.36 168.574C369.36 106.243 318.831 55.7141 256.5 55.7141C194.169 55.7141 143.64 106.243 143.64 168.574C143.64 230.905 194.169 281.434 256.5 281.434Z" fill="#0071BC"/>
<path fill-rule="evenodd" clip-rule="evenodd" d="M256.5 56.6641C194.694 56.6641 144.59 106.768 144.59 168.574C144.59 230.38 194.694 280.484 256.5 280.484C318.306 280.484 368.41 230.38 368.41 168.574C368.41 106.768 318.306 56.6641 256.5 56.6641ZM142.69 168.574C142.69 105.719 193.644 54.7641 256.5 54.7641C319.355 54.7641 370.31 105.719 370.31 168.574C370.31 231.43 319.355 282.384 256.5 282.384C193.644 282.384 142.69 231.43 142.69 168.574Z" fill="black"/>
<path d="M304.175 308.794C304.654 316.318 298.84 322.474 291.316 322.474H221.343C213.819 322.474 208.005 316.318 208.347 308.794L219.77 86.4941C220.18 78.9701 226.61 72.8141 234.134 72.8141H276.131C283.655 72.8141 290.153 78.9701 290.632 86.4941L304.175 308.794Z" fill="#8C8A8C"/>
<path fill-rule="evenodd" clip-rule="evenodd" d="M220.718 86.5441C220.718 86.5447 220.718 86.5453 220.718 86.5459L209.296 308.837C209.296 308.838 209.296 308.839 209.296 308.84C208.979 315.829 214.368 321.524 221.343 321.524H291.316C298.294 321.524 303.671 315.828 303.227 308.854L303.227 308.852L289.684 86.5545C289.684 86.554 289.684 86.5535 289.684 86.553C289.236 79.5241 283.148 73.7641 276.131 73.7641H234.133C227.121 73.7641 221.102 79.5183 220.718 86.5441ZM218.821 86.4424C219.258 78.421 226.098 71.8641 234.133 71.8641H276.131C284.162 71.8641 291.07 78.4153 291.58 86.4338L291.58 86.4364L305.123 308.734C305.123 308.734 305.123 308.735 305.123 308.735C305.636 316.809 299.385 323.424 291.316 323.424H221.343C213.27 323.424 207.031 316.809 207.398 308.751L207.398 308.745H207.398L218.821 86.4454L218.821 86.4424Z" fill="black"/>
<path d="M255.132 78.9702L275.652 142.582H342L288.648 180.886L308.484 243.814L255.132 205.51L201.78 244.498L222.3 180.886L168.264 141.898H234.612L255.132 78.9702Z" fill="white"/>
<path fill-rule="evenodd" clip-rule="evenodd" d="M255.134 77.9702C255.567 77.9708 255.951 78.2507 256.084 78.6632L276.38 141.582H342C342.434 141.582 342.819 141.862 342.952 142.276C343.085 142.689 342.936 143.141 342.583 143.394L289.82 181.276L309.438 243.514C309.567 243.924 309.419 244.372 309.071 244.624C308.722 244.877 308.251 244.878 307.901 244.626L255.137 206.745L202.37 245.306C202.02 245.561 201.546 245.562 201.194 245.309C200.843 245.055 200.695 244.604 200.829 244.191L221.125 181.271L167.679 142.709C167.327 142.455 167.179 142.004 167.313 141.591C167.446 141.178 167.83 140.898 168.264 140.898H233.886L254.181 78.6601C254.316 78.2481 254.7 77.9695 255.134 77.9702ZM255.127 82.2115L235.563 142.208C235.429 142.62 235.045 142.898 234.612 142.898H171.359L222.885 180.075C223.237 180.329 223.385 180.78 223.252 181.193L203.678 241.873L254.542 204.703C254.891 204.448 255.364 204.446 255.715 204.698L306.627 241.25L287.694 181.187C287.565 180.775 287.714 180.326 288.065 180.074L338.893 143.582H275.652C275.218 143.582 274.834 143.302 274.701 142.889L255.127 82.2115Z" fill="black"/>
</g>
<defs>
<clipPath id="clip0_301_710">
<rect width="513" height="342" fill="white" transform="translate(0 0.994141)"/>
</clipPath>
</defs>
</svg>
