<svg width="513" height="343" viewBox="0 0 513 343" fill="none" xmlns="http://www.w3.org/2000/svg">
<g clip-path="url(#clip0_301_655)">
<path d="M0 0.994141H513V342.994H0V0.994141Z" fill="white"/>
<path d="M0 0.994141H513V25.3941H0V0.994141ZM0 49.8941H513V74.2941H0V49.8941ZM0 98.6941H513V123.094H0V98.6941ZM0 147.594H513V171.994H0V147.594ZM0 196.394H513V220.794H0V196.394ZM0 245.294H513V269.694H0V245.294ZM0 294.094H513V318.494H0V294.094Z" fill="#CC0000"/>
<path d="M0 0.994141H256.5V196.394H0V0.994141Z" fill="#000066"/>
<path d="M153.3 43.0942C122.6 31.6942 88.4999 47.2942 77.0999 77.9942C65.6999 108.694 81.2999 142.794 112 154.194C125.3 159.194 140 159.194 153.4 154.194C122.7 178.694 77.9999 173.794 53.3999 143.094C28.7999 112.394 33.7999 67.6942 64.4999 43.0942C90.4999 22.3942 127.4 22.3942 153.3 43.0942ZM180 118.094L159.4 141.394L164.8 110.794L133.8 109.194L161.1 94.2942L143 68.9942L171.6 80.9942L180 51.0942L188.4 80.9942L217 68.9942L199 94.3942L226.3 109.294L195.3 110.894L200.7 141.494L180 118.094Z" fill="#FFCC00"/>
</g>
<defs>
<clipPath id="clip0_301_655">
<rect width="513" height="342" fill="white" transform="translate(0 0.994141)"/>
</clipPath>
</defs>
</svg>
