<svg width="512" height="343" viewBox="0 0 512 343" fill="none" xmlns="http://www.w3.org/2000/svg">
<g clip-path="url(#clip0_301_642)">
<path d="M0 0.691895H512V342.018H0V0.691895Z" fill="#496E2D"/>
<path d="M0 342.018V0.691895H512" fill="#0052B4"/>
<path d="M512 67.5769V0.691895H411.67L0 275.133V342.018H100.33L512 67.5769Z" fill="white"/>
<path d="M512 0.691895V40.8169L60.193 342.018H0V301.893L451.807 0.691895H512Z" fill="#A2001D"/>
<path d="M187.737 104.567L164.996 115.263L177.106 137.287L152.413 132.563L149.284 157.508L132.085 139.161L114.885 157.508L111.756 132.563L87.0631 137.286L99.1721 115.263L76.4331 104.567L99.1731 93.87L87.0631 71.848L111.756 76.57L114.886 51.626L132.085 69.973L149.285 51.626L152.413 76.57L177.106 71.848L164.998 93.872L187.737 104.567Z" fill="#FFDA44"/>
</g>
<defs>
<clipPath id="clip0_301_642">
<rect width="512" height="341.333" fill="white" transform="translate(0 0.687988)"/>
</clipPath>
</defs>
</svg>
