<svg width="513" height="343" viewBox="0 0 513 343" fill="none" xmlns="http://www.w3.org/2000/svg">
<g clip-path="url(#clip0_301_594)">
<path d="M0 0.998047H513V342.991H0V0.998047Z" fill="white"/>
<path d="M0 342.991V0.998047L280.967 176.089H87.7811L271.716 342.991H0Z" fill="#0052B4"/>
<path d="M245.247 165.871L10.2188 19.4072V332.772H245.247L61.3123 165.871H245.247Z" fill="#D80027"/>
<path d="M98.1946 240.561L83.5771 233.685L91.3623 219.527L75.4873 222.563L73.4754 206.527L62.4189 218.322L51.3613 206.527L49.3494 222.563L33.4754 219.526L41.2606 233.685L26.6411 240.561L41.2606 247.436L33.4754 261.594L49.3504 258.559L51.3613 274.594L62.4189 262.799L73.4754 274.594L75.4873 258.559L91.3613 261.595L83.5771 247.437L98.1946 240.561ZM88.4406 107.531L77.8078 102.53L83.4699 92.2318L71.9244 94.4411L70.4605 82.7773L62.4189 91.3551L54.3772 82.7773L52.9143 94.4411L41.3668 92.2318L47.0299 102.53L36.3961 107.531L62.4189 112.735L88.4406 107.531Z" fill="white"/>
<path d="M93.6446 107.531C93.6446 124.776 79.6644 138.757 62.4187 138.757C45.1731 138.757 31.1929 124.776 31.1929 107.531" fill="white"/>
</g>
<defs>
<clipPath id="clip0_301_594">
<rect width="513" height="342" fill="white" transform="translate(0 0.994141)"/>
</clipPath>
</defs>
</svg>
