<svg width="513" height="343" viewBox="0 0 513 343" fill="none" xmlns="http://www.w3.org/2000/svg">
<g clip-path="url(#clip0_301_590)">
<path d="M0 0.997559H513V342.99H0V0.997559Z" fill="#0052B4"/>
<path d="M0 155.957H513V188.019H0V155.957Z" fill="#FFDA44"/>
<path d="M175.143 257.49L155.982 266.503L166.186 285.061L145.378 281.08L142.742 302.099L128.25 286.64L113.757 302.099L111.121 281.08L90.3139 285.061L100.517 266.503L81.3564 257.49L100.518 248.477L90.3139 229.921L111.12 233.9L113.758 212.881L128.25 228.34L142.743 212.881L145.378 233.9L166.186 229.921L155.983 248.478L175.143 257.49Z" fill="white"/>
</g>
<defs>
<clipPath id="clip0_301_590">
<rect width="513" height="342" fill="white" transform="translate(0 0.993652)"/>
</clipPath>
</defs>
</svg>
