<svg width="513" height="343" viewBox="0 0 513 343" fill="none" xmlns="http://www.w3.org/2000/svg">
<g clip-path="url(#clip0_301_564)">
<path d="M0 0.994141H513V342.998H0V0.994141Z" fill="#FFDA44"/>
<path d="M0 0.994141H256.5V171.99H0V0.994141Z" fill="white"/>
<path d="M144.281 0.990234H112.219V70.4586H0V102.521H112.219V171.991H144.281V102.521H256.5V70.4586H144.281V0.990234Z" fill="#D80027"/>
<path d="M0 0.989258V16.1017L57.4891 54.4274H80.1562L0 0.989258Z" fill="#D80027"/>
<path d="M0 23.6554V54.4274H46.159L0 23.6554ZM96.1875 0.991211V49.9997L22.6722 0.991211H96.1875Z" fill="#2E52B2"/>
<path d="M256.5 0.989258V16.1017L199.011 54.4274H176.344L256.5 0.989258Z" fill="#D80027"/>
<path d="M256.5 23.6554V54.4274H210.341L256.5 23.6554ZM160.312 0.991211V49.9997L233.828 0.991211H160.312Z" fill="#2E52B2"/>
<path d="M0 0.989258V16.1017L57.4891 54.4274H80.1562L0 0.989258Z" fill="#D80027"/>
<path d="M0 23.6554V54.4274H46.159L0 23.6554ZM96.1875 0.991211V49.9997L22.6722 0.991211H96.1875Z" fill="#2E52B2"/>
<path d="M256.5 0.989258V16.1017L199.011 54.4274H176.344L256.5 0.989258Z" fill="#D80027"/>
<path d="M256.5 23.6554V54.4274H210.341L256.5 23.6554ZM160.312 0.991211V49.9997L233.828 0.991211H160.312Z" fill="#2E52B2"/>
<path d="M0 171.99V156.879L57.4891 118.552H80.1562L0 171.99Z" fill="#D80027"/>
<path d="M0 149.325V118.552H46.159L0 149.325ZM96.1875 171.987V122.98L22.6722 171.987H96.1875Z" fill="#2E52B2"/>
<path d="M256.5 171.99V156.879L199.011 118.552H176.344L256.5 171.99Z" fill="#D80027"/>
<path d="M256.5 149.325V118.552H210.341L256.5 149.325ZM160.312 171.987V122.98L233.828 171.987H160.312Z" fill="#2E52B2"/>
<path d="M128.25 109.158C140.771 109.158 150.921 99.0076 150.921 86.4866C150.921 73.9657 140.771 63.8154 128.25 63.8154C115.729 63.8154 105.579 73.9657 105.579 86.4866C105.579 99.0076 115.729 109.158 128.25 109.158Z" fill="#2E52B2"/>
<path d="M128.25 70.4585L132.228 82.7044H145.107L134.689 90.2752L138.667 102.521L128.25 94.9523L117.832 102.521L121.812 90.2752L111.393 82.7044H124.271L128.25 70.4585ZM128.25 135.726L130.619 143.018H138.287L132.085 147.525L134.453 154.817L128.25 150.31L122.047 154.817L124.416 147.525L118.214 143.018H125.881L128.25 135.726ZM128.25 18.1626L130.619 25.4548H138.287L132.085 29.9616L134.453 37.2538L128.25 32.747L122.047 37.2538L124.416 29.9616L118.214 25.4548H125.881L128.25 18.1626ZM198.318 76.9442L200.687 84.2354H208.355L202.151 88.7432L204.521 96.0364L198.318 91.5296L192.115 96.0364L194.484 88.7432L188.281 84.2354H195.948L198.318 76.9442ZM58.1826 76.9442L60.5512 84.2354H68.2191L62.0161 88.7432L64.3847 96.0364L58.1826 91.5296L51.9795 96.0364L54.3491 88.7432L48.145 84.2354H55.813L58.1826 76.9442Z" fill="#FFDA44"/>
</g>
<defs>
<clipPath id="clip0_301_564">
<rect width="513" height="342" fill="white" transform="translate(0 0.993164)"/>
</clipPath>
</defs>
</svg>
