<svg width="513" height="343" viewBox="0 0 513 343" fill="none" xmlns="http://www.w3.org/2000/svg">
<g clip-path="url(#clip0_301_550)">
<path d="M0 0.993652H513V342.997H0V0.993652Z" fill="#0052B4"/>
<path d="M426.132 149.694L429.526 160.143H440.511L431.623 166.599L435.018 177.047L426.132 170.59L417.243 177.047L420.638 166.599L411.751 160.143H422.735L426.132 149.694ZM386.861 224.913L391.954 240.586H408.431L395.1 250.272L400.192 265.942L386.861 256.256L373.53 265.942L378.623 250.272L365.292 240.586H381.769L386.861 224.913ZM388.345 101.827L392.589 114.889H406.32L395.21 122.958L399.454 136.018L388.345 127.946L377.235 136.018L381.479 122.958L370.37 114.889H384.101L388.345 101.827ZM350.559 149.24L355.651 164.911H372.129L358.797 174.596L363.891 190.268L350.559 180.583L337.228 190.268L342.32 174.596L328.989 164.911H345.466L350.559 149.24Z" fill="#D80027"/>
<path d="M256.503 0.98877V31.6125L211.237 56.7495H256.503V116.224H197.274L256.503 149.135V171.985H229.761L156.133 131.079V171.985H100.373V123.317L12.7728 171.985H0.00292969V141.372L45.2592 116.224H0.00292969V56.7495H59.2214L0.00292969 23.8513V0.98877H26.735L100.373 41.9065V0.98877H156.133V49.6566L243.734 0.98877H256.503Z" fill="white"/>
<path d="M144.281 0.989746H112.219V70.4592H0V102.522H112.219V171.991H144.281V102.522H256.5V70.4592H144.281V0.989746Z" fill="#D80027"/>
<path d="M156.13 116.229L256.5 171.991V156.221L184.513 116.229H156.13Z" fill="#0052B4"/>
<path d="M156.13 116.229L256.5 171.991V156.221L184.513 116.229H156.13Z" fill="white"/>
<path d="M156.13 116.229L256.5 171.991V156.221L184.513 116.229H156.13ZM71.9863 116.229L0 156.221V171.991L100.37 116.229H71.9863Z" fill="#D80027"/>
<path d="M100.37 56.7514L0 0.989746V16.7585L71.9873 56.7514H100.37Z" fill="#0052B4"/>
<path d="M100.37 56.7514L0 0.989746V16.7585L71.9873 56.7514H100.37Z" fill="white"/>
<path d="M100.37 56.7514L0 0.989746V16.7585L71.9873 56.7514H100.37ZM184.514 56.7514L256.5 16.7585V0.989746L156.13 56.7514H184.514Z" fill="#D80027"/>
</g>
<defs>
<clipPath id="clip0_301_550">
<rect width="513" height="342" fill="white" transform="translate(0 0.992676)"/>
</clipPath>
</defs>
</svg>
