<svg width="513" height="343" viewBox="0 0 513 343" fill="none" xmlns="http://www.w3.org/2000/svg">
<g clip-path="url(#clip0_301_543)">
<path d="M0 0.991211H513V342.991H0V0.991211Z" fill="#D80027"/>
<path d="M138 0.991211H515V114.991H138V0.991211Z" fill="white"/>
<path d="M138 230.991H515V344.991H138V230.991Z" fill="#4A7C3A"/>
<path fill-rule="evenodd" clip-rule="evenodd" d="M36.3447 39.2501C36.3443 39.2495 36.344 39.2491 40.3 36.1914C44.2561 33.1337 44.2561 33.1336 44.2562 33.1338L44.3574 33.2644C44.4261 33.3529 44.5291 33.4856 44.6646 33.6595C44.9356 34.0075 45.3365 34.5208 45.8525 35.1775C46.8847 36.4911 48.3767 38.378 50.2108 40.6638C53.8812 45.2382 58.9105 51.3967 64.358 57.749C69.8152 64.1126 75.6444 70.6149 80.9214 75.9011C86.3858 81.375 90.7097 84.9719 93.2433 86.174C99.9034 89.334 103.837 90.6109 105.95 91.1159C106.998 91.3664 107.54 91.4129 107.704 91.421C107.738 91.4227 107.752 91.4226 107.749 91.4226C107.744 91.4226 107.708 91.4229 107.645 91.4277C107.589 91.432 107.51 91.44 107.411 91.455C107.361 91.4625 107.307 91.4717 107.247 91.4832C107.217 91.4889 107.187 91.4951 107.154 91.5019L107.106 91.5127L107.08 91.5184L107.068 91.5213C107.061 91.5228 107.055 91.5243 108.2 96.3914C109.345 101.258 109.339 101.26 109.332 101.261L109.319 101.264L109.293 101.27L109.241 101.282C109.205 101.289 109.169 101.297 109.133 101.304C109.059 101.318 108.984 101.331 108.906 101.343C108.751 101.366 108.585 101.385 108.409 101.398C108.058 101.425 107.66 101.431 107.206 101.409C106.303 101.364 105.139 101.204 103.625 100.842C100.613 100.122 95.9966 98.5488 88.9568 95.2087C84.6404 93.1608 79.1892 88.3203 73.8443 82.966C68.3119 77.4241 62.2973 70.7076 56.767 64.2588C51.227 57.7986 46.1252 51.5508 42.4112 46.9221C40.553 44.6063 39.0396 42.6924 37.9893 41.3557C37.4641 40.6872 37.0546 40.1629 36.7754 39.8045C36.6359 39.6254 36.5289 39.4877 36.4564 39.3942L36.3447 39.2501Z" fill="white"/>
<path fill-rule="evenodd" clip-rule="evenodd" d="M34.6001 96.3915L35.038 101.372L31.2139 92.7127L54.4854 71.2915H51.7001V61.2915H65.3492L65.7001 60.9685V36.1915H75.7001V51.7636L96.6139 32.5127L103.872 39.3553L100 36.1915C103.872 39.3553 103.872 39.3549 103.872 39.3553L103.447 39.8735C103.171 40.21 102.766 40.7036 102.247 41.3337C101.21 42.594 99.7183 44.4008 97.8986 46.5904C94.6033 50.5555 90.2281 55.7811 85.5249 61.2915H89.6001V71.2915H76.881C73.9318 74.6533 71.0222 77.9103 68.3243 80.8387C63.5692 86 59.1164 90.5385 56.246 92.6315C50.9134 96.5199 45.7154 98.6905 41.8278 99.8931C39.881 100.495 38.25 100.859 37.0759 101.075C36.4883 101.183 36.0133 101.254 35.6683 101.3C35.4958 101.323 35.3556 101.339 35.2499 101.351C35.197 101.357 35.1527 101.361 35.1173 101.365L35.0709 101.369L35.0528 101.371L35.0414 101.372C35.0397 101.372 35.038 101.372 34.6001 96.3915Z" fill="white"/>
</g>
<defs>
<clipPath id="clip0_301_543">
<rect width="513" height="342" fill="white" transform="translate(0 0.991211)"/>
</clipPath>
</defs>
</svg>
