<svg width="513" height="343" viewBox="0 0 513 343" fill="none" xmlns="http://www.w3.org/2000/svg">
<g clip-path="url(#clip0_301_537)">
<path d="M0 0.996094H513V342.989H0V0.996094Z" fill="white"/>
<path d="M256.5 171.993V342.989H0V171.993H256.5Z" fill="#0052B4"/>
<path d="M513 0.996094V171.992H256.5V0.996094H513Z" fill="#D80027"/>
<path d="M128.25 38.7666L140.097 75.2267H178.435L147.419 97.7616L159.265 134.222L128.25 111.688L97.2343 134.222L109.08 97.7616L78.0649 75.2267H116.403L128.25 38.7666Z" fill="#0052B4"/>
<path d="M384.75 209.763L396.597 246.223H434.935L403.919 268.758L415.765 305.218L384.75 282.684L353.734 305.218L365.58 268.758L334.565 246.223H372.903L384.75 209.763Z" fill="#D80027"/>
</g>
<defs>
<clipPath id="clip0_301_537">
<rect width="513" height="342" fill="white" transform="translate(0 0.992188)"/>
</clipPath>
</defs>
</svg>
