<svg width="513" height="343" viewBox="0 0 513 343" fill="none" xmlns="http://www.w3.org/2000/svg">
<g clip-path="url(#clip0_301_525)">
<path d="M0 0.995117H513V342.988H0V0.995117Z" fill="white"/>
<path d="M0 0.995117H513V114.992H0V0.995117ZM0 228.991H513V342.988H0V228.991Z" fill="#D80027"/>
<path d="M294.565 171.992C294.565 193.015 277.522 205.3 256.499 205.3C235.476 205.3 218.434 193.015 218.434 171.992C218.434 150.969 235.477 133.926 256.5 133.926C277.523 133.926 294.565 150.969 294.565 171.992Z" fill="#FFDA44"/>
<path d="M294.565 171.991C294.565 193.014 277.522 210.057 256.499 210.057C235.476 210.057 218.433 193.014 218.433 171.991" fill="#0052B4"/>
<path d="M232.712 162.479H242.229V181.516H232.712V162.479ZM270.775 162.479H280.291V181.516H270.775V162.479ZM251.737 148.204H261.254V181.512H251.737V148.204Z" fill="#D80027"/>
</g>
<defs>
<clipPath id="clip0_301_525">
<rect width="513" height="342" fill="white" transform="translate(0 0.991211)"/>
</clipPath>
</defs>
</svg>
