<svg width="513" height="343" viewBox="0 0 513 343" fill="none" xmlns="http://www.w3.org/2000/svg">
<g clip-path="url(#clip0_301_513)">
<path d="M0 0.996826H513V342.989H0V0.996826Z" fill="white"/>
<path d="M513 0.996826V171.993H256.5L0 0.996826H513Z" fill="#0052B4"/>
<path d="M513 171.993V342.989H0L256.5 171.993H513Z" fill="#D80027"/>
<path d="M162.224 171.993L134.883 159.133L149.443 132.654L119.753 138.333L115.991 108.341L95.3107 130.399L74.6314 108.341L70.869 138.333L41.1802 132.653L55.7395 159.132L28.3982 171.993L55.7395 184.853L41.1802 211.333L70.871 205.654L74.6314 235.645L95.3107 213.587L115.991 235.645L119.753 205.654L149.442 211.334L134.882 184.855L162.224 171.993ZM21.8314 33.3301L30.9302 46.0509L45.8382 41.3277L36.5521 53.9122L45.6509 66.631L30.8129 61.6894L21.5268 74.2729L21.6441 58.6344L6.80615 53.6908L21.7152 48.9696L21.8314 33.3301ZM21.8314 269.714L30.9302 282.435L45.8382 277.711L36.5521 290.296L45.6509 303.016L30.8129 298.073L21.5268 310.656L21.6441 295.018L6.80615 290.075L21.7152 285.353L21.8314 269.714ZM210.806 151.522L201.707 164.242L186.799 159.52L196.085 172.104L186.986 184.824L201.824 179.882L211.11 192.464L210.993 176.827L225.831 171.883L210.922 167.161L210.806 151.522Z" fill="#FFDA44"/>
</g>
<defs>
<clipPath id="clip0_301_513">
<rect width="513" height="342" fill="white" transform="translate(0 0.99292)"/>
</clipPath>
</defs>
</svg>
