<svg width="513" height="343" viewBox="0 0 513 343" fill="none" xmlns="http://www.w3.org/2000/svg">
<g clip-path="url(#clip0_301_480)">
<path d="M0 0.992676H513V342.996H0V0.992676Z" fill="#0052B4"/>
<path d="M401.478 135.744L384.75 141.32L368.021 135.744L362.445 121.804L368.021 107.864H401.478L395.902 121.804L401.478 135.744Z" fill="#ACABB1"/>
<path d="M345.717 135.744V197.081C345.717 226.96 384.75 236.114 384.75 236.114C384.75 236.114 423.783 226.959 423.783 197.081V135.744H345.717Z" fill="#338AF3"/>
<path d="M349.236 211.611C358.831 230.033 384.75 236.114 384.75 236.114C384.75 236.114 410.67 230.033 420.264 211.611L384.75 152.473L349.236 211.611Z" fill="#6DA544"/>
<path d="M423.783 196.462L384.75 135.744L345.717 196.462V197.081C345.717 202.61 347.056 207.429 349.236 211.612L384.75 156.368L420.264 211.612C422.443 207.429 423.783 202.612 423.783 197.081V196.462Z" fill="#FFDA44"/>
<path d="M256.5 0.992676V31.6054L211.245 56.7534H256.5V116.228H197.282L256.5 149.127V171.989H229.768L156.13 131.083V171.989H100.37V123.321L12.7689 171.989H0V141.375L45.2552 116.228H0V56.7534H59.2184L0 23.8432V0.992676H26.7321L100.37 41.8974V0.992676H156.13V49.6595L243.731 0.992676H256.5Z" fill="white"/>
<path d="M144.281 0.989746H112.219V70.4572H0V102.52H112.219V171.989H144.281V102.52H256.5V70.4572H144.281V0.989746Z" fill="#D80027"/>
<path d="M156.13 116.228L256.5 171.989V156.221L184.513 116.228H156.13Z" fill="#0052B4"/>
<path d="M156.13 116.228L256.5 171.989V156.221L184.513 116.228H156.13Z" fill="white"/>
<path d="M156.13 116.228L256.5 171.989V156.221L184.513 116.228H156.13ZM71.9863 116.228L0 156.221V171.989L100.37 116.228H71.9863Z" fill="#D80027"/>
<path d="M100.37 56.7504L0 0.989746V16.7575L71.9873 56.7504H100.37Z" fill="#0052B4"/>
<path d="M100.37 56.7504L0 0.989746V16.7575L71.9873 56.7504H100.37Z" fill="white"/>
<path d="M100.37 56.7504L0 0.989746V16.7575L71.9873 56.7504H100.37ZM184.514 56.7504L256.5 16.7575V0.989746L156.13 56.7504H184.514Z" fill="#D80027"/>
</g>
<defs>
<clipPath id="clip0_301_480">
<rect width="513" height="342" fill="white" transform="translate(0 0.992676)"/>
</clipPath>
</defs>
</svg>
