<svg width="513" height="343" viewBox="0 0 513 343" fill="none" xmlns="http://www.w3.org/2000/svg">
<g clip-path="url(#clip0_301_463)">
<path d="M0 0.995605H513V342.988H0V0.995605Z" fill="#D80027"/>
<path d="M197.025 0.995605V342.988H0V0.995605H197.025Z" fill="#6DA544"/>
<path d="M197.025 236.117C232.44 236.117 261.15 207.407 261.15 171.992C261.15 136.577 232.44 107.867 197.025 107.867C161.61 107.867 132.9 136.577 132.9 171.992C132.9 207.407 161.61 236.117 197.025 236.117Z" fill="#FFDA44"/>
<path d="M160.952 139.93V180.009C160.952 199.93 177.101 216.079 197.022 216.079C216.943 216.079 233.092 199.93 233.092 180.009V139.93H160.952Z" fill="#D80027"/>
<path d="M197.022 192.031C190.392 192.031 184.999 186.638 184.999 180.008V163.977H209.046V180.008C209.045 186.637 203.651 192.031 197.022 192.031Z" fill="white"/>
</g>
<defs>
<clipPath id="clip0_301_463">
<rect width="513" height="342" fill="white" transform="translate(0 0.991699)"/>
</clipPath>
</defs>
</svg>
