<svg width="513" height="343" viewBox="0 0 513 343" fill="none" xmlns="http://www.w3.org/2000/svg">
<g clip-path="url(#clip0_301_318)">
<path d="M0 0.964722H513V342.957H0V0.964722Z" fill="#FFDA44"/>
<path d="M0 0.964722H513V114.962H0V0.964722ZM0 228.96H513V342.957H0V228.96Z" fill="#6DA544"/>
<path d="M256.5 171.967L0 342.962V0.95874L256.5 171.967Z" fill="#D80027"/>
<path d="M302.639 142.221L310.021 164.939H333.91L314.584 178.983L321.965 201.701L302.639 187.659L283.314 201.701L290.695 178.983L271.369 164.939H295.258L302.639 142.221ZM376.987 142.221L384.368 164.939H408.257L388.931 178.983L396.313 201.701L376.987 187.659L357.661 201.701L365.043 178.983L345.717 164.939H369.606L376.987 142.221Z" fill="black"/>
</g>
<defs>
<clipPath id="clip0_301_318">
<rect width="513" height="342" fill="white" transform="translate(0 0.960693)"/>
</clipPath>
</defs>
</svg>
