<svg width="513" height="343" viewBox="0 0 513 343" fill="none" xmlns="http://www.w3.org/2000/svg">
<g clip-path="url(#clip0_301_267)">
<path d="M0 0.994141H513V342.961H0V0.994141Z" fill="#0052B4"/>
<path d="M256.5 0.994141V118.623H210.31L256.5 149.383V172.028H233.856L160.312 123.032V172.028H96.1875V123.032L22.6441 172.028H0V149.383L46.19 118.623H0V54.4984H46.19L0 23.7385V0.994141H22.6441L96.1875 49.9897V0.994141H160.312V49.9897L233.856 0.994141H256.5Z" fill="white"/>
<path d="M144.281 0.994141H112.219V70.5297H0V102.592H112.219V172.028H144.281V102.592H256.5V70.5297H144.281V0.994141Z" fill="#D80027"/>
<path d="M0 0.994141V16.1236L57.5121 54.4984H80.1562L0 0.994141ZM256.5 0.994141V16.1236L198.988 54.4984H176.344L256.5 0.994141Z" fill="#D80027"/>
<path d="M256.5 23.7385V54.4985H210.31L256.5 23.7385Z" fill="#2E52B2"/>
<path d="M0 0.994141V16.1236L57.5121 54.4984H80.1562L0 0.994141ZM256.5 0.994141V16.1236L198.988 54.4984H176.344L256.5 0.994141Z" fill="#D80027"/>
<path d="M256.5 23.7385V54.4985H210.31L256.5 23.7385Z" fill="#2E52B2"/>
<path d="M0 172.028V156.898L57.5121 118.623H80.1562L0 172.028ZM256.5 172.028V156.898L198.988 118.623H176.344L256.5 172.028Z" fill="#D80027"/>
<path d="M449.777 170.825C449.777 180.444 449.476 200.483 448.374 210.102C444.266 245.07 424.828 279.036 386.153 296.17C340.764 278.235 325.234 245.07 321.126 210.102C320.024 200.483 319.623 190.664 319.623 181.045L319.924 133.853H449.376L449.777 170.825Z" fill="#29DBFF"/>
<path d="M448.374 210.102C448.174 211.705 447.974 213.408 447.773 215.011C442.964 248.176 424.829 280.539 386.153 296.17C342.869 279.136 326.637 248.176 321.828 215.011C321.627 213.408 321.427 211.805 321.227 210.102" fill="white"/>
<path d="M386.153 253.186L363.208 210.102H409.097L386.153 253.186Z" fill="#29DBFF"/>
<path d="M386.153 167.118L363.208 210.102H409.097L386.153 167.118Z" fill="white"/>
<path d="M475.727 281.641C485.024 281.641 492.56 262.217 492.56 238.257C492.56 214.296 485.024 194.872 475.727 194.872C466.431 194.872 458.895 214.296 458.895 238.257C458.895 262.217 466.431 281.641 475.727 281.641Z" fill="#FFBE57"/>
<path d="M295.877 281.641C305.173 281.641 312.71 262.217 312.71 238.257C312.71 214.296 305.173 194.872 295.877 194.872C286.58 194.872 279.044 214.296 279.044 238.257C279.044 262.217 286.58 281.641 295.877 281.641Z" fill="#FFBE57"/>
<path d="M386.153 32.5557L352.688 76.6416H421.321L386.153 32.5557ZM316.116 281.541C316.116 281.541 349.982 311.099 386.153 311.099C422.323 311.099 453.384 281.541 453.384 281.541L461.9 296.17C461.9 296.17 440.058 327.631 386.153 327.631C332.248 327.631 307.6 296.17 307.6 296.17L316.116 281.541Z" fill="white"/>
<path d="M387.054 128.843C406.035 128.843 421.421 118.391 421.421 105.498C421.421 92.6045 406.035 82.1523 387.054 82.1523C368.074 82.1523 352.688 92.6045 352.688 105.498C352.688 118.391 368.074 128.843 387.054 128.843Z" fill="#A5A5A5"/>
</g>
<defs>
<clipPath id="clip0_301_267">
<rect width="513" height="341.967" fill="white" transform="translate(0 0.994141)"/>
</clipPath>
</defs>
</svg>
