<svg width="513" height="343" viewBox="0 0 513 343" fill="none" xmlns="http://www.w3.org/2000/svg">
<g clip-path="url(#clip0_301_239)">
<path d="M0 0.993164H478.8V342.993H0V0.993164Z" fill="white"/>
<path d="M0 0.993164H513V342.993H0V0.993164Z" fill="#073AB6"/>
<path d="M0 0.993164H257.64V171.993H0V0.993164Z" fill="white"/>
<path d="M161.88 0.993164H243.96V160.593H161.88V0.993164Z" fill="#F44653"/>
<path d="M0 0.993164H82.08V160.593H0V0.993164Z" fill="#1035BB"/>
<path d="M82.0791 0.993164H164.159V160.593H82.0791V0.993164ZM330.599 137.793H444.599L433.199 160.593H398.999V171.993H421.799L410.399 194.793H398.999V228.993H376.199V160.593H341.999L330.599 137.793ZM421.799 194.793L444.599 228.993H398.999L421.799 194.793ZM353.399 194.793L376.199 228.993H330.599L353.399 194.793ZM387.599 263.193L364.799 228.993H410.399L387.599 263.193ZM455.999 183.393C449.159 183.393 444.599 178.833 444.599 171.993C444.599 165.153 449.159 160.593 455.999 160.593C462.839 160.593 467.399 165.153 467.399 171.993C467.399 178.833 462.839 183.393 455.999 183.393ZM319.199 183.393C312.359 183.393 307.799 178.833 307.799 171.993C307.799 165.153 312.359 160.593 319.199 160.593C326.039 160.593 330.599 165.153 330.599 171.993C330.599 178.833 326.039 183.393 319.199 183.393ZM341.999 274.593C335.159 274.593 330.599 270.033 330.599 263.193C330.599 256.353 335.159 251.793 341.999 251.793C348.839 251.793 353.399 256.353 353.399 263.193C353.399 270.033 348.839 274.593 341.999 274.593ZM433.199 274.593C426.359 274.593 421.799 270.033 421.799 263.193C421.799 256.353 426.359 251.793 433.199 251.793C440.039 251.793 444.599 256.353 444.599 263.193C444.599 270.033 440.039 274.593 433.199 274.593ZM387.599 297.393C380.759 297.393 376.199 292.833 376.199 285.993C376.199 279.153 380.759 274.593 387.599 274.593C394.439 274.593 398.999 279.153 398.999 285.993C398.999 292.833 394.439 297.393 387.599 297.393Z" fill="white"/>
</g>
<defs>
<clipPath id="clip0_301_239">
<rect width="513" height="342" fill="white" transform="translate(0 0.993164)"/>
</clipPath>
</defs>
</svg>
