<svg width="513" height="343" viewBox="0 0 513 343" fill="none" xmlns="http://www.w3.org/2000/svg">
<g clip-path="url(#clip0_301_187)">
<path d="M0 0.991699H513V342.995H0V0.991699Z" fill="#D80027"/>
<path d="M256.5 268.175C309.623 268.175 352.688 225.111 352.688 171.988C352.688 118.865 309.623 75.8005 256.5 75.8005C203.377 75.8005 160.312 118.865 160.312 171.988C160.312 225.111 203.377 268.175 256.5 268.175Z" fill="white"/>
<path d="M268.35 135.213L284.852 157.953L311.577 149.287L295.049 172.007L311.549 194.746L284.833 186.048L268.306 208.769L268.323 180.674L241.606 171.975L268.333 163.31L268.35 135.213Z" fill="#D80027"/>
<path d="M278.361 228.829C246.97 228.829 221.523 203.382 221.523 171.991C221.523 140.6 246.97 115.153 278.361 115.153C288.149 115.153 297.358 117.628 305.399 121.985C292.785 109.651 275.536 102.038 256.5 102.038C217.867 102.038 186.546 133.358 186.546 171.992C186.546 210.626 217.867 241.946 256.5 241.946C275.536 241.946 292.786 234.333 305.399 221.998C297.357 226.354 288.149 228.829 278.361 228.829Z" fill="#D80027"/>
</g>
<defs>
<clipPath id="clip0_301_187">
<rect width="513" height="342" fill="white" transform="translate(0 0.993652)"/>
</clipPath>
</defs>
</svg>
