<svg width="513" height="343" viewBox="0 0 513 343" fill="none" xmlns="http://www.w3.org/2000/svg">
<g clip-path="url(#clip0_301_180)">
<path d="M0 0.993164H513V342.993H0V0.993164Z" fill="#E30A17"/>
<path d="M259.7 119.593C246.6 110.093 230.7 104.993 214.4 105.093C173.6 105.093 140.6 135.893 140.6 173.993C140.6 212.093 173.7 242.893 214.4 242.893C231.5 242.893 247.3 237.493 259.7 228.393C229.7 266.993 174 273.993 135.4 243.893C96.7996 213.793 89.7996 158.193 119.9 119.593C150 80.9932 205.6 73.9932 244.2 104.093C250 108.593 255.2 113.893 259.7 119.593ZM299.6 185.393L281.5 207.293L282.7 178.893L256.3 168.493L283.6 160.893L285.4 132.593L301 156.293L328.5 149.193L311 171.193L326.3 195.093L299.6 185.393Z" fill="white"/>
</g>
<defs>
<clipPath id="clip0_301_180">
<rect width="513" height="342" fill="white" transform="translate(0 0.993164)"/>
</clipPath>
</defs>
</svg>
