<svg width="513" height="343" viewBox="0 0 513 343" fill="none" xmlns="http://www.w3.org/2000/svg">
<g clip-path="url(#clip0_301_167)">
<path d="M0 0.993164H513V342.993H0V0.993164Z" fill="#0052B4"/>
<path d="M0 171.993H256.5V0.993164H513V342.993H0V171.993Z" fill="#00B2EE"/>
<path d="M196.821 275.106L213.579 326.748L169.632 294.828H224.01L180.063 326.748L196.821 275.106ZM402.648 194.793L419.406 246.435L375.459 214.515H429.78L385.833 246.435L402.648 194.793ZM463.296 150.048L480.054 201.69L436.107 169.77H490.428L446.481 201.69L463.296 150.048ZM463.296 22.3113L480.054 73.9533L436.107 42.0333H490.428L446.481 73.9533L463.296 22.3113Z" fill="#FFDA44"/>
<path d="M256.443 0.993164V118.584H210.273L256.443 149.364V171.993H233.814L160.284 123.03V171.993H96.159V123.03L22.629 171.993H0V149.364L46.17 118.584H0V54.4592H46.17L0 23.7362V0.993164H22.629L96.159 49.9562V0.993164H160.284V49.9562L233.814 0.993164H256.443Z" fill="white"/>
<path d="M144.267 0.993164H112.176V70.5332H0V102.567H112.176V171.993H144.267V102.567H256.443V70.5332H144.267V0.993164Z" fill="#D80027"/>
<path d="M256.443 23.7363V54.4593H210.273L256.443 23.7363Z" fill="#2E52B2"/>
<path d="M0 171.993V160.992L62.643 118.584H85.272L7.296 171.993H0ZM7.296 1.05005L85.272 54.459H62.643L0 12.051V1.05005H7.296ZM256.443 1.10705V12.108L193.8 54.459H171.171L249.147 1.10705H256.443ZM249.147 171.993L171.171 118.584H193.8L256.443 160.992V171.993H249.147Z" fill="#D80027"/>
<path d="M410.343 76.0051L427.101 127.647L383.154 95.7271H437.475L393.528 127.647L410.343 76.0051ZM332.88 107.982L349.638 159.624L305.691 127.704H360.012L316.065 159.624L332.88 107.982ZM349.98 246.435L366.738 298.077L322.791 266.157H377.112L333.165 298.077L349.98 246.435ZM278.16 190.233L294.918 241.875L250.971 209.955H305.292L261.345 241.875L278.16 190.233ZM278.16 265.473L294.918 317.115L250.971 285.195H305.292L261.345 317.115L278.16 265.473Z" fill="#FFDA44"/>
</g>
<defs>
<clipPath id="clip0_301_167">
<rect width="513" height="342" fill="white" transform="translate(0 0.993164)"/>
</clipPath>
</defs>
</svg>
