<svg width="513" height="343" viewBox="0 0 513 343" fill="none" xmlns="http://www.w3.org/2000/svg">
<g clip-path="url(#clip0_301_145)">
<path d="M0 0.993164H513V342.96H0V0.993164Z" fill="#232323"/>
<path d="M0 58.0044H513V115.016H0V58.0044Z" fill="#FFDA44"/>
<path d="M0 115.016H513V172.027H0V115.016Z" fill="#D32300"/>
<path d="M0 229.038H513V286.049H0V229.038Z" fill="#FFDA44"/>
<path d="M0 285.949H513V342.96H0V285.949Z" fill="#D32300"/>
<path d="M256.5 252.884C301.157 252.884 337.358 216.683 337.358 172.027C337.358 127.37 301.157 91.1689 256.5 91.1689C211.844 91.1689 175.643 127.37 175.643 172.027C175.643 216.683 211.844 252.884 256.5 252.884Z" fill="white"/>
<path d="M234.958 128.742C235.86 127.339 215.32 126.738 215.32 126.738C217.023 124.233 233.756 116.218 233.756 116.218C233.756 116.218 232.854 110.206 236.461 106.399L231.952 96.5795C231.952 96.5795 238.966 93.1729 250.388 93.1729C261.81 93.1729 270.327 100.187 271.429 106.298L265.016 109.705C264.916 114.414 266.72 121.328 260.708 127.039C254.797 132.75 252.392 133.952 252.191 145.876C252.191 149.783 254.496 154.092 261.009 157.598C278.443 166.917 299.684 185.854 305.696 191.565C311.808 197.276 310.806 210.802 308.301 216.814C305.796 222.826 296.177 231.142 293.973 230.44C291.769 229.839 295.175 221.222 290.466 218.818C290.466 218.818 281.549 211.203 273.633 219.419C265.718 227.635 273.433 244.668 277.541 247.474C281.649 250.279 279.244 252.483 275.637 252.483H247.482C243.675 252.483 242.072 250.179 245.579 247.474C253.193 243.666 258.003 232.144 252.993 227.134C248.083 222.224 234.657 228.637 231.451 233.446C228.646 236.252 222.634 237.053 218.526 232.044C214.418 227.034 214.418 221.623 217.424 219.519C224.437 214.71 217.424 219.519 217.524 219.419C217.524 219.419 229.447 210.802 247.482 210.401C251.39 210.401 252.292 208.197 249.687 205.592C249.687 205.592 218.726 178.138 221.532 161.306C224.538 142.97 241.571 134.954 234.958 128.742C234.958 128.742 233.655 126.939 234.958 128.742Z" fill="black"/>
</g>
<defs>
<clipPath id="clip0_301_145">
<rect width="513" height="341.967" fill="white" transform="translate(0 0.993164)"/>
</clipPath>
</defs>
</svg>
