<svg width="513" height="343" viewBox="0 0 513 343" fill="none" xmlns="http://www.w3.org/2000/svg">
<g clip-path="url(#clip0_301_117)">
<path d="M0 0.961914H513V342.955H0V0.961914Z" fill="#D80027"/>
<path d="M0 238.872H513V342.954H0V238.872Z" fill="#6DA544"/>
<path d="M0 0.961914H513V105.681H0V0.961914Z" fill="#338AF3"/>
<path d="M0 126.747H513V216.578H0V126.747Z" fill="white"/>
<path d="M0 0.961914H513V105.681H0V0.961914Z" fill="#338AF3"/>
<path d="M189.057 53.3161C189.057 37.3009 200.313 23.9198 215.344 20.6384C212.989 20.1224 210.586 19.8614 208.175 19.8599C189.697 19.8599 174.719 34.8381 174.719 53.3161C174.719 71.7941 189.697 86.7723 208.175 86.7723C210.638 86.7723 213.034 86.4988 215.344 85.9938C200.313 82.7124 189.057 69.3313 189.057 53.3161ZM235.116 68.5227L237.382 75.4933H244.711L238.782 79.8027L241.047 86.7723L235.116 82.4639L229.187 86.7723L231.452 79.8027L225.523 75.4933H232.852L235.116 68.5227ZM258.51 68.5227L260.774 75.4933H268.104L262.174 79.8027L264.44 86.7723L258.51 82.4639L252.581 86.7723L254.845 79.8027L248.916 75.4933H256.245L258.51 68.5227ZM281.903 68.5227L284.167 75.4933H291.496L285.568 79.8027L287.832 86.7723L281.903 82.4639L275.973 86.7723L278.238 79.8027L272.308 75.4933H279.637L281.903 68.5227ZM305.295 68.5227L307.562 75.4933H314.891L308.96 79.8027L311.226 86.7723L305.295 82.4639L299.366 86.7723L301.632 79.8027L295.702 75.4933H303.03L305.295 68.5227ZM328.689 68.5227L330.953 75.4933H338.283L332.353 79.8027L334.618 86.7723L328.689 82.4639L322.759 86.7723L325.024 79.8027L319.095 75.4933H326.423L328.689 68.5227ZM258.51 44.1913L260.774 51.1609H268.104L262.174 55.4693L264.44 62.4399L258.51 58.1325L252.581 62.4399L254.845 55.4693L248.916 51.1609H256.245L258.51 44.1913ZM281.903 44.1913L284.167 51.1609H291.496L285.568 55.4693L287.832 62.4399L281.903 58.1325L275.973 62.4399L278.238 55.4693L272.308 51.1609H279.637L281.903 44.1913ZM305.295 44.1913L307.562 51.1609H314.891L308.96 55.4693L311.226 62.4399L305.295 58.1325L299.366 62.4399L301.632 55.4693L295.702 51.1609H303.03L305.295 44.1913ZM328.689 44.1913L330.953 51.1609H338.283L332.353 55.4693L334.618 62.4399L328.689 58.1325L322.759 62.4399L325.024 55.4693L319.095 51.1609H326.423L328.689 44.1913ZM281.903 19.8599L284.167 26.8295H291.496L285.568 31.1379L287.832 38.1084L281.903 33.8L275.973 38.1084L278.238 31.1379L272.308 26.8295H279.637L281.903 19.8599ZM305.295 19.8599L307.562 26.8295H314.891L308.96 31.1379L311.226 38.1084L305.295 33.8L299.366 38.1084L301.632 31.1379L295.702 26.8295H303.03L305.295 19.8599ZM328.689 19.8599L330.953 26.8295H338.283L332.353 31.1379L334.618 38.1084L328.689 33.8L322.759 38.1084L325.024 31.1379L319.095 26.8295H326.423L328.689 19.8599Z" fill="white"/>
</g>
<defs>
<clipPath id="clip0_301_117">
<rect width="513" height="342" fill="white" transform="translate(0 0.958008)"/>
</clipPath>
</defs>
</svg>
