<svg width="513" height="343" viewBox="0 0 513 343" fill="none" xmlns="http://www.w3.org/2000/svg">
<g clip-path="url(#clip0_301_67)">
<path d="M0 0.994141H513V342.961H0V0.994141Z" fill="white"/>
<path d="M398.477 167.619L347.377 265.51C346.275 267.514 347.076 270.019 349.181 271.121C351.184 272.223 353.689 271.421 354.792 269.317L405.891 171.426C406.893 169.322 405.991 166.817 403.887 165.916C401.883 165.014 399.579 165.715 398.477 167.619Z" fill="#1583C4"/>
<path d="M405.691 189.361L347.778 264.909C346.476 266.812 346.977 269.417 348.881 270.72C350.584 271.922 352.989 271.622 354.391 270.019L412.304 194.471C413.707 192.668 413.406 190.063 411.503 188.66C409.699 187.157 407.094 187.558 405.691 189.361Z" fill="#1583C4"/>
<path d="M379.74 182.648L347.177 265.911C346.375 268.015 347.377 270.52 349.581 271.321C351.685 272.123 354.19 271.121 354.992 268.916L387.555 185.654C388.257 183.45 387.154 181.145 384.95 180.344C382.846 179.743 380.642 180.745 379.74 182.648Z" fill="#1583C4"/>
<path d="M122.339 173.23C122.74 174.933 123.541 177.939 124.543 181.746C126.246 188.159 128.15 194.571 130.154 200.483C132.459 207.396 144.883 231.944 150.394 239.659C157.307 249.378 164.521 258.997 171.936 268.315C173.539 270.219 176.444 270.419 178.348 268.816C180.152 267.213 180.452 264.508 179.049 262.604C171.735 253.386 164.621 243.968 157.808 234.349C153.6 228.538 140.574 203.188 138.771 197.577C135.865 188.86 133.36 179.943 131.156 171.026C130.655 168.621 128.25 167.018 125.846 167.519C123.441 168.02 121.838 170.424 122.339 172.829C122.239 173.029 122.339 173.13 122.339 173.23Z" fill="#409347"/>
<path d="M297.68 116.119C297.68 116.119 280.046 43.8777 261.51 43.8777C254.596 43.8777 249.587 43.2766 246.08 50.2902C245.178 51.9936 225.339 48.6871 226.942 71.1309C227.443 78.0443 228.045 61.3117 241.871 67.7242C248.184 70.7301 225.439 116.018 225.439 116.018H297.68V116.119Z" fill="#FFD836"/>
<path fill-rule="evenodd" clip-rule="evenodd" d="M260.01 43.3709C260.502 43.3743 261.002 43.3777 261.51 43.3777C263.995 43.3777 266.411 44.5877 268.715 46.6056C271.022 48.6255 273.262 51.4919 275.405 54.8991C279.692 61.715 283.648 70.7827 287.015 79.8236C290.384 88.8699 293.171 97.9132 295.116 104.693C296.089 108.083 296.851 110.909 297.37 112.888C297.63 113.877 297.829 114.654 297.963 115.185C297.994 115.31 298.022 115.421 298.046 115.518H298.18V120.275L297.263 116.518H224.629L224.993 115.794L225.44 116.018C224.993 115.794 224.993 115.794 224.993 115.794L224.994 115.792L225.057 115.665C225.1 115.579 225.163 115.453 225.246 115.287C225.41 114.955 225.651 114.468 225.955 113.847C226.564 112.604 227.427 110.825 228.443 108.681C230.475 104.392 233.117 98.6447 235.561 92.8054C238.008 86.9615 240.248 81.044 241.484 76.4095C242.103 74.0876 242.461 72.1197 242.478 70.6565C242.486 69.9243 242.409 69.3505 242.257 68.9324C242.109 68.5228 241.902 68.2932 241.659 68.1766C238.281 66.6105 235.775 66.4862 233.91 67.0051C232.041 67.5253 230.737 68.7134 229.806 69.9207C229.34 70.5243 228.972 71.1276 228.675 71.6483C228.585 71.8048 228.499 71.9602 228.417 72.108C228.24 72.4277 228.082 72.7122 227.953 72.8976C227.903 72.9708 227.845 73.0473 227.779 73.1137C227.721 73.1731 227.617 73.2661 227.469 73.3119C227.283 73.3693 227.084 73.3349 226.927 73.2121C226.801 73.114 226.736 72.9851 226.7 72.9007C226.626 72.7263 226.581 72.4908 226.545 72.229C226.508 71.9545 226.475 71.6024 226.444 71.167C226.038 65.4845 226.986 61.377 228.696 58.3967C230.408 55.4133 232.857 53.6059 235.367 52.4769C237.869 51.3512 240.44 50.8958 242.413 50.614C242.747 50.5663 243.06 50.524 243.352 50.4846C243.936 50.4058 244.433 50.3386 244.841 50.2627C245.146 50.206 245.368 50.1498 245.519 50.0918C245.598 50.0615 245.636 50.0384 245.652 50.0281C247.457 46.4375 249.684 44.7394 252.381 43.9729C254.629 43.3337 257.194 43.3514 260.01 43.3709ZM226.247 115.518H297.015C297.008 115.49 297.001 115.46 296.993 115.43C296.86 114.902 296.662 114.127 296.403 113.141C295.885 111.169 295.125 108.351 294.155 104.969C292.214 98.2035 289.434 89.1866 286.078 80.1726C282.719 71.1533 278.791 62.1608 274.558 55.4316C272.441 52.0662 270.262 49.2888 268.057 47.358C265.849 45.4252 263.659 44.3777 261.51 44.3777C260.985 44.3777 260.473 44.3745 259.976 44.3713C257.15 44.3533 254.753 44.3381 252.654 44.9348C250.25 45.6183 248.225 47.1172 246.527 50.5138L246.522 50.5242C246.376 50.8001 246.094 50.942 245.878 51.025C245.64 51.1166 245.346 51.186 245.024 51.2458C244.592 51.3263 244.053 51.3991 243.452 51.4803C243.165 51.5191 242.864 51.5597 242.554 51.604C240.604 51.8827 238.147 52.3228 235.777 53.3889C233.415 54.4516 231.148 56.1323 229.563 58.8944C227.976 61.6597 227.046 65.5558 227.441 71.095C227.458 71.3304 227.475 71.5352 227.493 71.7122C227.497 71.7045 227.501 71.6968 227.505 71.689C227.592 71.5323 227.691 71.3536 227.806 71.1524C228.114 70.6128 228.509 69.9652 229.014 69.3101C230.024 67.9999 231.494 66.6393 233.642 66.0417C235.794 65.443 238.548 65.6316 242.082 67.2706L242.087 67.2727C242.631 67.5322 242.986 68.0085 243.197 68.5915C243.406 69.1669 243.487 69.8744 243.478 70.6682C243.459 72.257 243.076 74.3204 242.45 76.6671C241.197 81.3694 238.934 87.3377 236.484 93.1916C234.031 99.0501 231.382 104.813 229.347 109.109C228.329 111.258 227.464 113.041 226.853 114.286C226.608 114.788 226.404 115.202 226.247 115.518ZM227.066 72.4125C227.062 72.4167 227.062 72.4171 227.066 72.4125V72.4125Z" fill="#231F20"/>
<path d="M467.011 49.4887L375.933 71.5316C300.486 89.8674 333.751 116.018 333.751 116.018L261.51 128.042L189.269 116.018C189.269 116.018 222.534 89.8674 147.087 71.5316L56.0095 49.4887C43.1845 46.3826 38.1747 52.8953 45.3888 64.1172C45.3888 64.1172 152.197 168.32 172.436 176.336C192.676 184.452 213.316 176.336 213.316 176.336C213.316 176.336 198.387 185.053 189.269 200.383C180.051 215.713 184.66 235.151 150.293 240.661C144.783 247.274 145.284 254.689 153.199 260.6C161.114 266.411 225.44 212.406 225.44 212.406C225.44 212.406 201.393 236.854 201.393 248.577C201.393 253.687 245.579 302.482 261.61 302.482C277.642 302.482 321.828 253.687 321.828 248.577C321.828 236.854 297.781 212.406 297.781 212.406C297.781 212.406 362.106 266.411 370.022 260.6C377.937 254.789 381.444 241.262 372.827 240.661C344.772 238.858 343.069 215.713 333.851 200.383C324.633 185.053 309.804 176.336 309.804 176.336C309.804 176.336 330.444 184.452 350.684 176.336C370.923 168.22 477.631 64.1172 477.631 64.1172C484.845 52.8953 479.936 46.3826 467.011 49.4887Z" fill="#FFD836"/>
<path fill-rule="evenodd" clip-rule="evenodd" d="M56.1271 49.0027C56.127 49.0027 56.1271 49.0027 56.1271 49.0027L147.205 71.0457C166.093 75.636 178.225 80.726 185.786 85.803C193.353 90.8838 196.386 95.9844 196.967 100.588C197.546 105.177 195.672 109.145 193.696 111.935C192.705 113.333 191.68 114.449 190.902 115.215C190.718 115.396 190.548 115.557 190.396 115.699L261.51 127.535L332.624 115.699C332.471 115.557 332.302 115.396 332.118 115.215C331.34 114.449 330.315 113.333 329.324 111.935C327.348 109.145 325.474 105.177 326.053 100.588C326.634 95.9844 329.667 90.8838 337.234 85.803C344.795 80.726 356.927 75.6362 375.815 71.0458L466.893 49.0027C470.165 48.2165 472.966 48.0293 475.217 48.3923C477.471 48.7557 479.206 49.6776 480.276 51.1339C481.347 52.5919 481.694 54.5077 481.326 56.7417C480.959 58.971 479.878 61.5468 478.052 64.3875L478.021 64.4354L477.98 64.4751L477.631 64.1172C477.98 64.4751 477.98 64.4755 477.979 64.4763L477.976 64.4799L477.673 64.7743C477.471 64.9716 477.17 65.2645 476.776 65.6468C475.99 66.4115 474.833 67.534 473.354 68.9655C470.397 71.8284 466.149 75.9272 460.988 80.8711C450.666 90.7588 436.693 104.027 422.087 117.55C407.482 131.072 392.24 144.851 379.381 155.759C372.953 161.213 367.115 165.952 362.249 169.585C357.396 173.206 353.468 175.758 350.87 176.8C340.644 180.901 330.33 180.896 322.589 179.875C318.716 179.364 315.48 178.598 313.21 177.958C313.188 177.952 313.165 177.946 313.143 177.94C314.626 178.984 316.548 180.421 318.693 182.228C323.578 186.346 329.633 192.398 334.28 200.125C336.458 203.749 338.219 207.801 339.987 211.871C340.106 212.144 340.224 212.417 340.343 212.69C342.239 217.047 344.178 221.399 346.696 225.324C349.21 229.245 352.293 232.725 356.463 235.339C360.632 237.952 365.916 239.716 372.859 240.162L372.862 240.163C375.168 240.323 376.73 241.366 377.579 242.98C378.411 244.561 378.521 246.618 378.115 248.77C377.303 253.074 374.38 258.021 370.317 261.003C369.682 261.469 368.824 261.596 367.864 261.515C366.896 261.433 365.752 261.135 364.473 260.667C361.913 259.731 358.72 258.08 355.139 255.951C347.972 251.692 339.172 245.473 330.633 239.083C322.091 232.69 313.798 226.117 307.641 221.143C306.034 219.845 304.573 218.655 303.291 217.606C305.327 219.888 307.761 222.716 310.196 225.785C313.209 229.583 316.232 233.76 318.504 237.731C320.765 241.683 322.328 245.506 322.328 248.577C322.328 249.029 322.1 249.615 321.772 250.253C321.432 250.916 320.937 251.721 320.311 252.641C319.059 254.483 317.259 256.822 315.058 259.474C310.653 264.782 304.617 271.373 298.081 277.802C291.547 284.23 284.501 290.508 278.076 295.182C274.865 297.519 271.798 299.463 269.02 300.824C266.252 302.181 263.727 302.982 261.61 302.982C259.493 302.982 256.968 302.181 254.2 300.824C251.422 299.463 248.356 297.519 245.144 295.182C238.719 290.508 231.674 284.23 225.139 277.802C218.603 271.373 212.567 264.782 208.163 259.474C205.961 256.822 204.161 254.483 202.909 252.641C202.284 251.721 201.789 250.916 201.448 250.253C201.121 249.615 200.893 249.029 200.893 248.577C200.893 245.506 202.455 241.683 204.716 237.731C206.988 233.76 210.011 229.583 213.024 225.785C215.459 222.716 217.893 219.888 219.93 217.606C218.647 218.655 217.186 219.845 215.579 221.143C209.422 226.117 201.129 232.69 192.587 239.083C184.048 245.473 175.248 251.692 168.081 255.951C164.5 258.08 161.307 259.731 158.747 260.667C157.468 261.135 156.325 261.433 155.357 261.515C154.396 261.596 153.538 261.469 152.903 261.003L152.9 261.001C148.868 257.989 146.662 254.547 146.215 250.956C145.768 247.363 147.091 243.723 149.909 240.341L150.029 240.197L150.214 240.168C158.761 238.797 164.848 236.566 169.321 233.775C173.787 230.987 176.666 227.625 178.779 223.955C180.831 220.388 182.159 216.533 183.517 212.593C183.561 212.464 183.606 212.335 183.65 212.206C185.05 208.146 186.505 204.01 188.84 200.127C188.84 200.126 188.84 200.126 188.841 200.125L189.268 200.382L188.84 200.127C188.84 200.127 188.84 200.127 188.84 200.127C193.436 192.398 199.492 186.345 204.39 182.228C206.535 180.425 208.46 178.991 209.948 177.948C211.065 177.632 211.946 177.348 212.551 177.142C212.857 177.038 213.092 176.953 213.252 176.894C213.332 176.865 213.393 176.842 213.434 176.826L213.481 176.808L213.494 176.803L213.497 176.802L213.498 176.801C213.499 176.801 213.499 176.801 213.316 176.336C213.064 175.904 213.064 175.904 213.063 175.904L213.06 175.906L213.051 175.911L213.017 175.932C212.988 175.949 212.944 175.975 212.887 176.01C212.773 176.079 212.606 176.182 212.39 176.317C211.959 176.589 211.335 176.993 210.558 177.525C210.364 177.658 210.161 177.799 209.948 177.948C209.936 177.951 209.923 177.955 209.91 177.958C207.641 178.598 204.404 179.364 200.531 179.875C192.791 180.896 182.477 180.901 172.252 176.801C172.252 176.801 172.252 176.801 172.252 176.801L172.436 176.336L172.25 176.8C172.251 176.8 172.251 176.8 172.252 176.801C169.653 175.771 165.722 173.228 160.868 169.614C155.998 165.988 150.157 161.253 143.723 155.802C130.856 144.898 115.601 131.116 100.983 117.588C86.3643 104.059 72.3786 90.7807 62.0478 80.8852C56.8824 75.9374 52.6305 71.8351 49.6699 68.9696C48.1896 67.5368 47.0321 66.4133 46.2446 65.6479C45.8509 65.2652 45.5497 64.9721 45.3468 64.7745L45.0407 64.4763C45.0399 64.4755 45.0395 64.4751 45.3887 64.1172L45.8092 63.8468C45.799 63.8309 45.7888 63.815 45.7786 63.7991L46.0445 64.0581C46.2471 64.2554 46.5481 64.5484 46.9416 64.9308C47.7286 65.6958 48.8856 66.8188 50.3653 68.251C53.3249 71.1155 57.5755 75.2166 62.7395 80.1631C73.0678 90.0561 87.0491 103.33 101.662 116.854C116.276 130.378 131.519 144.149 144.37 155.039C150.796 160.484 156.619 165.204 161.465 168.812C166.325 172.43 170.159 174.896 172.62 175.871L172.622 175.872C182.636 179.887 192.762 179.891 200.401 178.884C204.218 178.38 207.406 177.625 209.639 176.996C210.755 176.682 211.632 176.399 212.228 176.196C212.526 176.094 212.754 176.012 212.907 175.956C212.983 175.928 213.04 175.906 213.078 175.892L213.12 175.875L213.133 175.871L213.568 176.767L213.566 176.769L213.559 176.773L213.528 176.791C213.511 176.802 213.487 176.816 213.457 176.834C213.441 176.843 213.424 176.854 213.405 176.865C213.296 176.931 213.134 177.031 212.923 177.163C212.502 177.429 211.889 177.825 211.123 178.35C209.593 179.399 207.455 180.958 205.033 182.993C200.188 187.067 194.22 193.037 189.699 200.638L189.698 200.64C187.424 204.422 185.998 208.463 184.596 212.532L184.451 212.951C183.103 216.866 181.747 220.802 179.645 224.454C177.462 228.248 174.473 231.737 169.85 234.623C165.267 237.484 159.099 239.737 150.559 241.125C150.598 241.077 150.637 241.029 150.677 240.981L150.293 240.661L150.372 241.155C150.435 241.145 150.497 241.135 150.559 241.125C147.95 244.313 146.809 247.634 147.207 250.832C147.612 254.078 149.614 257.298 153.495 260.198C153.495 260.197 153.496 260.198 153.495 260.198L153.199 260.6L153.498 260.2C153.497 260.199 153.496 260.198 153.495 260.198C153.85 260.458 154.421 260.59 155.273 260.518C156.116 260.447 157.166 260.181 158.404 259.728C160.877 258.824 164.007 257.209 167.57 255.092C174.691 250.86 183.456 244.667 191.988 238.282C200.517 231.9 208.799 225.335 214.951 220.365C218.026 217.88 220.569 215.794 222.342 214.33C223.228 213.598 223.923 213.021 224.395 212.627C224.632 212.43 224.812 212.279 224.934 212.177L225.107 212.033L225.115 212.026L225.117 212.024C225.118 212.023 225.118 212.023 225.44 212.406C225.796 212.757 225.796 212.757 225.796 212.757L225.779 212.774L225.728 212.826C225.683 212.872 225.616 212.941 225.529 213.031C225.354 213.212 225.096 213.48 224.769 213.824C224.113 214.513 223.176 215.511 222.052 216.746C219.803 219.216 216.805 222.629 213.808 226.406C210.81 230.185 207.821 234.318 205.584 238.228C203.336 242.157 201.893 245.786 201.893 248.577C201.893 248.764 202.01 249.157 202.338 249.796C202.652 250.408 203.122 251.176 203.736 252.079C204.963 253.884 206.741 256.195 208.932 258.836C213.313 264.115 219.326 270.681 225.84 277.089C232.356 283.499 239.363 289.739 245.732 294.373C248.917 296.691 251.933 298.599 254.64 299.926C257.357 301.258 259.719 301.982 261.61 301.982C263.501 301.982 265.863 301.258 268.58 299.926C271.288 298.599 274.303 296.691 277.488 294.373C283.857 289.739 290.864 283.499 297.38 277.089C303.894 270.681 309.907 264.115 314.288 258.836C316.48 256.195 318.257 253.884 319.484 252.079C320.098 251.176 320.568 250.408 320.883 249.796C321.21 249.157 321.328 248.764 321.328 248.577C321.328 245.786 319.884 242.157 317.636 238.228C315.399 234.318 312.411 230.185 309.412 226.406C306.416 222.629 303.418 219.216 301.168 216.746C300.044 215.511 299.107 214.513 298.452 213.824C298.331 213.698 298.22 213.582 298.12 213.476C297.946 213.295 297.802 213.146 297.691 213.031C297.604 212.941 297.537 212.872 297.492 212.826L297.441 212.774L297.424 212.757C297.424 212.757 297.424 212.757 297.476 212.706L297.424 212.757L298.102 212.023L298.08 212.051C298.103 212.024 298.102 212.023 298.102 212.023L298.105 212.026L298.114 212.033L298.286 212.177C298.408 212.279 298.589 212.43 298.825 212.627C299.298 213.021 299.992 213.598 300.879 214.33C302.652 215.794 305.194 217.88 308.269 220.365C314.421 225.335 322.704 231.9 331.232 238.282C339.764 244.667 348.53 250.86 355.65 255.092C359.213 257.209 362.344 258.824 364.817 259.728C366.054 260.181 367.104 260.447 367.948 260.518C368.8 260.59 369.371 260.457 369.726 260.197C373.579 257.368 376.366 252.646 377.132 248.584C377.516 246.553 377.381 244.752 376.694 243.446C376.025 242.174 374.795 241.3 372.794 241.16C365.71 240.705 360.261 238.899 355.932 236.186C351.605 233.474 348.425 229.872 345.854 225.864C343.287 221.862 341.319 217.441 339.426 213.089C339.31 212.822 339.193 212.554 339.077 212.287C337.302 208.201 335.566 204.205 333.422 200.64C328.851 193.038 322.882 187.067 318.049 182.993C315.633 180.957 313.505 179.398 311.982 178.349C311.22 177.825 310.61 177.428 310.192 177.163C310.07 177.086 309.964 177.02 309.876 176.965C309.813 176.926 309.758 176.892 309.713 176.864C309.658 176.831 309.617 176.807 309.59 176.79L309.56 176.772L309.553 176.768L309.551 176.767L309.987 175.871L309.99 175.872L310 175.875L310.042 175.892C310.08 175.906 310.137 175.928 310.214 175.956C310.366 176.012 310.594 176.094 310.892 176.196C311.488 176.399 312.365 176.682 313.481 176.996C315.714 177.625 318.902 178.38 322.72 178.884C330.358 179.891 340.484 179.887 350.498 175.872C352.96 174.885 356.793 172.408 361.65 168.783C366.493 165.169 372.313 160.444 378.734 154.997C391.576 144.103 406.806 130.335 421.408 116.816C436.008 103.299 449.977 90.0343 460.296 80.149C465.455 75.2064 469.702 71.1088 472.659 68.2469C474.137 66.816 475.293 65.694 476.079 64.9297C476.473 64.5476 476.773 64.255 476.976 64.0578L477.241 63.7991C479.003 61.0485 480.004 58.6184 480.339 56.5792C480.676 54.533 480.34 52.9107 479.47 51.726C478.599 50.5396 477.134 49.7144 475.058 49.3795C472.979 49.0443 470.319 49.208 467.128 49.9746M467.128 49.9746L376.051 72.0175C357.216 76.595 345.213 81.6499 337.792 86.6332C330.376 91.6125 327.579 96.4877 327.045 100.714C326.51 104.954 328.237 108.67 330.14 111.357C331.089 112.696 332.073 113.767 332.82 114.503C333.193 114.87 333.506 115.153 333.724 115.343C333.833 115.438 333.918 115.51 333.976 115.557C334.005 115.581 334.026 115.598 334.04 115.61L334.056 115.622L334.059 115.625L334.951 116.326L261.51 128.549L188.069 116.326L188.96 115.625L188.964 115.622L188.979 115.61C188.994 115.598 189.015 115.581 189.044 115.557C189.101 115.51 189.187 115.438 189.296 115.343C189.514 115.153 189.827 114.87 190.2 114.503C190.947 113.767 191.931 112.696 192.88 111.357C194.783 108.67 196.51 104.954 195.975 100.714C195.441 96.4877 192.644 91.6125 185.228 86.6332C177.807 81.6499 165.804 76.595 146.969 72.0176M146.969 72.0176L55.8917 49.9746C52.7264 49.208 50.079 49.0443 48.0046 49.3795C45.933 49.7143 44.4645 50.5396 43.5864 51.7272C42.7098 52.9129 42.3657 54.5357 42.6948 56.581C43.0229 58.6194 44.0172 61.049 45.7786 63.7991L45.739 63.7605C45.7382 63.7597 45.7378 63.7593 45.3887 64.1172L45.0395 64.4751L44.9988 64.4354L44.9681 64.3875C43.1415 61.5463 42.0664 58.9699 41.7075 56.7399C41.3479 54.505 41.7052 52.5896 42.7823 51.1327C43.8581 49.6776 45.5958 48.7558 47.8451 48.3923C50.0917 48.0293 52.8799 48.2163 56.1271 49.0027M225.44 212.406L225.796 212.757L225.117 212.024L225.44 212.406Z" fill="#231F20"/>
<path d="M201.693 113.013V193.469C201.693 239.259 261.51 253.286 261.51 253.286C261.51 253.286 321.327 239.259 321.327 193.469V113.013H201.693Z" fill="white"/>
<path fill-rule="evenodd" clip-rule="evenodd" d="M201.693 112.513H321.827V193.469C321.827 216.617 306.699 231.704 291.681 240.974C284.166 245.612 276.656 248.811 271.027 250.849C268.211 251.868 265.864 252.598 264.219 253.074C263.397 253.312 262.75 253.486 262.308 253.601C262.086 253.659 261.917 253.701 261.801 253.73C261.744 253.744 261.7 253.755 261.67 253.762L261.636 253.77L261.628 253.772L261.625 253.773C261.625 253.773 261.624 253.773 261.51 253.286C261.396 253.773 261.395 253.773 261.395 253.773L261.392 253.772L261.384 253.77L261.35 253.762C261.32 253.755 261.276 253.744 261.219 253.73C261.103 253.701 260.933 253.659 260.712 253.601C260.27 253.486 259.623 253.312 258.801 253.074C257.156 252.598 254.809 251.868 251.993 250.849C246.364 248.811 238.854 245.612 231.339 240.974C216.321 231.704 201.193 216.617 201.193 193.469V113.013H201.693V112.513ZM202.193 113.513V193.469C202.193 216.111 216.974 230.932 231.864 240.123C239.304 244.715 246.748 247.886 252.334 249.909C255.126 250.92 257.452 251.643 259.079 252.113C259.892 252.349 260.53 252.52 260.964 252.633C261.181 252.69 261.347 252.731 261.458 252.759C261.477 252.764 261.494 252.768 261.51 252.772C261.526 252.768 261.543 252.764 261.562 252.759C261.673 252.731 261.839 252.69 262.056 252.633C262.49 252.52 263.128 252.349 263.941 252.113C265.568 251.643 267.894 250.92 270.686 249.909C276.272 247.886 283.716 244.715 291.156 240.123C306.046 230.932 320.827 216.111 320.827 193.469V113.513H202.193ZM261.51 253.286L261.396 253.773L261.51 253.8L261.624 253.773L261.51 253.286Z" fill="#231F20"/>
<path d="M225.64 138.963V236.453C233.856 242.465 242.673 246.673 249.586 249.378V138.963H225.64ZM297.379 138.963V236.453C289.163 242.465 280.346 246.673 273.433 249.378V138.963H297.379Z" fill="#D80027"/>
<path d="M201.693 113.013H321.327V150.987H201.693V113.013Z" fill="#0052B4"/>
<path d="M60.2172 211.905L38.2744 153.692H15.7305L47.5926 234.65H72.8418L104.403 153.692H81.8594L60.2172 211.905ZM452.382 153.191H471.319V235.05H452.382V153.191Z" fill="#1583C4"/>
</g>
<defs>
<clipPath id="clip0_301_67">
<rect width="513" height="341.967" fill="white" transform="translate(0 0.994141)"/>
</clipPath>
</defs>
</svg>
