<svg width="513" height="343" viewBox="0 0 513 343" fill="none" xmlns="http://www.w3.org/2000/svg">
<g clip-path="url(#clip0_301_27)">
<path d="M0 0.954102H513V342.954H0V0.954102Z" fill="white"/>
<path d="M430.92 226.673C424.65 230.663 430.92 236.933 427.5 237.503C424.08 238.073 418.95 229.523 426.36 223.253C435.48 214.703 459.42 223.253 459.99 247.763C459.99 260.303 454.86 286.523 418.95 286.523C375.63 286.523 353.97 254.033 353.97 221.543C353.97 194.183 375.06 144.593 391.02 138.323C408.69 131.483 429.21 118.373 429.78 109.823C429.78 106.973 421.8 109.253 410.97 114.953C393.3 124.643 373.35 129.203 373.35 122.933C373.35 116.663 389.88 105.263 396.15 96.7133C402.99 87.5933 401.28 65.3633 413.25 65.3633C456.57 65.3633 469.68 109.253 453.15 132.053C442.32 146.873 477.66 137.753 477.66 137.753C477.66 137.753 477.66 167.963 459.42 179.363C442.32 189.623 432.06 201.593 432.06 201.593C432.06 201.593 433.2 175.373 429.21 179.363C425.79 183.353 365.94 205.013 370.5 247.763C372.21 264.863 396.15 278.543 418.95 277.403C441.75 276.263 451.44 263.723 452.01 249.473C452.58 227.243 434.91 224.393 430.92 226.673ZM60.9898 249.473C61.5598 263.723 71.2498 276.263 94.0498 277.403C116.85 278.543 140.79 264.863 142.5 247.763C147.06 205.013 87.2098 183.353 83.7898 179.363C79.7998 175.373 80.9398 201.593 80.9398 201.593C80.9398 201.593 70.6798 189.623 53.5798 179.363C35.3398 167.963 35.3398 137.753 35.3398 137.753C35.3398 137.753 70.6798 146.873 59.8498 132.053C43.3198 109.253 56.4298 65.3633 99.7498 65.3633C111.72 65.3633 110.01 87.5933 116.85 96.7133C123.12 105.263 139.65 116.663 139.65 122.933C139.65 129.203 119.7 124.643 102.03 114.953C91.1998 109.253 83.2198 106.973 83.2198 109.823C83.7898 118.373 104.31 131.483 121.98 138.323C137.94 144.593 159.03 194.183 159.03 221.543C159.03 254.033 137.37 286.523 94.0498 286.523C58.1398 286.523 53.0098 260.303 53.0098 247.763C53.5798 223.253 77.5198 214.703 86.6398 223.253C93.4798 229.523 88.9198 238.643 85.4998 237.503C82.0798 236.933 88.9198 230.663 82.0798 226.673C78.6598 224.393 60.9898 227.243 60.9898 249.473Z" fill="#ABABAB"/>
<path fill-rule="evenodd" clip-rule="evenodd" d="M57.4688 90.2123C50.8596 103.999 51.7166 120.622 59.951 131.98C61.3098 133.839 61.9586 135.341 62.0309 136.546C62.1039 137.763 61.5875 138.662 60.6598 139.299C59.7403 139.93 58.4186 140.303 56.8692 140.494C55.3172 140.684 53.5234 140.693 51.649 140.586C47.8999 140.371 43.8144 139.693 40.6682 139.069C39.0946 138.757 37.7551 138.459 36.8088 138.238C36.3357 138.128 35.9608 138.037 35.7042 137.973C35.6079 137.95 35.5282 137.93 35.4663 137.914C35.4669 137.963 35.4679 138.023 35.4693 138.093C35.4737 138.316 35.4826 138.645 35.5004 139.068C35.5359 139.915 35.607 141.137 35.7493 142.64C36.0339 145.646 36.603 149.772 37.741 154.253C40.0183 163.219 44.567 173.582 53.645 179.257C62.2033 184.392 69.0496 189.954 73.7564 194.233C76.11 196.373 77.929 198.192 79.1598 199.476C79.7752 200.118 80.2436 200.627 80.5583 200.975C80.6532 201.08 80.7341 201.17 80.8008 201.246C80.7937 201.057 80.7843 200.798 80.7737 200.479C80.7503 199.769 80.7214 198.76 80.6991 197.561C80.6545 195.164 80.6367 192.009 80.7437 188.978C80.8506 185.949 81.0823 183.035 81.5397 181.124C81.6542 180.646 81.7836 180.227 81.9302 179.884C82.0762 179.542 82.2427 179.267 82.4355 179.083C82.6314 178.895 82.8597 178.798 83.1163 178.831C83.366 178.864 83.6195 179.016 83.8782 179.275L83.885 179.282C84.0847 179.515 84.5028 179.824 85.1288 180.213C85.7506 180.599 86.5639 181.056 87.541 181.585C88.4052 182.052 89.3957 182.575 90.4929 183.154C90.6358 183.23 90.7805 183.306 90.927 183.383C92.1979 184.054 93.6011 184.797 95.1069 185.612C101.13 188.873 108.796 193.294 116.213 198.929C131.042 210.193 144.911 226.334 142.624 247.776M35.3398 137.753L35.3711 137.632L35.2148 137.592L35.2148 137.753H35.3398ZM101.971 115.063C110.814 119.913 120.23 123.48 127.439 125.05C131.042 125.835 134.106 126.124 136.274 125.818C137.358 125.665 138.231 125.362 138.835 124.886C139.445 124.406 139.775 123.756 139.775 122.933C139.775 122.123 139.508 121.239 139.039 120.301C138.57 119.362 137.894 118.362 137.067 117.316C135.414 115.225 133.146 112.94 130.688 110.588C129.652 109.598 128.583 108.596 127.511 107.591C123.485 103.817 119.42 100.006 116.951 96.6393L116.95 96.6383C115.254 94.3772 114.083 91.296 113.096 87.9321C112.602 86.2514 112.155 84.5034 111.711 82.7553L111.65 82.5164C111.226 80.8489 110.803 79.184 110.344 77.5838C109.381 74.2331 108.254 71.151 106.611 68.9054C104.962 66.6534 102.79 65.2383 99.7498 65.2383C78.0413 65.2383 63.8902 76.2388 57.2434 90.1042C50.6001 103.962 51.4531 120.684 59.7486 132.127C61.0972 133.972 61.7133 135.427 61.7813 136.561C61.8486 137.682 61.3808 138.501 60.5183 139.093C59.6477 139.691 58.3732 140.057 56.8388 140.245C55.307 140.433 53.5294 140.443 51.6632 140.336C47.931 140.123 43.8584 139.447 40.7168 138.824C39.1465 138.513 37.8097 138.215 36.8656 137.994C36.3936 137.884 36.0197 137.794 35.764 137.731C35.6362 137.699 35.5378 137.675 35.4715 137.658L35.3963 137.639L35.3774 137.634L35.3726 137.633L35.3711 137.632C35.3708 137.632 35.3711 137.632 35.3398 137.753M116.749 96.7877C115.025 94.4889 113.845 91.3715 112.856 88.0026C112.361 86.3167 111.913 84.5645 111.468 82.8169L111.408 82.5789C110.984 80.9104 110.562 79.249 110.103 77.6528C109.142 74.3059 108.025 71.2606 106.409 69.0531C104.798 66.8519 102.695 65.4883 99.7498 65.4883C78.1384 65.4883 64.0745 76.4327 57.4688 90.2123M396.251 96.7872C397.974 94.4884 399.155 91.3712 400.144 88.0026L396.251 96.7872ZM411.029 115.063C402.186 119.913 392.77 123.48 385.56 125.05C381.957 125.835 378.894 126.124 376.726 125.818C375.642 125.665 374.769 125.362 374.164 124.886C373.554 124.406 373.225 123.756 373.225 122.933C373.225 122.123 373.492 121.239 373.961 120.301C374.43 119.362 375.106 118.362 375.933 117.316C377.586 115.225 379.854 112.94 382.312 110.588C383.347 109.598 384.416 108.596 385.488 107.591C389.514 103.817 393.58 100.006 396.049 96.6394L396.05 96.6383C397.746 94.3772 398.916 91.296 399.904 87.9321C400.398 86.2514 400.845 84.5034 401.289 82.7553L401.35 82.517C401.773 80.8492 402.196 79.1841 402.656 77.5838C403.618 74.2331 404.745 71.151 406.389 68.9054C408.038 66.6534 410.21 65.2383 413.25 65.2383C434.958 65.2383 449.11 76.2388 455.756 90.1042C462.4 103.962 461.547 120.684 453.251 132.127C451.903 133.972 451.286 135.427 451.218 136.561C451.151 137.682 451.619 138.501 452.481 139.093C453.352 139.691 454.627 140.057 456.161 140.245C457.693 140.433 459.47 140.443 461.337 140.336C465.069 140.123 469.141 139.447 472.283 138.824C473.853 138.513 475.19 138.215 476.134 137.994C476.606 137.884 476.98 137.794 477.236 137.731C477.364 137.699 477.462 137.675 477.528 137.658L477.603 137.639L477.628 137.632C477.629 137.632 477.629 137.632 477.66 137.753C477.785 137.753 477.785 137.753 477.785 137.754V137.755L477.785 137.759L477.785 137.776L477.784 137.841C477.784 137.899 477.783 137.985 477.78 138.098C477.776 138.323 477.767 138.654 477.749 139.079C477.713 139.929 477.642 141.156 477.499 142.663C477.214 145.678 476.643 149.818 475.501 154.314C473.218 163.302 468.647 173.743 459.486 179.469L459.484 179.47C450.943 184.595 444.109 190.147 439.411 194.418C437.063 196.554 435.248 198.368 434.02 199.649C433.407 200.289 432.94 200.796 432.627 201.143C432.47 201.316 432.352 201.449 432.273 201.539C432.234 201.584 432.204 201.618 432.184 201.641L432.162 201.666L432.157 201.673L432.155 201.674C432.155 201.674 432.155 201.675 432.06 201.593C431.935 201.588 431.935 201.588 431.935 201.588L431.936 201.569L431.938 201.513C431.94 201.464 431.943 201.39 431.947 201.295C431.954 201.104 431.964 200.825 431.976 200.47C432 199.762 432.028 198.754 432.051 197.556C432.095 195.162 432.113 192.011 432.006 188.986C431.899 185.959 431.668 183.066 431.217 181.183C431.104 180.712 430.979 180.308 430.84 179.982C430.7 179.655 430.549 179.414 430.392 179.263C430.237 179.115 430.081 179.058 429.915 179.079C429.744 179.101 429.54 179.211 429.302 179.448C429.073 179.714 428.624 180.04 428.003 180.425C427.374 180.816 426.556 181.275 425.578 181.804C424.712 182.273 423.719 182.797 422.622 183.376L422.189 183.604C420.919 184.275 419.516 185.018 418.012 185.832C411.993 189.091 404.341 193.505 396.938 199.128C382.128 210.378 368.351 226.443 370.624 247.75C371.474 256.245 377.849 263.912 386.88 269.316C395.908 274.719 407.569 277.847 418.944 277.278C430.322 276.71 438.413 273.297 443.73 268.264C449.046 263.231 451.601 256.567 451.885 249.469C452.169 238.393 447.911 232.166 443.106 228.986C440.7 227.394 438.153 226.563 435.962 226.272C433.766 225.98 431.948 226.231 430.984 226.78M432.06 201.593L431.935 201.588L431.919 201.949L432.155 201.674L432.06 201.593ZM432.199 201.246C432.203 201.24 432.208 201.235 432.213 201.23C432.277 201.158 432.353 201.073 432.441 200.975C432.756 200.627 433.225 200.118 433.84 199.476C435.071 198.192 436.89 196.373 439.243 194.233C443.95 189.954 450.797 184.391 459.355 179.256C468.433 173.582 472.981 163.219 475.259 154.253C476.397 149.772 476.966 145.646 477.25 142.64C477.393 141.137 477.464 139.915 477.499 139.068C477.517 138.645 477.526 138.316 477.53 138.093C477.532 138.023 477.533 137.963 477.533 137.914L477.501 137.922C477.445 137.936 477.376 137.954 477.296 137.973C477.039 138.037 476.664 138.128 476.191 138.238C475.245 138.459 473.905 138.757 472.332 139.069C469.185 139.693 465.1 140.371 461.351 140.586C459.476 140.693 457.683 140.684 456.13 140.494C454.581 140.303 453.259 139.93 452.34 139.299C451.412 138.662 450.896 137.763 450.969 136.546C451.041 135.341 451.69 133.839 453.049 131.98C461.283 120.622 462.14 103.999 455.531 90.2123C448.925 76.4327 434.861 65.4883 413.25 65.4883C410.305 65.4883 408.202 66.8519 406.591 69.0531C404.975 71.2606 403.858 74.3059 402.896 77.6528C402.438 79.2487 402.016 80.9097 401.592 82.5778L401.531 82.8169C401.087 84.5645 400.639 86.3167 400.144 88.0026M432.199 201.246C432.202 201.153 432.207 201.043 432.211 200.917C432.216 200.787 432.221 200.641 432.226 200.479C432.249 199.769 432.278 198.76 432.301 197.561C432.345 195.164 432.363 192.009 432.256 188.978C432.149 185.949 431.917 183.035 431.46 181.124C431.346 180.646 431.216 180.227 431.07 179.884C430.924 179.542 430.757 179.267 430.564 179.083C430.368 178.895 430.14 178.798 429.883 178.831C429.634 178.864 429.38 179.016 429.122 179.275L429.115 179.282C428.915 179.515 428.497 179.824 427.871 180.213C427.249 180.599 426.436 181.056 425.459 181.585C424.594 182.052 423.603 182.576 422.505 183.155L422.073 183.383C420.802 184.054 419.399 184.797 417.893 185.612C411.87 188.873 404.204 193.294 396.787 198.929C381.957 210.193 368.088 226.334 370.376 247.777C371.236 256.381 377.686 264.105 386.752 269.531C395.821 274.958 407.531 278.099 418.956 277.528C430.378 276.957 438.531 273.529 443.902 268.445C449.273 263.361 451.849 256.631 452.135 249.478L452.135 249.476C452.421 238.324 448.129 232.01 443.244 228.778C440.805 227.163 438.221 226.32 435.995 226.024C433.775 225.728 431.89 225.975 430.858 226.565M477.66 137.753L477.785 137.754V137.592L477.628 137.632L477.66 137.753Z" fill="#7F7F7F"/>
<path d="M176.7 165.115V244.915C176.7 255.745 188.67 254.035 188.67 254.035H241.68C248.52 254.035 256.5 267.145 256.5 267.145C256.5 267.145 264.48 254.035 270.75 254.035H325.47C325.47 254.035 336.87 255.175 336.87 243.775V164.545H176.7V165.115Z" fill="#DE393A"/>
<path d="M176.7 75.625H336.3V165.115H176.7V75.625Z" fill="#3951A3"/>
<path d="M285.57 95.0039C283.29 108.684 271.32 118.944 256.5 118.944C242.25 118.944 230.28 108.684 227.43 95.0039C224.58 100.134 222.87 105.834 222.87 112.104C222.87 130.914 237.69 145.734 256.5 145.734C275.31 145.734 290.13 130.914 290.13 112.104C290.13 105.834 288.42 100.134 285.57 95.0039Z" fill="white"/>
<path d="M222.87 226.104C232.314 226.104 239.97 218.448 239.97 209.004C239.97 199.56 232.314 191.904 222.87 191.904C213.425 191.904 205.77 199.56 205.77 209.004C205.77 218.448 213.425 226.104 222.87 226.104Z" fill="#FEE05F"/>
<path d="M290.13 226.104C299.574 226.104 307.23 218.448 307.23 209.004C307.23 199.56 299.574 191.904 290.13 191.904C280.686 191.904 273.03 199.56 273.03 209.004C273.03 218.448 280.686 226.104 290.13 226.104Z" fill="#FEE05F"/>
</g>
<defs>
<clipPath id="clip0_301_27">
<rect width="513" height="342" fill="white" transform="translate(0 0.954102)"/>
</clipPath>
</defs>
</svg>
